<svg xmlns="http://www.w3.org/2000/svg" width="78.001" height="98.712" viewBox="0 0 78.001 98.712">
  <g id="_0554df" data-name="0554df" transform="translate(0 -0.035)">
    <path id="Path_3873" data-name="Path 3873" d="M0,41.561V3.39c0-.73,0-.73.73-.73.961,0,1.921-.019,2.882,0,.327,0,.461-.1.442-.442-.019-.6,0-1.191,0-1.767,0-.288.1-.423.384-.4H59.284a1.031,1.031,0,0,1,.423.019.808.808,0,0,1,.346.327,1.031,1.031,0,0,1,.019.423v32.6c0,.73,0,.768.73.73a2.578,2.578,0,0,1,1.729.538c1.268.9,2.574,1.729,3.842,2.632a1.4,1.4,0,0,1,.5.653c.634,1.921,1.229,3.842,1.825,5.763a3.162,3.162,0,0,1,.115.941V67.822a2.572,2.572,0,0,0,.48,1.671c1.133,1.518,2.152,3.112,3.208,4.668,1.71,2.5,3.4,4.995,5.11,7.492.615.9.519,1.422-.4,2.017Q65.681,91.048,54.155,98.406c-.884.557-1.383.442-1.959-.423-1.594-2.363-3.208-4.707-4.8-7.07a7.217,7.217,0,0,1-.307-7.8.635.635,0,0,0-.058-.807c-.346-.423-.653-.864-.961-1.326a.776.776,0,0,0-.788-.4c-1.191.019-2.4,0-3.592,0H.768c-.73,0-.73,0-.73-.73Q-.019,60.715,0,41.561Zm2.132.019V77.831c0,.442.1.6.576.6Q27.26,78.4,51.83,78.408a1.7,1.7,0,0,0,.807-.231c2-1.268,3.957-2.613,5.975-3.842,2.459-1.479,4.956-2.882,7.454-4.284a1.049,1.049,0,0,0,.634-1.037q-.029-11.843-.019-23.668a3.087,3.087,0,0,0-.1-.845q-.692-2.507-1.441-5.014a1.359,1.359,0,0,0-.461-.634c-1.1-.749-2.19-1.5-3.323-2.209a1.827,1.827,0,0,0-.884-.269c-2.382-.019-4.764-.019-7.146-.019-.845,0-1.172.211-1.364,1.037a3.437,3.437,0,0,0-.077,1.326,3.342,3.342,0,0,0,2.9,2.613,11.535,11.535,0,0,0,2.44.1,3.044,3.044,0,0,1,2.517.884.892.892,0,0,1,.346.73c-.019,1.9,0,3.8,0,5.706a4.753,4.753,0,0,1-2.92,4.611,4.462,4.462,0,0,0-2.19,2.132,7.958,7.958,0,0,0-.749,3.381c-.038,1.114,0,2.248,0,3.362a13.934,13.934,0,0,0,1.94,7.358.446.446,0,0,1-.077.653Q52.839,73.3,49.6,76.39a1.376,1.376,0,0,1-1.076.4q-21.843-.029-43.7,0c-.749,0-.749,0-.749-.749V5.983c0-1.229,0-1.229-1.21-1.229-.711,0-.711,0-.711.692Q2.123,23.542,2.132,41.581ZM75.325,82.23c-.1-.154-.173-.288-.25-.4-.576-.864-1.172-1.729-1.748-2.574-1.691-2.478-3.362-4.937-5.052-7.415-.154-.231-.288-.384-.615-.211-2.613,1.518-5.283,2.958-7.838,4.572-3.151,2-6.205,4.15-9.3,6.224a5.328,5.328,0,0,0-1.364,7.3c1.422,1.94,2.728,3.977,4.073,5.994.231.346.384.384.749.154L74.787,82.615C74.979,82.5,75.133,82.365,75.325,82.23ZM23.072,50.494V63.135a2.908,2.908,0,0,1-.038.576.761.761,0,0,1-.788.692c-.807.019-1.594.019-2.4,0a.7.7,0,0,1-.73-.768v-26.8a3.2,3.2,0,0,0-.077-.749.89.89,0,0,0-.9-.653.87.87,0,0,0-.884.672,2.815,2.815,0,0,0-.1.807V48.823a1.377,1.377,0,0,1-2.728.307,2.529,2.529,0,0,1-.077-.653V33.359a2.417,2.417,0,0,1,2.67-2.632H28.874c.711,0,1.133-.365,1.133-.941s-.461-.961-1.153-.961c-4.092,0-8.2-.019-12.295,0a4.175,4.175,0,0,0-4.111,4.015q-.029,8.068,0,16.137a3.223,3.223,0,0,0,2.824,3.151,12.961,12.961,0,0,0,1.9-.058V63.481a2.693,2.693,0,0,0,2.882,2.882h2.113A2.668,2.668,0,0,0,25.012,63.5V52.953c0-.154.077-.442.134-.461a2.79,2.79,0,0,1,.98.019c.1.019.134.384.134.6v10.47a2.662,2.662,0,0,0,2.824,2.786H31.14A2.694,2.694,0,0,0,34.1,63.423V57.948c0-.845-.4-1.383-1.018-1.364-.6.019-.961.538-.961,1.364v5.61c0,.615-.25.864-.884.884H29.219c-.788,0-.98-.211-.98-1v-10.7c0-.576-.019-1.153,0-1.729,0-.365-.1-.519-.5-.5-.73.019-1.479,0-2.209,0C24.724,50.494,23.936,50.494,23.072,50.494Zm-.864-9.682c0,1.057-.019,2.113.019,3.17a2,2,0,0,0,.288.941,1.9,1.9,0,0,0,1.729.845c1.883,0,3.785.019,5.667,0,.423,0,.576.115.576.557q-.029,2.882,0,5.763a1.855,1.855,0,0,0,1.959,1.959c1.9,0,3.8-.058,5.706.019a2.035,2.035,0,0,0,2.209-2.228c-.038-1.825,0-3.65-.019-5.475,0-.461.134-.6.6-.6,1.883.019,3.785,0,5.667,0a1.956,1.956,0,0,0,2.036-2.056q-.086-2.853,0-5.706a2.011,2.011,0,0,0-2.132-2.113c-1.825.038-3.65.019-5.475.019-.692,0-.692,0-.692-.711V29.689a1.936,1.936,0,0,0-2.036-2.036c-1.94.077-3.881.077-5.8,0a1.976,1.976,0,0,0-2.036,2.036c.038,1.883,0,3.784.019,5.667,0,.461-.134.6-.6.6-1.921-.019-3.842,0-5.763-.019a1.906,1.906,0,0,0-1.921,1.94C22.246,38.834,22.208,39.813,22.208,40.812Zm3.17-12.89a7.194,7.194,0,1,0-7.2-7.166A7.221,7.221,0,0,0,25.377,27.922Z" transform="translate(0 0)" fill="#94cc00"/>
    <path id="Path_3874" data-name="Path 3874" d="M133.6,161.955V154.27c0-.423.1-.6.557-.576q2.449.029,4.9,0c.423,0,.557.134.538.557-.019,2.344,0,4.707,0,7.05,0,.672,0,.672.653.672h7.146c.423,0,.557.115.538.538q-.029,2.421,0,4.841c0,.461-.115.615-.6.6-2.344-.019-4.707-.019-7.05,0-.711,0-.711,0-.711.692,0,2.344-.019,4.707,0,7.05,0,.442-.1.615-.576.615q-2.449-.029-4.9,0c-.4,0-.519-.134-.519-.519.019-2.382,0-4.764,0-7.146,0-.672,0-.672-.653-.672-2.344,0-4.707-.019-7.05,0-.442,0-.576-.134-.576-.576q.029-2.421,0-4.841c0-.442.115-.576.557-.576,2.344.019,4.707.019,7.05.019A3.95,3.95,0,0,1,133.6,161.955Z" transform="translate(-101.229 -124.139)" fill="#94cc00"/>
    <path id="Path_3875" data-name="Path 3875" d="M109.9,90.766a5.283,5.283,0,1,1,5.245-5.264A5.211,5.211,0,0,1,109.9,90.766Z" transform="translate(-84.506 -64.765)" fill="#94cc00"/>
  </g>
</svg>
