<svg id="Group_7244" data-name="Group 7244" xmlns="http://www.w3.org/2000/svg" xmlns:xlink="http://www.w3.org/1999/xlink" width="262.855" height="211.805" viewBox="0 0 262.855 211.805">
  <defs>
    <clipPath id="clip-path">
      <rect id="Rectangle_1208" data-name="Rectangle 1208" width="262.855" height="211.805" fill="none"/>
    </clipPath>
    <clipPath id="clip-path-2">
      <rect id="Rectangle_1207" data-name="Rectangle 1207" width="262.856" height="211.805" fill="none"/>
    </clipPath>
    <clipPath id="clip-path-3">
      <rect id="Rectangle_1204" data-name="Rectangle 1204" width="27.785" height="156.07" fill="#043f48"/>
    </clipPath>
    <clipPath id="clip-path-4">
      <rect id="Rectangle_1205" data-name="Rectangle 1205" width="14.751" height="19.674" fill="none"/>
    </clipPath>
    <clipPath id="clip-path-5">
      <rect id="Rectangle_1206" data-name="Rectangle 1206" width="151.009" height="101.657" fill="none"/>
    </clipPath>
  </defs>
  <g id="Group_7256" data-name="Group 7256" clip-path="url(#clip-path)">
    <g id="Group_7255" data-name="Group 7255">
      <g id="Group_7254" data-name="Group 7254" clip-path="url(#clip-path-2)">
        <path id="Path_7908" data-name="Path 7908" d="M328.82,178.725a46.983,46.983,0,0,1,3.9-11.478c4.889-10.011,8.4-18.769,5.293-29.948-7.621-27.3-38.62-30.492-53.912-51.082C260.46,54.4,202.374,51.636,174.626,79.133c-8.508,8.428-12.492,20.334-21.092,28.67-12.67,12.291-31.482,13.874-44.494,26.128C87.827,153.923,85.767,187.8,104.6,210.28c19.888,23.738,47.959,19.845,75.224,14.8,13.415-2.481,27.362-5.171,41.035-3.264,29.159,4.107,63.758,20.126,92.019,4.18,15.053-8.5,15.438-21.746,15.09-37.2a46.028,46.028,0,0,1,.856-10.066" transform="translate(-76.332 -50.175)" fill="#f2fbfd" opacity="0.4"/>
        <path id="Path_7910" data-name="Path 7910" d="M216.135,968.249c64.64,0,117.041,11.082,117.041,24.753s-52.4,24.753-117.041,24.753S99.094,1006.672,99.094,993s52.4-24.753,117.041-24.753" transform="translate(-82.484 -805.95)" fill="#f2fbfd"/>
        <path id="Path_7912" data-name="Path 7912" d="M.139,21.2A3.813,3.813,0,0,1,3.2,16.424c3.2-.434,7.12,3.856,8.367,6.454.1.226,1.381,3.93,1.32,3.93s-5.666.128-7.945-.886c-2-.862-4.266-2.506-4.8-4.718m82.093-9.864c-.471,2.225-2.7,3.93-4.639,4.847s-6.558,1.076-7.689,1.094c-.611.727-1.265,1.516-1.968,2.4-1.222,1.565-2.579,3.343-3.924,5.372-.361.544-.727,1.137-1.094,1.711.819-.837,1.95-1.968,2.072-2.066,2.255-1.791,7.658-3.936,10.341-2.151A3.814,3.814,0,0,1,76,28.177c-1.449,1.76-4.2,2.249-6.356,2.164s-6.448-2.133-7.365-2.591c-.788,1.277-1.571,2.61-2.3,4.046a49.063,49.063,0,0,0-3.38,8.086l.165.079c.654-.862,2.078-2.64,2.212-2.769,2.041-2.035,7.181-4.755,10.048-3.282a3.82,3.82,0,0,1,1.465,5.2q-.087.155-.187.3c-1.222,1.913-3.93,2.7-6.075,2.848-2.445.177-7.585-1.754-7.78-1.833a67.732,67.732,0,0,0-1.834,8.514c-.33,2.127-.581,4.278-.813,6.472.446-.611,2.316-2.952,2.445-3.1,2.041-2.029,7.181-4.755,10.042-3.276a3.813,3.813,0,0,1,1.283,5.531c-1.222,1.907-3.93,2.7-6.075,2.842-2.414.171-7.334-1.656-7.738-1.834-.1.99-.208,1.974-.306,2.97-.318,3.233-.611,6.485-1.014,9.681-.141,1.106-.312,2.194-.483,3.282.7-.9,1.993-2.524,2.121-2.652,2.041-2.029,7.181-4.755,10.048-3.276A3.814,3.814,0,0,1,65.6,70.764q-.09.16-.194.312c-1.222,1.907-3.93,2.7-6.075,2.848s-6.313-1.3-7.481-1.723c-.3,1.833-.611,3.6-1.051,5.342-.2.752-.342,1.528-.574,2.237l-.611,2.133c-.489,1.442-.935,2.781-1.424,4.113-.244.672-.483,1.3-.727,1.956.568-1.027,1.5-2.628,1.6-2.769,1.711-2.316,6.374-5.782,9.43-4.755a3.808,3.808,0,0,1,2.109,5.268c-.941,2.078-3.478,3.264-5.58,3.734-2.31.526-7.273-.483-7.878-.611-.611,1.6-1.222,3.135-1.8,4.572-1.834,4.541-3.575,8.257-4.816,10.842l-.2.416h9.039l-3.123,60.873a8.71,8.71,0,0,1-17.4.11l-3.123-60.873h9.705c-.049-.422-.1-.868-.153-1.369-.324-2.812-.85-6.833-1.693-11.612-.238-1.381-.513-2.842-.819-4.339-.611.079-5.635.715-7.9,0-2.054-.611-4.5-2-5.281-4.144a3.815,3.815,0,0,1,2.494-5.1c3.123-.8,7.517,3.013,9.052,5.446.1.159,1.045,2.133,1.51,3.154-.183-.9-.361-1.8-.568-2.744-.293-1.351-.611-2.769-.972-4.15-.2-.709-.4-1.424-.611-2.145s-.458-1.406-.685-2.127c-.355-1.039-.776-2.1-1.222-3.154-1.357.379-5.366,1.412-7.426,1.112s-4.755-1.3-5.849-3.288a3.813,3.813,0,0,1,1.693-5.421c2.964-1.265,7.884,1.833,9.779,4.015.061.067.416.568.825,1.167-.44-1.015-.874-2.035-1.351-3.056-1.357-2.885-2.83-5.788-4.278-8.7-.306-.611-.611-1.222-.9-1.833-1.143.324-5.5,1.485-7.634,1.174s-4.755-1.3-5.849-3.294a3.814,3.814,0,0,1,1.362-5.219,3.772,3.772,0,0,1,.343-.178c2.964-1.259,7.884,1.833,9.779,4.022.067.073.489.672.947,1.351-.77-1.6-1.522-3.19-2.219-4.8a68.571,68.571,0,0,1-3.056-8.471c-.4.116-5.452,1.583-7.854,1.222-2.127-.306-4.749-1.3-5.843-3.288A3.814,3.814,0,0,1,2.718,33.6c2.97-1.259,7.89,1.833,9.779,4.015.134.159,1.626,2.335,2.133,3.135a.673.673,0,0,1,0-.1,49.623,49.623,0,0,1-1.467-8.722,68.81,68.81,0,0,1-.22-7.9c.061-2.445.263-4.682.458-6.656.116-1.07.238-2.047.367-2.958l-.055.037c-.055.037-1.131-3.728-1.173-3.973-.477-2.842.281-8.605,3.141-10.09a3.82,3.82,0,0,1,5.1,1.783,3.776,3.776,0,0,1,.157.375c.831,2.121-.085,4.767-1.222,6.607s-4.889,4.511-5.806,5.152c-.11.947-.22,1.962-.318,3.056-.153,1.974-.306,4.2-.312,6.644,0,.654,0,1.351.031,2.029.22-1.149.544-2.714.611-2.866.886-2.738,4.211-7.505,7.438-7.5a3.814,3.814,0,0,1,3.667,4.333c-.232,2.267-2.267,4.193-4.107,5.311s-6.576,1.809-7.591,1.925c.049,1.5.128,3.056.312,4.645a49.344,49.344,0,0,0,1.638,8.605h.183c.073-1.082.281-3.349.318-3.539.611-2.817,3.361-7.945,6.57-8.269a3.813,3.813,0,0,1,4.119,3.905c0,2.274-1.791,4.419-3.5,5.727-1.968,1.51-7.3,2.72-7.5,2.763A66.616,66.616,0,0,0,18.621,49.2c.9,1.956,1.883,3.906,2.891,5.849.037-.764.306-3.74.348-3.954.611-2.818,3.361-7.945,6.57-8.275A3.819,3.819,0,0,1,32.55,46.72c0,2.28-1.8,4.419-3.5,5.727-1.919,1.473-7.016,2.659-7.45,2.756.458.88.917,1.766,1.381,2.646,1.522,2.879,3.056,5.751,4.5,8.636.495,1,.947,2,1.406,3.007.079-1.143.275-3.209.306-3.386.611-2.817,3.368-7.945,6.57-8.275a3.815,3.815,0,0,1,4.119,3.905c0,2.28-1.791,4.419-3.5,5.727s-5.983,2.4-7.187,2.7c.752,1.687,1.473,3.337,2.084,5.024.251.734.55,1.461.752,2.176l.648,2.133c.385,1.473.752,2.836,1.082,4.217.171.7.312,1.357.471,2.029-.092-1.161-.2-3.013-.2-3.184.153-2.873,2.127-8.343,5.244-9.168a3.814,3.814,0,0,1,4.663,3.239,4.815,4.815,0,0,1,.055.843,14.82,14.82,0,0,1,1.95,7.212c0,.183-.3,2.353-.477,3.459.348-.856.691-1.705,1.033-2.6.507-1.29,1-2.665,1.485-4l.684-2.121c.245-.715.391-1.424.611-2.151.281-1.063.513-2.182.746-3.288-1.338-.44-5.256-1.785-6.809-3.172s-3.245-3.7-3.056-5.971a3.819,3.819,0,0,1,4.4-3.588c3.172.611,5.568,5.886,5.934,8.74,0,.092.031.7.043,1.43.2-1.088.4-2.182.556-3.294.464-3.154.831-6.387,1.222-9.62.079-.678.171-1.351.251-2.023-1.131-.361-5.385-1.778-7.01-3.233s-3.245-3.7-3.056-5.971a3.808,3.808,0,0,1,4.4-3.588c3.172.611,5.562,5.886,5.934,8.74,0,.1,0,.831.043,1.65.232-1.76.489-3.5.8-5.232a66.611,66.611,0,0,1,2.121-8.789c-.4-.122-5.421-1.687-7.23-3.3-1.607-1.436-3.252-3.7-3.056-5.971a3.807,3.807,0,0,1,4.4-3.588c3.166.611,5.562,5.886,5.935,8.74,0,.2.067,2.842.049,3.789a.132.132,0,0,1,.031-.1,50.055,50.055,0,0,1,3.588-8.086,68.986,68.986,0,0,1,4.2-6.723c1.4-2.011,2.8-3.759,4.058-5.3.685-.831,1.326-1.577,1.931-2.267h-.067c-.061,0,1.119-3.74,1.222-3.967,1.173-2.628,4.981-7.022,8.184-6.68a3.813,3.813,0,0,1,3.178,4.731M45.262,88.714c-.55-.263-4.773-2.353-6.423-4.144a40.821,40.821,0,0,1-4.413,2.072c.373,1.662.727,3.282,1.027,4.8.953,4.816,1.571,8.862,1.962,11.7.079.611.153,1.143.214,1.638h.214l.709-1.375c1.277-2.524,3.056-6.167,5-10.628.562-1.283,1.137-2.652,1.711-4.07M62.155,27.169c.049,0,1.027-3.759,1.063-4.009.4-2.848-.513-8.593-3.416-10a3.82,3.82,0,0,0-5.048,1.923,3.77,3.77,0,0,0-.147.381c-.776,2.139.214,4.761,1.381,6.564C57.358,24.174,62.149,27.169,62.155,27.169Z" transform="translate(0 -0.001)" fill="#c4db89"/>
        <path id="Path_7914" data-name="Path 7914" d="M1305.98,298.379c3.4,2.958,5.176,7.881,4.023,11.812-.717,2.445-1.864,2.221-4.819,6.912-2.746,4.361-2.323,5.486-4.2,7.61-2.62,2.969-6.11,3.79-9.922,4.634-6.266,1.387-13.476,2.92-17.2-.853-4.746-4.809,3.754-21.073,6.7-22.695,1-.553,2.761-.354,4.561-.568a21.5,21.5,0,0,0,3.707-.846,10.327,10.327,0,0,1,6.7-8.745c5.247-1.784,9.641,2.041,10.443,2.739" transform="translate(-1059.164 -245.693)" fill="#00b3cd"/>
        <path id="Path_7915" data-name="Path 7915" d="M1297.073,293.623a9.8,9.8,0,0,1,2.834.433,12.208,12.208,0,0,1,2.332.991,14.706,14.706,0,0,1,2.625,1.849,12.99,12.99,0,0,1,2.27,2.593,13.455,13.455,0,0,1,1.523,3.059,11.926,11.926,0,0,1,.654,3.254,9.442,9.442,0,0,1-.346,3.175,6.415,6.415,0,0,1-1.723,2.823,27.736,27.736,0,0,0-3.125,4.155,29.4,29.4,0,0,0-2.37,4.524,10.041,10.041,0,0,1-1.852,3.12,11.155,11.155,0,0,1-2.169,1.9,13.312,13.312,0,0,1-2.442,1.281,33.6,33.6,0,0,1-5.45,1.533c-1.818.4-3.458.758-5.129,1.037a30.939,30.939,0,0,1-5.059.485,16.511,16.511,0,0,1-2.081-.124,11.439,11.439,0,0,1-1.933-.41,8.451,8.451,0,0,1-1.741-.755,7.168,7.168,0,0,1-1.5-1.158,5.244,5.244,0,0,1-1.356-2.865,12.192,12.192,0,0,1,.036-3.773,27.223,27.223,0,0,1,1.363-5.206,42.322,42.322,0,0,1,2.211-5.048,32.956,32.956,0,0,1,2.43-4.032,8.224,8.224,0,0,1,2.076-2.18,6.785,6.785,0,0,1,2.858-.478c.584-.024,1.187-.048,1.8-.121a21.1,21.1,0,0,0,3.5-.784,11.23,11.23,0,0,1,2.2-5.41,9.886,9.886,0,0,1,4.655-3.385A9,9,0,0,1,1297.073,293.623Zm-17.425,35.694a49.766,49.766,0,0,0,10.076-1.51c3.523-.78,7.167-1.586,9.784-4.553a9.632,9.632,0,0,0,1.765-2.982,29.833,29.833,0,0,1,2.408-4.594,28.207,28.207,0,0,1,3.177-4.224,5.934,5.934,0,0,0,1.612-2.623c1.1-3.743-.561-8.6-3.944-11.543a11.647,11.647,0,0,0-7.451-3.145,8.486,8.486,0,0,0-2.738.456,10.091,10.091,0,0,0-6.529,8.529.259.259,0,0,1-.175.216,21.5,21.5,0,0,1-3.758.857c-.631.075-1.245.1-1.839.124a6.52,6.52,0,0,0-2.628.414,7.487,7.487,0,0,0-1.906,2.029,32.472,32.472,0,0,0-2.39,3.967,34.126,34.126,0,0,0-3.521,10.09c-.421,2.9-.025,4.982,1.176,6.2C1274.287,328.567,1276.538,329.317,1279.647,329.317Z" transform="translate(-1057.878 -244.406)" fill="#2e353a"/>
        <path id="Path_7916" data-name="Path 7916" d="M1394.484,480.718s.935,9.5,2.133,14.992,3.1,12.431,2.628,14.344-11,18.164-11,18.164l-3.1-2.151,6.454-19.362-5.433-18.152s4.975-7.291,8.324-7.835" transform="translate(-1152.96 -400.139)" fill="#94cc00"/>
        <path id="Path_7917" data-name="Path 7917" d="M1392.966,478.9a.305.305,0,0,1,.3.276c0,.024.238,2.407.617,5.429.349,2.786.895,6.7,1.511,9.528.281,1.29.607,2.681.921,4.026.511,2.185,1.039,4.443,1.383,6.29a11.839,11.839,0,0,1,.322,4.167,7.739,7.739,0,0,1-.636,1.4c-.318.6-.761,1.382-1.317,2.327-.934,1.588-2.2,3.661-3.764,6.161-2.661,4.255-5.3,8.328-5.325,8.369a.305.305,0,0,1-.43.085l-3.1-2.151a.306.306,0,0,1-.116-.348l6.424-19.27-5.406-18.059a.3.3,0,0,1,.04-.26,44.061,44.061,0,0,1,2.929-3.743,23.4,23.4,0,0,1,2.742-2.7,9.986,9.986,0,0,1,1.439-.991,4.493,4.493,0,0,1,1.418-.527A.3.3,0,0,1,1392.966,478.9Zm-6.326,47.375c.627-.971,2.879-4.468,5.149-8.1,1.561-2.5,2.824-4.563,3.755-6.147a21.592,21.592,0,0,0,1.887-3.564,11.7,11.7,0,0,0-.33-3.908c-.341-1.833-.868-4.085-1.377-6.262-.315-1.348-.641-2.741-.923-4.035-.621-2.849-1.17-6.784-1.52-9.584-.3-2.36-.5-4.332-.583-5.1-1.27.365-2.96,1.721-4.919,3.949a43.8,43.8,0,0,0-2.8,3.565l5.391,18.011a.3.3,0,0,1,0,.184l-6.382,19.145Z" transform="translate(-1151.443 -398.622)" fill="#2e353a"/>
        <path id="Path_7918" data-name="Path 7918" d="M1097.218,331.7c-1.528-1.76-4.81-6.332-4.81-6.332l-5.158-6.112-7.151-9.846c-.941-1.29-4.107-.825-13.25-.7s-36.9-5.158-36.9-5.158l-.935,6.112s25.4,5.5,31.849,6.112,12.431,1.406,12.431,1.406a53.476,53.476,0,0,0-2.347,5.4c-.7,2.109-8.911,13.367-8.911,13.367s-.2.122-.55.354c-.092,2.041.1,6.375,3.154,8.66,2.359,1.766,5.813,2.512,8.306,2.824.043-.141.079-.263.11-.348.355-.941,2.934-2.347,4.339-2.445s5.745.116,8.33-.116,3.985-3.753,3.985-3.753,5.7-5.562,8.318-7.835a4.482,4.482,0,0,0-.813-1.583" transform="translate(-856.531 -252.669)" fill="#94cc00"/>
        <path id="Path_7919" data-name="Path 7919" d="M1071.43,346.569l-.038,0c-2.52-.315-6.031-1.071-8.451-2.882a8.03,8.03,0,0,1-2.868-4.59,15.071,15.071,0,0,1-.408-4.329.305.305,0,0,1,.136-.241c.25-.167.426-.277.508-.329.281-.387,2.192-3.018,4.153-5.839,3.516-5.058,4.486-6.813,4.679-7.4l0-.01a54.1,54.1,0,0,1,2.169-5.043c-1.478-.191-6.6-.838-12-1.349-1.479-.14-4.078-.549-7.723-1.216-2.911-.533-6.495-1.23-10.651-2.073-7.076-1.435-13.447-2.814-13.51-2.827a.306.306,0,0,1-.237-.345l.935-6.112a.305.305,0,0,1,.359-.254c.068.013,6.869,1.3,14.736,2.579,10.4,1.685,17.934,2.576,21.783,2.576l.317,0c2.064-.028,3.794-.072,5.321-.111,1.549-.04,2.772-.071,3.8-.071a15.043,15.043,0,0,1,2.85.185,2.334,2.334,0,0,1,1.528.826l7.145,9.838,5.151,6.1.015.019c.033.046,3.291,4.58,4.793,6.31l.008.01a4.765,4.765,0,0,1,.868,1.691.305.305,0,0,1-.094.314c-2.463,2.135-7.719,7.252-8.26,7.779a9.322,9.322,0,0,1-1.036,1.8,6.3,6.3,0,0,1-1.314,1.344,3.7,3.7,0,0,1-1.867.742c-.868.078-2,.114-3.559.114h0c-.7,0-1.376-.007-2.034-.013-.553-.006-1.076-.011-1.527-.011-.568,0-.954.008-1.216.027a6.651,6.651,0,0,0-2.436.868,3.964,3.964,0,0,0-1.637,1.377c-.025.072-.057.176-.094.3l-.01.034A.306.306,0,0,1,1071.43,346.569Zm-11.161-11.621c-.08,2.244.234,6.146,3.038,8.247,2.234,1.672,5.483,2.408,7.906,2.732.014-.042.026-.081.038-.115l0-.005c.273-.723,1.429-1.428,1.913-1.7a9.6,9.6,0,0,1,1.388-.636,4.983,4.983,0,0,1,1.3-.308c.276-.019.675-.028,1.258-.028.454,0,.979.005,1.533.011.656.007,1.334.014,2.028.014h0c1.541,0,2.655-.036,3.5-.112a4.133,4.133,0,0,0,2.736-1.83,8.668,8.668,0,0,0,.992-1.731.315.315,0,0,1,.071-.106c.056-.055,5.521-5.388,8.181-7.717a4.148,4.148,0,0,0-.7-1.287c-1.5-1.731-4.6-6.045-4.816-6.339l-5.151-6.1-.014-.018-7.151-9.846c-.409-.56-1.425-.759-3.885-.759-1.022,0-2.242.031-3.786.071-1.529.039-3.261.083-5.328.111l-.325,0a86.341,86.341,0,0,1-9.741-.809c-3.429-.428-7.514-1.026-12.141-1.775-6.921-1.121-13.018-2.256-14.44-2.523l-.844,5.515c1.307.282,6.991,1.5,13.222,2.765,9.353,1.9,15.684,3.031,18.31,3.28,6.38.6,12.383,1.4,12.443,1.407a.306.306,0,0,1,.233.44,53.387,53.387,0,0,0-2.332,5.361A18.4,18.4,0,0,1,1068,324.2c-.77,1.2-1.792,2.715-3.037,4.505-2.117,3.046-4.175,5.87-4.2,5.9a.306.306,0,0,1-.089.081S1060.528,334.778,1060.269,334.948Z" transform="translate(-855.013 -251.151)" fill="#21334e"/>
        <path id="Path_7920" data-name="Path 7920" d="M1294.4,387.593a.229.229,0,0,1-.194-.107l-2.359-3.753a.229.229,0,0,1,.287-.332l3.246,1.436a.229.229,0,0,1-.186.419l-2.559-1.133,1.959,3.117a.229.229,0,0,1-.194.351Z" transform="translate(-1075.279 -319.119)" fill="#21334e"/>
        <path id="Path_7921" data-name="Path 7921" d="M1269.175,521.687a12.749,12.749,0,0,1-6.714-1.915.229.229,0,1,1,.242-.39,12.318,12.318,0,0,0,8.034,1.746.229.229,0,0,1,.058.455A12.772,12.772,0,0,1,1269.175,521.687Z" transform="translate(-1050.756 -432.294)" fill="#2e353a"/>
        <path id="Path_7922" data-name="Path 7922" d="M1250.454,498.743a.228.228,0,0,1-.089-.018,9.557,9.557,0,0,1-2.091-1.186,6.717,6.717,0,0,1-1.23-1.2,3.966,3.966,0,0,1-.731-1.333l.445-.111h0a3.64,3.64,0,0,0,.666,1.187,7.657,7.657,0,0,0,3.118,2.221.229.229,0,0,1-.089.441Z" transform="translate(-1037.405 -411.939)" fill="#2e353a"/>
        <path id="Path_7923" data-name="Path 7923" d="M1426.39,635.5a.229.229,0,0,1-.187-.1,3.479,3.479,0,0,0-2.479-1.608,2.782,2.782,0,0,0-1.242.146.229.229,0,0,1-.18-.422,3.185,3.185,0,0,1,1.444-.182,3.425,3.425,0,0,1,1.383.442,4.616,4.616,0,0,1,1.448,1.359.229.229,0,0,1-.187.362Z" transform="translate(-1183.779 -527.16)" fill="#2e353a"/>
        <path id="Path_7924" data-name="Path 7924" d="M1395.316,530.764a.228.228,0,0,1-.142-.049l-5.336-4.211a.229.229,0,0,1,.2-.4l6.05,1.54a.229.229,0,1,1-.113.444l-5.006-1.274,4.489,3.543a.229.229,0,0,1-.142.409Z" transform="translate(-1156.799 -437.91)" fill="#2e353a"/>
        <path id="Path_7925" data-name="Path 7925" d="M1196.312,343.915c-.062,0-.123,0-.184,0a32.9,32.9,0,0,1-4.97-.8c-1.929-.427-4.114-1-6.154-1.619a52.909,52.909,0,0,1-5.255-1.843,11.737,11.737,0,0,1-1.649-.83c-.479-.308-.7-.573-.7-.835,0-.7.682-1.279,2.027-1.727a12.331,12.331,0,0,1,1.91-.456.229.229,0,0,1,.065.454,12.083,12.083,0,0,0-1.835.438,4.707,4.707,0,0,0-1.222.575.942.942,0,0,0-.486.716s.013.145.513.463a11.624,11.624,0,0,0,1.594.795,52.915,52.915,0,0,0,5.206,1.821,57.241,57.241,0,0,0,10.981,2.389q.08,0,.16,0c1.685,0,3.25-1.314,4.279-2.436a16.28,16.28,0,0,0,1.933-2.61.229.229,0,0,1,.4.226,16.442,16.442,0,0,1-1.988,2.687,10.038,10.038,0,0,1-2.146,1.823A4.783,4.783,0,0,1,1196.312,343.915Z" transform="translate(-980.04 -279.513)" fill="#21334e"/>
        <path id="Path_7926" data-name="Path 7926" d="M1338.128,377.588a6.3,6.3,0,0,0-4.223.471c-1.779,1.082-6.448,11.258-6.448,11.258s.348.471,1.76.471,1.76,1.876,1.76,3.63-.122,2.579.465,2.445,4.107-1.406,4.81-.935-.941,2.811-.611,3.056,3.282-2.7,4.223-5.867,1.876-7.854,1.638-9.73-1.754-4.333-3.374-4.8" transform="translate(-1104.947 -314.153)" fill="#5581c4"/>
        <path id="Path_7927" data-name="Path 7927" d="M1335.011,375.593h0a7.563,7.563,0,0,1,1.674.181l.01,0a4.674,4.674,0,0,1,2.374,1.992,8.213,8.213,0,0,1,.8,1.51,6.452,6.452,0,0,1,.419,1.551,18.114,18.114,0,0,1-.379,4.473,51.647,51.647,0,0,1-1.269,5.382,13.215,13.215,0,0,1-2.289,4.185,11.879,11.879,0,0,1-1.232,1.344c-.555.506-.8.571-.945.571a.387.387,0,0,1-.232-.074c-.266-.2-.146-.575-.1-.718.066-.207.176-.462.293-.732a8.015,8.015,0,0,0,.424-1.122c.081-.325.042-.452.007-.476a.668.668,0,0,0-.338-.052,16.347,16.347,0,0,0-3.517.82c-.339.1-.583.181-.716.211a.808.808,0,0,1-.182.022.559.559,0,0,1-.407-.165c-.274-.278-.268-.8-.255-1.829,0-.23.006-.49.006-.77a6.835,6.835,0,0,0-.33-2.364c-.248-.647-.615-.961-1.124-.961a3.817,3.817,0,0,1-1.534-.262,1.176,1.176,0,0,1-.472-.333.306.306,0,0,1-.032-.309c.012-.026,1.186-2.581,2.563-5.237.81-1.563,1.532-2.854,2.145-3.84a7.682,7.682,0,0,1,1.859-2.315,4.568,4.568,0,0,1,1.417-.549A6.5,6.5,0,0,1,1335.011,375.593Zm1.521.773a7.122,7.122,0,0,0-1.521-.162,4.69,4.69,0,0,0-2.465.6c-.388.236-1.395,1.318-3.779,5.914-1.137,2.193-2.135,4.317-2.449,4.991a2.877,2.877,0,0,0,1.381.257,1.577,1.577,0,0,1,1.073.4,2.389,2.389,0,0,1,.622.957,7.414,7.414,0,0,1,.371,2.582c0,.284,0,.546-.006.778-.005.425-.009.76.008,1.014a1.127,1.127,0,0,0,.062.361l.027-.005c.111-.025.358-.1.672-.2a16.289,16.289,0,0,1,3.7-.848,1.209,1.209,0,0,1,.678.156.71.71,0,0,1,.306.538,1.7,1.7,0,0,1-.059.594,8.4,8.4,0,0,1-.456,1.217c-.065.151-.128.3-.18.425.081-.066.174-.149.282-.251a11.977,11.977,0,0,0,1.151-1.286,12.535,12.535,0,0,0,2.106-3.882c.96-3.228,1.855-7.817,1.628-9.6a6.871,6.871,0,0,0-1.119-2.8A4.154,4.154,0,0,0,1336.532,376.366Z" transform="translate(-1103.43 -312.636)" fill="#2e353a"/>
        <path id="Path_7928" data-name="Path 7928" d="M1358.733,388.3a53.162,53.162,0,0,1-4.1,4.1c-2.7,2.445-4.926,4.223-4.81,3.056s2.811-7.505,3.514-11,2-5.867,3.4-5.867,4.455,7.163,1.992,9.712" transform="translate(-1123.56 -315.129)" fill="#fff"/>
        <path id="Path_7929" data-name="Path 7929" d="M1348.54,394.612a.519.519,0,0,1-.4-.166.67.67,0,0,1-.138-.537,26.623,26.623,0,0,1,1.212-3.75,61.216,61.216,0,0,0,2.307-7.281,14.973,14.973,0,0,1,1.473-4.336,4.7,4.7,0,0,1,1.009-1.28,1.9,1.9,0,0,1,1.223-.5c.367,0,.769.283,1.193.842a9,9,0,0,1,1.046,1.886,13.5,13.5,0,0,1,.647,1.922,10.89,10.89,0,0,1,.328,2.048,6.412,6.412,0,0,1-.157,1.941,3.491,3.491,0,0,1-.842,1.585,53.628,53.628,0,0,1-4.12,4.12c-1.2,1.087-2.137,1.887-2.862,2.445C1349.242,394.492,1348.794,394.612,1348.54,394.612Zm6.685-17.236a1.308,1.308,0,0,0-.83.354,4.1,4.1,0,0,0-.871,1.115,14.372,14.372,0,0,0-1.4,4.153,61.555,61.555,0,0,1-2.331,7.368,29.247,29.247,0,0,0-1.179,3.6l0,.021a4.966,4.966,0,0,0,1.477-.92c.712-.548,1.636-1.338,2.825-2.414h0a53.032,53.032,0,0,0,4.078-4.077l.008-.008a4.143,4.143,0,0,0,.832-3.072,11.817,11.817,0,0,0-.927-3.766,8.5,8.5,0,0,0-.97-1.755C1355.594,377.533,1355.34,377.376,1355.224,377.376Z" transform="translate(-1122.043 -313.611)" fill="#2e353a"/>
        <path id="Path_7930" data-name="Path 7930" d="M1380.859,336.389a2.132,2.132,0,0,0,1.173,1.289c.819.232,6.919-3.282,6.919-3.282s4.339,9.259,3.63,10.665-2.812,3.172-5.158,4.81-6.68,2.934-8.324,1.992-.47-10.549-.47-10.549-1.29-1.528.116-3.991,2.115-.935,2.115-.935" transform="translate(-1147.091 -278.344)" fill="#fff"/>
        <path id="Path_7931" data-name="Path 7931" d="M1387.433,332.573a.306.306,0,0,1,.277.176c.011.023,1.1,2.351,2.088,4.822,1.832,4.579,1.755,5.681,1.539,6.111a9.1,9.1,0,0,1-2.033,2.407,33.009,33.009,0,0,1-3.224,2.516,14.142,14.142,0,0,1-3.386,1.664,11.57,11.57,0,0,1-3.581.7,3.4,3.4,0,0,1-1.684-.358,1.559,1.559,0,0,1-.628-.886,6.541,6.541,0,0,1-.29-1.388,25.024,25.024,0,0,1-.087-3.628c.076-2.186.309-4.308.369-4.828a3.131,3.131,0,0,1-.451-1.092,3.76,3.76,0,0,1-.029-1.367,5.217,5.217,0,0,1,.648-1.767c.6-1.048,1.164-1.558,1.73-1.558a.96.96,0,0,1,.712.332,1.321,1.321,0,0,1,.216.313.275.275,0,0,1,.013.033,1.83,1.83,0,0,0,.973,1.09h0c.186,0,.916-.157,3.684-1.611,1.544-.811,2.973-1.633,2.987-1.642A.305.305,0,0,1,1387.433,332.573Zm-8.32,17.785a13.512,13.512,0,0,0,6.617-2.255c2.717-1.9,4.467-3.521,5.061-4.7.044-.088.155-.5-.289-2.036-.269-.933-.7-2.134-1.271-3.57-.774-1.936-1.612-3.785-1.936-4.491-.5.283-1.576.888-2.717,1.487-.916.481-1.693.865-2.311,1.141a4.555,4.555,0,0,1-1.658.541.646.646,0,0,1-.178-.023.3.3,0,0,1-.039-.014,2.441,2.441,0,0,1-1.334-1.451c-.03-.055-.166-.281-.368-.281-.146,0-.556.122-1.2,1.25a3.835,3.835,0,0,0-.559,2.671,2.4,2.4,0,0,0,.411.972.3.3,0,0,1,.069.233c0,.024-.293,2.421-.38,4.9a24.4,24.4,0,0,0,.083,3.534c.166,1.415.486,1.74.615,1.814A2.822,2.822,0,0,0,1379.113,350.358Z" transform="translate(-1145.573 -276.827)" fill="#21334e"/>
        <path id="Path_7932" data-name="Path 7932" d="M1422.286,400.591a.229.229,0,0,1-.166-.388,16.749,16.749,0,0,1,1.382-1.266,4.667,4.667,0,0,1,2.524-1.3,1.652,1.652,0,0,1,1.29.421.746.746,0,0,1,.189.568l-.454-.065a.038.038,0,0,0,0,.006.3.3,0,0,0-.089-.217,1.319,1.319,0,0,0-.936-.254,2.293,2.293,0,0,0-1.042.359,8.759,8.759,0,0,0-1.188.833,16.618,16.618,0,0,0-1.344,1.23A.228.228,0,0,1,1422.286,400.591Z" transform="translate(-1183.689 -330.987)" fill="#2e353a"/>
        <path id="Line_109" data-name="Line 109" d="M-.411-.182A.229.229,0,0,1-.573-.249L-1.3-.976a.229.229,0,0,1,0-.324.229.229,0,0,1,.324,0l.727.727a.229.229,0,0,1,0,.324A.229.229,0,0,1-.411-.182Z" transform="translate(238.072 69.994)" fill="#2e353a"/>
        <path id="Path_7933" data-name="Path 7933" d="M1399.709,408.859a2.722,2.722,0,0,1-1.073-.5,3.051,3.051,0,0,1-.8-.884,3.932,3.932,0,0,1-.5-1.522.229.229,0,1,1,.454-.059,2.975,2.975,0,0,0,1.1,2.085,2.317,2.317,0,0,0,.893.427h0Z" transform="translate(-1163.112 -337.693)" fill="#2e353a"/>
        <path id="Path_7934" data-name="Path 7934" d="M1424.256,366.4a.229.229,0,0,1-.224-.184,4.226,4.226,0,0,0-.46-1.137,2.777,2.777,0,0,0-1.81-1.4.229.229,0,0,1,.1-.448,3.01,3.01,0,0,1,1.317.66,3.764,3.764,0,0,1,.8.973,4.606,4.606,0,0,1,.506,1.264.229.229,0,0,1-.179.27A.234.234,0,0,1,1424.256,366.4Z" transform="translate(-1183.295 -302.335)" fill="#2e353a"/>
        <path id="Path_7935" data-name="Path 7935" d="M1417.349,382.168c-.477.373-1,.5-1.179.269s.061-.709.532-1.082,1-.5,1.18-.269-.061.709-.532,1.082" transform="translate(-1178.74 -317.114)" fill="#2e353a"/>
        <path id="Path_7936" data-name="Path 7936" d="M1436,406.175c-.391.306-.825.41-.972.22s.049-.611.44-.9.825-.4.972-.22-.049.587-.44.9" transform="translate(-1194.45 -337.27)" fill="#2e353a"/>
        <path id="Path_7937" data-name="Path 7937" d="M1347.333,1003.324l6,8.33s0,1.528-2.139,1.528-3.361,0-4.584-1.528-1.222-2.445-2.445-3.056-2.445-.611-1.833-3.973,5.005-1.3,5.005-1.3" transform="translate(-1117.19 -834.625)" fill="#fff"/>
        <path id="Path_7938" data-name="Path 7938" d="M1343.184,1000.876a7.447,7.447,0,0,1,2.762.653.3.3,0,0,1,.118.1l6,8.331a.306.306,0,0,1,.057.178,1.752,1.752,0,0,1-.323.939,1.9,1.9,0,0,1-.754.626,3.178,3.178,0,0,1-1.368.268,10.958,10.958,0,0,1-2.714-.2,3.847,3.847,0,0,1-2.109-1.442,11.809,11.809,0,0,1-1.027-1.537,3.011,3.011,0,0,0-1.316-1.436c-.149-.075-.3-.142-.451-.206a2.585,2.585,0,0,1-1.42-1.086,2.726,2.726,0,0,1-.288-1.179,8.206,8.206,0,0,1,.162-1.83,2.542,2.542,0,0,1,1.02-1.727A2.871,2.871,0,0,1,1343.184,1000.876Zm2.432,1.176a6.827,6.827,0,0,0-2.432-.565,1.863,1.863,0,0,0-2.073,1.675,7.634,7.634,0,0,0-.153,1.691,2.143,2.143,0,0,0,.215.919,2.031,2.031,0,0,0,1.127.816c.156.068.317.138.48.22a3.568,3.568,0,0,1,1.57,1.675,11.131,11.131,0,0,0,.976,1.463c1.13,1.413,2.2,1.413,4.345,1.413a1.878,1.878,0,0,0,1.6-.611,1.22,1.22,0,0,0,.219-.526Z" transform="translate(-1115.672 -833.108)" fill="#2e353a"/>
        <path id="Path_7939" data-name="Path 7939" d="M1353.088,1027.327a5.214,5.214,0,0,1-3.056.452c-2.163-.391-3.478-2.555-4.278-3.484s-1.779-.923-2.7-1.7a6.015,6.015,0,0,1-1.137-1.3c-.128,2.176.929,2.249,1.98,2.781,1.223.611,1.223,1.528,2.445,3.056s2.445,1.528,4.584,1.528c1.717,0,2.072-.929,2.164-1.339" transform="translate(-1116.973 -850.109)" fill="#fff"/>
        <path id="Path_7940" data-name="Path 7940" d="M1349.406,1027.454a10.952,10.952,0,0,1-2.713-.2,3.848,3.848,0,0,1-2.109-1.442,11.837,11.837,0,0,1-1.027-1.537,3.01,3.01,0,0,0-1.316-1.436h0c-.15-.076-.3-.144-.453-.209a2.973,2.973,0,0,1-1.242-.824,2.912,2.912,0,0,1-.452-2.038.306.306,0,0,1,.561-.149,5.713,5.713,0,0,0,1.078,1.229,4.71,4.71,0,0,0,1.167.675,4.1,4.1,0,0,1,1.568,1.058c.139.161.294.359.457.569.779,1,1.956,2.507,3.64,2.813a4.9,4.9,0,0,0,2.873-.426.306.306,0,0,1,.431.342,1.833,1.833,0,0,1-.566.983A2.753,2.753,0,0,1,1349.406,1027.454Zm-6.891-5.162a3.568,3.568,0,0,1,1.569,1.675,11.149,11.149,0,0,0,.977,1.463c1.131,1.413,2.2,1.413,4.345,1.413a2.168,2.168,0,0,0,1.5-.448q-.182.055-.368.1a5.523,5.523,0,0,1-2.068.072h-.008c-1.915-.346-3.18-1.967-4.017-3.039-.166-.212-.309-.4-.438-.546a3.549,3.549,0,0,0-1.358-.9,5.264,5.264,0,0,1-1.309-.765l0,0a6.333,6.333,0,0,1-.6-.582,1.551,1.551,0,0,0,.287.7,2.45,2.45,0,0,0,1.007.641C1342.189,1022.137,1342.351,1022.208,1342.515,1022.291Z" transform="translate(-1115.455 -848.592)" fill="#2e353a"/>
        <path id="Path_7941" data-name="Path 7941" d="M1016.224,582.834c-1.222-3.667-2.964-25.621-3.869-32.57-1.833-14.13-9.987-32.472-9.987-32.472l.471-7.505c-2.494-.312-5.947-1.057-8.306-2.824-3.056-2.286-3.245-6.619-3.154-8.66-1.546,1-6.112,4-10.005,7.151-4.8,3.869-8.092,17.59-9.027,21.923s-1.992,17.113-1.992,17.113-8.446,3.282-11.845,7.945-13.721,15.243-13.721,15.243l.941,3.521s3.166-2.225,5.861-4.339,23.689-13.837,25.095-14.668,3.056-2.445,4.926-7.151c.684-1.717,1.65-4.529,2.6-7.408l3.258-10.146,3.135-2.671c3.093,8.361,10.28,24.478,11.3,26.782,1.222,2.763,2.151,15.047,5.531,22.73a78.9,78.9,0,0,1,4.278,11.368s5.733.324,4.5-3.361" transform="translate(-786.422 -415.193)" fill="#21334e"/>
        <path id="Path_7942" data-name="Path 7942" d="M1010.544,584.991c-.22,0-.354-.007-.359-.008a.305.305,0,0,1-.28-.233c0-.009-.232-.939-.869-2.791-.588-1.709-1.654-4.576-3.392-8.527a46.353,46.353,0,0,1-2.549-8.16c-.662-2.872-1.162-5.722-1.6-8.236a38.707,38.707,0,0,0-1.379-6.333l-.213-.48c-6.5-14.65-9.534-22.148-10.942-25.909l-2.737,2.331-3.231,10.063v0c-1.14,3.442-2.018,5.94-2.61,7.425a22.181,22.181,0,0,1-2.677,5.1,8.078,8.078,0,0,1-2.378,2.2c-.282.167-1.314.75-2.875,1.633-6,3.391-20.046,11.333-22.187,13.013-2.671,2.1-5.842,4.327-5.874,4.349a.306.306,0,0,1-.471-.171l-.941-3.521a.305.305,0,0,1,.077-.292c.026-.026,2.613-2.68,5.582-5.868a122.143,122.143,0,0,0,8.111-9.341,16.33,16.33,0,0,1,3.347-3.272,32.971,32.971,0,0,1,3.949-2.537,44.494,44.494,0,0,1,4.507-2.17c.063-.74.305-3.563.63-6.749.507-4.97.962-8.407,1.352-10.215a101.448,101.448,0,0,1,3.073-11.171,46.64,46.64,0,0,1,2.677-6.382,21.075,21.075,0,0,1,1.6-2.611,10.228,10.228,0,0,1,1.784-1.933c1.68-1.36,3.664-2.84,5.9-4.4,1.836-1.279,3.377-2.286,4.131-2.772a.306.306,0,0,1,.471.271c-.1,2.217.162,6.256,3.031,8.4,2.312,1.731,5.714,2.459,8.161,2.765a.306.306,0,0,1,.267.322l-.466,7.431c.263.6,2.188,5.018,4.284,10.89,1.319,3.695,2.447,7.235,3.354,10.521a82.285,82.285,0,0,1,2.342,11.077c.3,2.327.69,6.236,1.138,10.763.853,8.617,1.915,19.341,2.718,21.75a2.472,2.472,0,0,1-.208,2.329,3.548,3.548,0,0,1-2.177,1.225A9.721,9.721,0,0,1,1010.544,584.991Zm-.1-.612h.1a9.086,9.086,0,0,0,1.931-.2,2.979,2.979,0,0,0,1.817-.987,1.463,1.463,0,0,0,.271-.723,2.541,2.541,0,0,0-.147-1.056,59.59,59.59,0,0,1-1.357-8.574c-.472-4.048-.959-8.968-1.389-13.308-.448-4.521-.834-8.426-1.136-10.744-.943-7.271-3.6-15.687-5.664-21.467-2.238-6.269-4.279-10.875-4.3-10.921a.306.306,0,0,1-.026-.143l.453-7.22c-2.495-.336-5.837-1.1-8.166-2.845a8.014,8.014,0,0,1-2.87-4.59,14.681,14.681,0,0,1-.422-3.742c-.834.544-2.132,1.4-3.626,2.445-2.223,1.549-4.2,3.02-5.865,4.371h0c-2.011,1.62-3.985,5.2-5.867,10.649a100.819,100.819,0,0,0-3.053,11.1c-.38,1.761-.844,5.27-1.341,10.147-.377,3.691-.643,6.895-.645,6.927a.306.306,0,0,1-.194.26,42.709,42.709,0,0,0-4.618,2.211,22.055,22.055,0,0,0-7.09,5.63c-.781,1.071-1.99,2.541-3.595,4.371-1.281,1.46-2.816,3.151-4.563,5.028-2.609,2.8-4.924,5.191-5.47,5.753l.783,2.929c.9-.643,3.359-2.4,5.491-4.077.939-.737,4.184-2.712,9.644-5.87,4.517-2.613,9.589-5.48,12.619-7.194,1.5-.849,2.587-1.463,2.865-1.627,1.227-.725,2.88-2.177,4.8-7,.587-1.474,1.461-3.96,2.6-7.389l3.257-10.145a.3.3,0,0,1,.093-.139l3.135-2.671a.306.306,0,0,1,.485.127c1.334,3.607,4.34,11.1,11.08,26.283l.213.481a38.45,38.45,0,0,1,1.422,6.475c.85,4.851,2.015,11.5,4.109,16.255,1.75,3.978,2.824,6.866,3.416,8.589C1010.089,583.141,1010.336,584,1010.439,584.379Z" transform="translate(-784.905 -413.676)" fill="#2e353a"/>
        <path id="Path_7943" data-name="Path 7943" d="M216.249,261.947,198.6,411.869a1.161,1.161,0,0,0,1.76,1.119l11.343-6.98a3.056,3.056,0,0,1,4.15.9L230.1,428.1l5.947-89.134Z" transform="translate(-165.303 -218.039)" fill="#5581c4"/>
        <path id="Path_7944" data-name="Path 7944" d="M214.732,260.124a.305.305,0,0,1,.3.229l19.8,77.015a.305.305,0,0,1,.009.1L228.892,426.6a.306.306,0,0,1-.558.15l-14.253-21.19a2.75,2.75,0,0,0-3.735-.809h0L199,411.73a1.467,1.467,0,0,1-2.224-1.412v0l17.651-149.922a.306.306,0,0,1,.283-.269Zm19.494,77.349-19.382-75.381-17.459,148.3a.856.856,0,0,0,1.3.822l11.342-6.979a3.361,3.361,0,0,1,4.565.988l13.753,20.447Z" transform="translate(-163.786 -216.522)" fill="#2e353a"/>
        <path id="Path_7945" data-name="Path 7945" d="M224.017,283.487l-15.952,142.4a1.589,1.589,0,0,0,2.524,1.455l8.294-6.112a3.942,3.942,0,0,1,5.514.825q.066.09.128.183l9.706,14.815a.874.874,0,0,0,1.607-.544L224.506,283.493a.251.251,0,0,0-.489-.006" transform="translate(-173.181 -235.808)" fill="#5581c4"/>
        <path id="Path_7946" data-name="Path 7946" d="M222.743,281.471a.559.559,0,0,1,.544.441.309.309,0,0,1,.006.041l11.331,153.021a1.179,1.179,0,0,1-2.169.732l-9.7-14.813c-.038-.057-.077-.114-.118-.169a3.6,3.6,0,0,0-1.313-1.1,3.671,3.671,0,0,0-1.614-.376,3.607,3.607,0,0,0-2.159.713l-8.294,6.112a1.895,1.895,0,0,1-1.337.359,1.895,1.895,0,0,1-1.672-2.094l15.952-142.4a.3.3,0,0,1,.006-.037.557.557,0,0,1,.541-.427Zm10.706,154.167a.568.568,0,0,0,.566-.616v0L222.731,282.643l-15.88,141.765a1.283,1.283,0,0,0,1.132,1.419,1.285,1.285,0,0,0,.906-.244l8.294-6.112a4.231,4.231,0,0,1,2.522-.832,4.242,4.242,0,0,1,3.418,1.722c.047.064.094.13.138.2l9.706,14.815,0,0A.567.567,0,0,0,233.449,435.638Z" transform="translate(-171.663 -234.291)" fill="#2e353a"/>
        <g id="Group_7247" data-name="Group 7247" transform="translate(34.862 45.571)" opacity="0.6" style="isolation: isolate">
          <g id="Group_7246" data-name="Group 7246">
            <g id="Group_7245" data-name="Group 7245" clip-path="url(#clip-path-3)">
              <path id="Path_7947" data-name="Path 7947" d="M224.175,271.91,207.991,416.368a1.589,1.589,0,0,0,2.524,1.455l8.294-6.112a3.942,3.942,0,0,1,5.514.825q.066.09.128.183l9.705,14.815a.874.874,0,0,0,1.607-.544L224.291,271.91a.061.061,0,0,0-.116,0" transform="translate(-207.981 -271.868)" fill="#043f48"/>
            </g>
          </g>
        </g>
        <path id="Path_7948" data-name="Path 7948" d="M285.949,1088.188a3.942,3.942,0,0,1,3.227,1.778l9.705,14.815a.874.874,0,0,0,1.607-.544l-1.387-18.726-13.36,2.616a1.161,1.161,0,0,1,.208.061" transform="translate(-237.845 -903.556)" fill="#5581c4"/>
        <path id="Path_7949" data-name="Path 7949" d="M297.584,1083.688a.305.305,0,0,1,.3.283l1.387,18.725a1.18,1.18,0,0,1-2.169.734l-9.7-14.814a3.634,3.634,0,0,0-2.977-1.64.305.305,0,0,1-.108-.022.857.857,0,0,0-.153-.045.306.306,0,0,1,0-.6l13.36-2.615A.3.3,0,0,1,297.584,1083.688Zm.517,19.674a.569.569,0,0,0,.566-.616v0L297.3,1084.36l-11.509,2.253a4.244,4.244,0,0,1,2.118,1.668l9.706,14.815,0,0A.567.567,0,0,0,298.1,1103.362Z" transform="translate(-236.327 -902.039)" fill="#2e353a"/>
        <g id="Group_7250" data-name="Group 7250" transform="translate(47.896 181.955)" opacity="0.3" style="isolation: isolate">
          <g id="Group_7249" data-name="Group 7249">
            <g id="Group_7248" data-name="Group 7248" clip-path="url(#clip-path-4)">
              <path id="Path_7950" data-name="Path 7950" d="M285.949,1088.188a3.942,3.942,0,0,1,3.227,1.778l9.705,14.815a.874.874,0,0,0,1.607-.544l-1.387-18.726-13.36,2.616a1.161,1.161,0,0,1,.208.061" transform="translate(-285.741 -1085.511)"/>
            </g>
          </g>
        </g>
        <path id="Path_7951" data-name="Path 7951" d="M306.087,261.4,319.576,427.64l157.287-29.972L439.9,268.019Z" transform="translate(-254.78 -217.583)" fill="#245979"/>
        <path id="Path_7952" data-name="Path 7952" d="M304.57,259.577h.015L438.4,266.2a.305.305,0,0,1,.279.221l36.964,129.649a.306.306,0,0,1-.237.384L318.116,426.423a.305.305,0,0,1-.362-.275L304.265,259.907a.306.306,0,0,1,.3-.33ZM438.147,266.8,304.9,260.2l13.433,165.554L474.96,395.913Z" transform="translate(-253.263 -216.066)" fill="#2e353a"/>
        <path id="Path_7953" data-name="Path 7953" d="M349.586,282.8l9.265,153.864,147.905-26.892-31.176-119.54Z" transform="translate(-290.988 -235.399)" fill="#00b3cd"/>
        <path id="Path_7954" data-name="Path 7954" d="M348.069,280.98h.018l125.995,7.432a.305.305,0,0,1,.278.228l31.176,119.54a.306.306,0,0,1-.241.378L357.389,435.45a.306.306,0,0,1-.36-.282L347.764,281.3a.306.306,0,0,1,.305-.324Zm125.755,8.03-125.429-7.4,9.224,153.177,147.242-26.771Z" transform="translate(-289.471 -233.882)" fill="#2e353a"/>
        <path id="Path_7955" data-name="Path 7955" d="M403.513,703.146l7.035,72.932,134.386-24.435-12.487-54.817Z" transform="translate(-335.876 -580.024)" fill="#fff"/>
        <path id="Path_7956" data-name="Path 7956" d="M530.93,695a.306.306,0,0,1,.3.238l12.486,54.817a.306.306,0,0,1-.243.369L409.085,774.861a.306.306,0,0,1-.359-.271l-7.035-72.932a.305.305,0,0,1,.289-.334L530.915,695Zm12.117,54.879-12.359-54.255-128.358,6.291L409.3,774.2Z" transform="translate(-334.358 -578.506)" fill="#2e353a"/>
        <path id="Line_110" data-name="Line 110" d="M.713,22.214a.306.306,0,0,1-.3-.277L-1.822-1.489a.306.306,0,0,1,.275-.333.306.306,0,0,1,.333.275L1.018,21.88a.306.306,0,0,1-.275.333Z" transform="translate(92.863 170.515)" fill="#2e353a"/>
        <path id="Line_111" data-name="Line 111" d="M.633,18.315a.306.306,0,0,1-.3-.272L-1.821-1.484a.306.306,0,0,1,.27-.337.306.306,0,0,1,.337.27L.938,17.976a.306.306,0,0,1-.27.337Z" transform="translate(113.508 170.79)" fill="#2e353a"/>
        <path id="Line_112" data-name="Line 112" d="M.994,14.41a.306.306,0,0,1-.3-.257L-1.819-1.469a.306.306,0,0,1,.253-.35.306.306,0,0,1,.35.253L1.3,14.055a.306.306,0,0,1-.3.354Z" transform="translate(133.31 170.791)" fill="#2e353a"/>
        <path id="Line_113" data-name="Line 113" d="M1.471,17.411a.306.306,0,0,1-.3-.257L-1.819-1.469a.306.306,0,0,1,.253-.35.306.306,0,0,1,.35.253L1.773,17.057a.306.306,0,0,1-.3.354Z" transform="translate(153.608 164.226)" fill="#2e353a"/>
        <path id="Line_114" data-name="Line 114" d="M1.031,16.965a.306.306,0,0,1-.3-.263L-1.82-1.475a.306.306,0,0,1,.26-.345.306.306,0,0,1,.345.26L1.334,16.616a.306.306,0,0,1-.3.348Z" transform="translate(172.346 161.372)" fill="#2e353a"/>
        <path id="Line_115" data-name="Line 115" d="M2.277,20.644a.306.306,0,0,1-.3-.253l-3.8-21.856a.306.306,0,0,1,.249-.353.306.306,0,0,1,.353.249l3.8,21.856a.306.306,0,0,1-.3.358Z" transform="translate(188.647 154.448)" fill="#2e353a"/>
        <path id="Path_7957" data-name="Path 7957" d="M1375.083,751.265s-1.87,1.883-1.992,2.86a15.975,15.975,0,0,0,.856,3.924l2.946.489,1.3-5.122Z" transform="translate(-1142.922 -625.337)" fill="#fff"/>
        <path id="Path_7958" data-name="Path 7958" d="M1373.566,749.442a.305.305,0,0,1,.174.054l3.1,2.151a.306.306,0,0,1,.122.326l-1.3,5.122a.305.305,0,0,1-.346.226l-2.946-.489a.306.306,0,0,1-.24-.205c0-.008-.25-.755-.479-1.613-.135-.507-.238-.953-.305-1.328a3.978,3.978,0,0,1-.085-1.118,2.588,2.588,0,0,1,.406-.981,9.211,9.211,0,0,1,.7-.971c.487-.6.951-1.066.971-1.086A.306.306,0,0,1,1373.566,749.442Zm2.756,2.587-2.717-1.882c-.177.188-.465.5-.756.861a3.884,3.884,0,0,0-.973,1.638,14.012,14.012,0,0,0,.786,3.615l2.486.413Z" transform="translate(-1141.405 -623.82)" fill="#2e353a"/>
        <g id="Group_7253" data-name="Group 7253" transform="translate(59.344 89.911)" opacity="0.49" style="isolation: isolate">
          <g id="Group_7252" data-name="Group 7252">
            <g id="Group_7251" data-name="Group 7251" clip-path="url(#clip-path-5)">
              <path id="Path_7959" data-name="Path 7959" d="M354.034,536.4s3.1,44.683,5.959,60.977,8.147,40.68,8.147,40.68,91.677-14.191,136.9-33.346l-3.667-17.516Z" transform="translate(-354.034 -536.395)" fill="#5581c4"/>
            </g>
          </g>
        </g>
        <path id="Path_7960" data-name="Path 7960" d="M329.313,272.812l128.757,6.937s12.535,37.557,25.009,58.765,33.046,19.827,33.046,19.827-47.183,25.8-83.933,39.531a291.893,291.893,0,0,1-71.416,16.85s-30.21-41.267-31.463-141.91" transform="translate(-274.113 -227.083)" fill="#00b3cd"/>
        <path id="Path_7961" data-name="Path 7961" d="M327.8,270.989h.016l128.757,6.937a.306.306,0,0,1,.273.208c.008.023.8,2.39,2.153,6.2,1.249,3.513,3.247,9.005,5.67,15.221,2.723,6.985,5.416,13.442,8.006,19.19a191.989,191.989,0,0,0,9.154,18.1,42.313,42.313,0,0,0,9.089,10.938,37.275,37.275,0,0,0,9.592,5.894,35.431,35.431,0,0,0,13.326,2.862c.484,0,.753-.017.756-.018a.306.306,0,0,1,.167.573c-.03.016-3.008,1.644-7.951,4.248-4.561,2.4-11.776,6.154-20.245,10.373-9.519,4.743-18.65,9.1-27.139,12.95-10.614,4.813-20.249,8.843-28.638,11.978-4.565,1.7-9.3,3.33-14.065,4.83-4.334,1.364-8.795,2.655-13.258,3.838-7.517,1.992-15.181,3.717-22.779,5.128-6.761,1.255-12.216,2.024-15.6,2.447-3.672.459-5.774.624-5.795.626a.305.305,0,0,1-.27-.124c-.02-.027-.488-.669-1.313-1.988-.759-1.213-1.973-3.252-3.451-6.071-1.659-3.166-3.306-6.654-4.9-10.366-1.985-4.638-3.885-9.642-5.646-14.872a287.19,287.19,0,0,1-10.769-44.111c-.77-4.613-1.469-9.382-2.078-14.175-.641-5.045-1.2-10.256-1.658-15.487-.482-5.486-.87-11.147-1.153-16.826-.3-5.936-.484-12.056-.56-18.191a.306.306,0,0,1,.306-.309Zm128.533,7.536-128.224-6.908a426.465,426.465,0,0,0,5.436,64.259,286.584,286.584,0,0,0,10.745,44.017c1.756,5.215,3.65,10.2,5.628,14.827,1.582,3.7,3.223,7.17,4.875,10.322,1.469,2.8,2.675,4.826,3.428,6.031.6.958,1.012,1.56,1.19,1.813.57-.048,2.536-.226,5.6-.61,3.379-.423,8.823-1.19,15.569-2.443,7.582-1.408,15.229-3.13,22.73-5.118,9.375-2.485,18.547-5.394,27.259-8.648,8.376-3.13,18-7.155,28.6-11.962,8.483-3.847,17.607-8.2,27.119-12.94,8.464-4.217,15.674-7.965,20.233-10.367,3.2-1.686,5.576-2.962,6.86-3.656a36.442,36.442,0,0,1-13.109-2.906,37.883,37.883,0,0,1-9.75-5.99,40.474,40.474,0,0,1-4.795-4.813,45.746,45.746,0,0,1-4.427-6.282,192.57,192.57,0,0,1-9.186-18.159c-2.594-5.758-5.292-12.225-8.018-19.221-2.426-6.223-4.426-11.722-5.677-15.238C457.285,281.348,456.546,279.169,456.329,278.525Z" transform="translate(-272.596 -225.565)" fill="#2e353a"/>
        <path id="Path_7962" data-name="Path 7962" d="M394.1,232.923c-2.39,0-4.119,2.121-4.663,5.446l2.445.135c.379-1.919,1.131-3.135,2.213-3.135,1.259,0,2.658,2.023,2.658,4.932s-1.4,4.938-2.658,4.938a1.222,1.222,0,1,0,0,2.445c2.86,0,5.1-3.245,5.1-7.383s-2.237-7.377-5.1-7.377" transform="translate(-324.161 -193.88)" fill="#fff"/>
        <path id="Path_7963" data-name="Path 7963" d="M392.332,231.1a4.142,4.142,0,0,1,2.161.615,5.632,5.632,0,0,1,1.712,1.654,10.339,10.339,0,0,1,0,10.831,5.646,5.646,0,0,1-1.714,1.656,4.142,4.142,0,0,1-2.162.616,1.528,1.528,0,1,1,0-3.056c.515,0,1.09-.458,1.537-1.226a7.515,7.515,0,0,0,0-6.809c-.447-.766-1.022-1.224-1.537-1.224a1.374,1.374,0,0,0-1.117.714,5.984,5.984,0,0,0-.8,2.174l-.051.261-3.049-.168.055-.336a10.521,10.521,0,0,1,.641-2.321,6.808,6.808,0,0,1,1.066-1.8A4.187,4.187,0,0,1,392.332,231.1Zm-.006,14.76a4.154,4.154,0,0,0,3.373-2.008,9.734,9.734,0,0,0,0-10.136,4.148,4.148,0,0,0-3.37-2,3.593,3.593,0,0,0-2.79,1.368,7.644,7.644,0,0,0-1.511,3.486l1.838.1a6.227,6.227,0,0,1,.835-2.14,2.476,2.476,0,0,1,.711-.714,1.687,1.687,0,0,1,.912-.267,2.61,2.61,0,0,1,2.065,1.527,8.117,8.117,0,0,1,0,7.425,2.611,2.611,0,0,1-2.065,1.53.917.917,0,1,0,0,1.833Z" transform="translate(-322.39 -192.363)" fill="#2e353a"/>
        <path id="Path_7964" data-name="Path 7964" d="M434.351,289.1a.229.229,0,0,1-.209-.324,8.227,8.227,0,0,0,.44-1.225.229.229,0,1,1,.442.12,8.675,8.675,0,0,1-.465,1.293A.229.229,0,0,1,434.351,289.1Z" transform="translate(-361.354 -239.207)" fill="#2e353a"/>
        <path id="Path_7965" data-name="Path 7965" d="M402.732,245.92h-.02a.229.229,0,0,1-.209-.248,7.48,7.48,0,0,0-1.487-5.351,2.8,2.8,0,0,0-1.888-1.087,2.877,2.877,0,0,0-2.617,1.389,5.744,5.744,0,0,0-.77,1.573.229.229,0,0,1-.442-.122,6.106,6.106,0,0,1,.83-1.7,4.063,4.063,0,0,1,1.187-1.148,3.072,3.072,0,0,1,1.843-.445,3.241,3.241,0,0,1,2.2,1.246,6.731,6.731,0,0,1,1.288,2.494,8.843,8.843,0,0,1,.308,3.194A.229.229,0,0,1,402.732,245.92Z" transform="translate(-329.031 -198.745)" fill="#2e353a"/>
        <path id="Path_7966" data-name="Path 7966" d="M520.771,239.3c-2.39,0-4.119,2.121-4.663,5.446l2.445.134c.379-1.919,1.131-3.135,2.213-3.135,1.259,0,2.659,2.023,2.659,4.932s-1.4,4.938-2.659,4.938a1.222,1.222,0,1,0,0,2.445c2.86,0,5.1-3.245,5.1-7.383s-2.231-7.377-5.1-7.377" transform="translate(-429.597 -199.192)" fill="#fff"/>
        <path id="Path_7967" data-name="Path 7967" d="M519,237.481a4.149,4.149,0,0,1,2.163.615,5.626,5.626,0,0,1,1.712,1.654,10.346,10.346,0,0,1-.005,10.831,5.646,5.646,0,0,1-1.714,1.656,4.142,4.142,0,0,1-2.162.616,1.528,1.528,0,1,1,0-3.056c.515,0,1.09-.458,1.537-1.226a7.515,7.515,0,0,0,0-6.809c-.447-.766-1.022-1.224-1.537-1.224a1.374,1.374,0,0,0-1.117.714,5.984,5.984,0,0,0-.8,2.174l-.051.26-3.049-.168.055-.336a10.522,10.522,0,0,1,.641-2.321,6.806,6.806,0,0,1,1.066-1.8A4.186,4.186,0,0,1,519,237.481Zm-.006,14.76a4.153,4.153,0,0,0,3.373-2.008,9.741,9.741,0,0,0,.005-10.136,4.147,4.147,0,0,0-3.372-2,3.593,3.593,0,0,0-2.79,1.368,7.644,7.644,0,0,0-1.511,3.486l1.838.1a6.227,6.227,0,0,1,.835-2.14,2.477,2.477,0,0,1,.711-.714,1.687,1.687,0,0,1,.912-.267,2.61,2.61,0,0,1,2.065,1.527,8.117,8.117,0,0,1,0,7.425,2.611,2.611,0,0,1-2.065,1.53.917.917,0,1,0,0,1.833Z" transform="translate(-427.827 -197.674)" fill="#2e353a"/>
        <path id="Path_7968" data-name="Path 7968" d="M561.056,295.477a.229.229,0,0,1-.209-.324,8.2,8.2,0,0,0,.44-1.225.229.229,0,1,1,.442.12,8.667,8.667,0,0,1-.464,1.293A.229.229,0,0,1,561.056,295.477Z" transform="translate(-466.821 -244.519)" fill="#2e353a"/>
        <path id="Path_7969" data-name="Path 7969" d="M529.437,252.3h-.02a.229.229,0,0,1-.208-.248,7.48,7.48,0,0,0-1.487-5.351,2.8,2.8,0,0,0-1.888-1.087A2.877,2.877,0,0,0,523.216,247a5.741,5.741,0,0,0-.77,1.573.229.229,0,0,1-.442-.122,6.1,6.1,0,0,1,.83-1.7,4.063,4.063,0,0,1,1.187-1.148,3.073,3.073,0,0,1,1.844-.445,3.242,3.242,0,0,1,2.2,1.246,6.733,6.733,0,0,1,1.288,2.494,8.846,8.846,0,0,1,.308,3.194A.229.229,0,0,1,529.437,252.3Z" transform="translate(-434.498 -204.057)" fill="#2e353a"/>
        <path id="Path_7970" data-name="Path 7970" d="M647.512,245.685c-2.39,0-4.119,2.121-4.663,5.446l2.445.134c.379-1.919,1.131-3.135,2.213-3.135,1.259,0,2.658,2.023,2.658,4.932s-1.4,4.938-2.658,4.938a1.222,1.222,0,1,0,0,2.445c2.86,0,5.1-3.245,5.1-7.383s-2.237-7.377-5.1-7.377" transform="translate(-535.094 -204.503)" fill="#fff"/>
        <path id="Path_7971" data-name="Path 7971" d="M645.742,243.862a4.142,4.142,0,0,1,2.161.615,5.633,5.633,0,0,1,1.712,1.654,10.339,10.339,0,0,1,0,10.831,5.646,5.646,0,0,1-1.714,1.656,4.143,4.143,0,0,1-2.162.616,1.528,1.528,0,1,1,0-3.056c.515,0,1.09-.458,1.537-1.227a7.515,7.515,0,0,0,0-6.809c-.447-.766-1.022-1.224-1.537-1.224a1.374,1.374,0,0,0-1.117.714,5.985,5.985,0,0,0-.8,2.175l-.051.26-3.049-.168.055-.336a10.525,10.525,0,0,1,.641-2.321,6.807,6.807,0,0,1,1.066-1.8A4.187,4.187,0,0,1,645.742,243.862Zm-.006,14.76a4.154,4.154,0,0,0,3.373-2.008,9.734,9.734,0,0,0,0-10.136,4.148,4.148,0,0,0-3.37-2,3.593,3.593,0,0,0-2.79,1.368,7.644,7.644,0,0,0-1.511,3.486l1.838.1a6.226,6.226,0,0,1,.835-2.14,2.477,2.477,0,0,1,.711-.714,1.687,1.687,0,0,1,.912-.267,2.61,2.61,0,0,1,2.065,1.527,8.117,8.117,0,0,1,0,7.425,2.611,2.611,0,0,1-2.065,1.53.917.917,0,1,0,0,1.833Z" transform="translate(-533.323 -202.985)" fill="#2e353a"/>
        <path id="Path_7972" data-name="Path 7972" d="M687.761,301.858a.229.229,0,0,1-.209-.324,8.215,8.215,0,0,0,.44-1.225.229.229,0,1,1,.442.12,8.665,8.665,0,0,1-.465,1.293A.229.229,0,0,1,687.761,301.858Z" transform="translate(-572.287 -249.83)" fill="#2e353a"/>
        <path id="Path_7973" data-name="Path 7973" d="M656.142,258.682h-.02a.229.229,0,0,1-.209-.248,7.479,7.479,0,0,0-1.487-5.351A2.8,2.8,0,0,0,652.538,252a2.876,2.876,0,0,0-2.617,1.389,5.743,5.743,0,0,0-.77,1.573.229.229,0,0,1-.442-.122,6.106,6.106,0,0,1,.83-1.7,4.062,4.062,0,0,1,1.187-1.148,3.072,3.072,0,0,1,1.843-.445,3.241,3.241,0,0,1,2.2,1.246,6.73,6.73,0,0,1,1.288,2.494,8.844,8.844,0,0,1,.308,3.194A.229.229,0,0,1,656.142,258.682Z" transform="translate(-539.964 -209.368)" fill="#2e353a"/>
        <path id="Path_7974" data-name="Path 7974" d="M774.217,252.065c-2.39,0-4.119,2.121-4.663,5.446l2.445.134c.379-1.919,1.131-3.135,2.213-3.135,1.259,0,2.658,2.023,2.658,4.932s-1.4,4.938-2.658,4.938a1.222,1.222,0,1,0,0,2.445c2.86,0,5.1-3.245,5.1-7.383s-2.237-7.377-5.1-7.377" transform="translate(-640.56 -209.814)" fill="#fff"/>
        <path id="Path_7975" data-name="Path 7975" d="M772.447,250.242a4.142,4.142,0,0,1,2.161.615,5.634,5.634,0,0,1,1.712,1.654,10.339,10.339,0,0,1,0,10.831A5.647,5.647,0,0,1,774.6,265a4.143,4.143,0,0,1-2.162.616,1.528,1.528,0,1,1,0-3.056c.515,0,1.09-.458,1.537-1.226a7.515,7.515,0,0,0,0-6.809c-.447-.766-1.022-1.224-1.537-1.224a1.374,1.374,0,0,0-1.117.714,5.984,5.984,0,0,0-.8,2.174l-.052.26-3.049-.168.055-.336a10.525,10.525,0,0,1,.641-2.321,6.81,6.81,0,0,1,1.066-1.8A4.187,4.187,0,0,1,772.447,250.242ZM772.441,265a4.153,4.153,0,0,0,3.373-2.008,9.734,9.734,0,0,0,0-10.136,4.147,4.147,0,0,0-3.37-2,3.593,3.593,0,0,0-2.79,1.368,7.643,7.643,0,0,0-1.511,3.486l1.838.1a6.227,6.227,0,0,1,.836-2.14,2.475,2.475,0,0,1,.711-.714,1.687,1.687,0,0,1,.912-.267,2.61,2.61,0,0,1,2.065,1.527,8.118,8.118,0,0,1,0,7.425,2.611,2.611,0,0,1-2.065,1.53.917.917,0,1,0,0,1.833Z" transform="translate(-638.79 -208.296)" fill="#2e353a"/>
        <path id="Path_7976" data-name="Path 7976" d="M814.466,308.238a.229.229,0,0,1-.209-.324,8.218,8.218,0,0,0,.44-1.225.229.229,0,1,1,.442.12,8.663,8.663,0,0,1-.465,1.293A.229.229,0,0,1,814.466,308.238Z" transform="translate(-677.754 -255.141)" fill="#2e353a"/>
        <path id="Path_7977" data-name="Path 7977" d="M782.847,265.063h-.02a.229.229,0,0,1-.209-.248,7.479,7.479,0,0,0-1.487-5.351,2.8,2.8,0,0,0-1.888-1.087,2.88,2.88,0,0,0-2.624,1.4,5.711,5.711,0,0,0-.763,1.562.229.229,0,1,1-.442-.122,6.1,6.1,0,0,1,.83-1.7,4.062,4.062,0,0,1,1.187-1.148,3.073,3.073,0,0,1,1.843-.445,3.241,3.241,0,0,1,2.2,1.246,6.73,6.73,0,0,1,1.288,2.494,8.843,8.843,0,0,1,.308,3.194A.229.229,0,0,1,782.847,265.063Z" transform="translate(-645.431 -214.68)" fill="#2e353a"/>
        <path id="Path_7978" data-name="Path 7978" d="M903.249,257.717c-2.39,0-4.119,2.121-4.657,5.452l2.445.134c.385-1.919,1.137-3.141,2.212-3.141,1.259,0,2.665,2.029,2.665,4.938s-1.406,4.932-2.665,4.932a1.222,1.222,0,0,0,0,2.445c2.867,0,5.109-3.239,5.109-7.377s-2.243-7.383-5.109-7.383" transform="translate(-747.969 -214.518)" fill="#fff"/>
        <path id="Path_7979" data-name="Path 7979" d="M901.482,255.894a4.153,4.153,0,0,1,2.165.615,5.649,5.649,0,0,1,1.716,1.656,10.326,10.326,0,0,1,0,10.831,5.643,5.643,0,0,1-1.716,1.654,4.158,4.158,0,0,1-2.165.614,1.528,1.528,0,1,1,0-3.056c.516,0,1.092-.458,1.541-1.224a7.489,7.489,0,0,0,0-6.809c-.449-.768-1.025-1.227-1.541-1.227a1.371,1.371,0,0,0-1.112.717,6.063,6.063,0,0,0-.8,2.179l-.052.26-3.048-.168.054-.335a10.5,10.5,0,0,1,.638-2.325,6.794,6.794,0,0,1,1.064-1.8A4.182,4.182,0,0,1,901.482,255.894Zm0,14.76a4.16,4.16,0,0,0,3.378-2.005,9.721,9.721,0,0,0,0-10.135,4.16,4.16,0,0,0-3.378-2.008,3.589,3.589,0,0,0-2.789,1.368,7.633,7.633,0,0,0-1.507,3.492l1.84.1a6.3,6.3,0,0,1,.839-2.143,2.487,2.487,0,0,1,.709-.716,1.673,1.673,0,0,1,.909-.269,1.888,1.888,0,0,1,1.133.425,3.747,3.747,0,0,1,.936,1.1,8.093,8.093,0,0,1,0,7.426,3.739,3.739,0,0,1-.936,1.1,1.89,1.89,0,0,1-1.133.424.917.917,0,1,0,0,1.833Z" transform="translate(-746.202 -213.001)" fill="#2e353a"/>
        <path id="Path_7980" data-name="Path 7980" d="M943.468,313.921a.229.229,0,0,1-.208-.325,7.921,7.921,0,0,0,.439-1.218.229.229,0,0,1,.443.12,8.362,8.362,0,0,1-.465,1.288A.229.229,0,0,1,943.468,313.921Z" transform="translate(-785.132 -259.876)" fill="#2e353a"/>
        <path id="Path_7981" data-name="Path 7981" d="M911.855,270.72h-.02a.229.229,0,0,1-.209-.248,7.505,7.505,0,0,0-1.495-5.361,2.8,2.8,0,0,0-1.886-1.083,2.879,2.879,0,0,0-2.622,1.4,5.747,5.747,0,0,0-.766,1.566.229.229,0,0,1-.442-.123,6.151,6.151,0,0,1,.833-1.707,4.074,4.074,0,0,1,1.187-1.15,3.062,3.062,0,0,1,1.841-.446,3.239,3.239,0,0,1,2.2,1.242,6.737,6.737,0,0,1,1.292,2.5,8.89,8.89,0,0,1,.312,3.2A.229.229,0,0,1,911.855,270.72Z" transform="translate(-752.809 -219.383)" fill="#2e353a"/>
        <path id="Path_7982" data-name="Path 7982" d="M1027.183,264.535c-2.39,0-4.119,2.121-4.657,5.446l2.445.14c.385-1.919,1.137-3.141,2.213-3.141,1.259,0,2.665,2.029,2.665,4.932s-1.406,4.938-2.665,4.938a1.222,1.222,0,1,0,0,2.445c2.866,0,5.109-3.245,5.109-7.383s-2.243-7.377-5.109-7.377" transform="translate(-851.129 -220.193)" fill="#fff"/>
        <path id="Path_7983" data-name="Path 7983" d="M1025.417,262.712a4.158,4.158,0,0,1,2.165.614,5.641,5.641,0,0,1,1.716,1.654,10.326,10.326,0,0,1,0,10.831,5.646,5.646,0,0,1-1.716,1.656,4.153,4.153,0,0,1-2.165.615,1.528,1.528,0,0,1,0-3.056c.516,0,1.091-.459,1.541-1.229a7.479,7.479,0,0,0,0-6.8c-.449-.768-1.025-1.226-1.541-1.226a1.371,1.371,0,0,0-1.112.717,6.062,6.062,0,0,0-.8,2.179l-.052.26-3.048-.175.054-.334a10.484,10.484,0,0,1,.638-2.321,6.791,6.791,0,0,1,1.065-1.8A4.183,4.183,0,0,1,1025.417,262.712Zm0,14.76a4.16,4.16,0,0,0,3.378-2.008,9.721,9.721,0,0,0,0-10.135,4.16,4.16,0,0,0-3.379-2.005,3.591,3.591,0,0,0-2.79,1.368,7.622,7.622,0,0,0-1.507,3.487l1.84.106a6.3,6.3,0,0,1,.839-2.142,2.49,2.49,0,0,1,.709-.716,1.672,1.672,0,0,1,.909-.268,1.888,1.888,0,0,1,1.133.425,3.741,3.741,0,0,1,.935,1.1,8.082,8.082,0,0,1,0,7.421,3.752,3.752,0,0,1-.935,1.106,1.886,1.886,0,0,1-1.133.426.917.917,0,0,0,0,1.833Z" transform="translate(-849.362 -218.676)" fill="#2e353a"/>
        <path id="Path_7984" data-name="Path 7984" d="M1067.4,320.526a.229.229,0,0,1-.208-.325,7.735,7.735,0,0,0,.439-1.223.229.229,0,1,1,.443.118,8.2,8.2,0,0,1-.465,1.3A.229.229,0,0,1,1067.4,320.526Z" transform="translate(-888.292 -265.369)" fill="#2e353a"/>
        <path id="Path_7985" data-name="Path 7985" d="M1035.789,277.35h-.02a.229.229,0,0,1-.209-.248,7.5,7.5,0,0,0-1.493-5.354,2.8,2.8,0,0,0-1.888-1.084,2.88,2.88,0,0,0-2.622,1.4,5.757,5.757,0,0,0-.766,1.566.229.229,0,1,1-.442-.123,6.137,6.137,0,0,1,.833-1.707,4.075,4.075,0,0,1,1.187-1.15,3.062,3.062,0,0,1,1.841-.446,3.242,3.242,0,0,1,2.2,1.243,6.73,6.73,0,0,1,1.29,2.5,8.882,8.882,0,0,1,.311,3.2A.229.229,0,0,1,1035.789,277.35Z" transform="translate(-855.969 -224.907)" fill="#2e353a"/>
        <path id="Path_7986" data-name="Path 7986" d="M1385.646,757.716a7.207,7.207,0,0,1,1.222,2.39c0,.715-1.675,1.913-1.675,3.581s-2.151,1.222-2.39,0a5.973,5.973,0,0,1,.477-2.866s-1-.611-1.222-2.763,1.711-1.54,1.711-1.54Z" transform="translate(-1150.38 -629.643)" fill="#fff"/>
        <path id="Path_7987" data-name="Path 7987" d="M1381.685,754.615a2.412,2.412,0,0,1,.66.094.311.311,0,0,1,.073.034l1.876,1.2a.3.3,0,0,1,.083.078c.013.018.317.435.626.949a3.67,3.67,0,0,1,.655,1.621,2.452,2.452,0,0,1-.638,1.255,4.143,4.143,0,0,0-1.037,2.326,1.411,1.411,0,0,1-.386,1.052,1.248,1.248,0,0,1-.9.344,1.855,1.855,0,0,1-1.064-.357,1.6,1.6,0,0,1-.648-.981,5.832,5.832,0,0,1,.409-2.83,2.771,2.771,0,0,1-.415-.5,4.158,4.158,0,0,1-.443-.916,6.3,6.3,0,0,1-.3-1.408,1.91,1.91,0,0,1,.353-1.525A1.42,1.42,0,0,1,1381.685,754.615Zm.442.668a1.851,1.851,0,0,0-.442-.057.823.823,0,0,0-.64.231,1.357,1.357,0,0,0-.2,1.052,4.629,4.629,0,0,0,.622,2.013,1.836,1.836,0,0,0,.458.522.3.3,0,0,1,.119.381,5.7,5.7,0,0,0-.457,2.686,1.165,1.165,0,0,0,1.113.843c.251,0,.672-.1.672-.785a3.31,3.31,0,0,1,.4-1.522,8.653,8.653,0,0,1,.755-1.165c.151-.207.294-.4.391-.568a.726.726,0,0,0,.129-.326,3.088,3.088,0,0,0-.565-1.3c-.238-.4-.479-.741-.565-.862Z" transform="translate(-1148.864 -628.125)" fill="#2e353a"/>
        <path id="Path_7988" data-name="Path 7988" d="M543.252,405.867c-8.856-15.059-18.158-38.84-21.465-47.592l-115.067-4.663c-.073,85.046,25.669,120.182,25.669,120.182a257.777,257.777,0,0,0,63.1-14.894c32.478-12.132,71.215-32.5,71.215-32.5s-12.437-1.791-23.457-20.536" transform="translate(-338.546 -294.338)" fill="#fff"/>
        <path id="Path_7989" data-name="Path 7989" d="M405.2,351.788h.012l115.067,4.663a.306.306,0,0,1,.273.2c1.554,4.112,4.743,12.363,8.646,21.418A243.7,243.7,0,0,0,542,404.194a58.478,58.478,0,0,0,8.248,11.036,39.824,39.824,0,0,0,7.474,6.134,30.116,30.116,0,0,0,3.048,1.672,23.835,23.835,0,0,0,2.375.976,12.955,12.955,0,0,0,2.093.57.306.306,0,0,1,.1.573c-.1.051-9.846,5.169-23.438,11.7-7.983,3.838-15.71,7.406-22.967,10.606-9.073,4-17.432,7.433-24.845,10.2-7.719,2.884-15.843,5.462-24.147,7.663-6.643,1.761-13.416,3.286-20.13,4.533-5.974,1.11-10.8,1.789-13.788,2.163-3.245.406-5.1.552-5.121.553a.305.305,0,0,1-.27-.124c-.017-.023-.417-.571-1.119-1.695-.645-1.033-1.676-2.767-2.927-5.164-1.4-2.691-2.794-5.654-4.131-8.805-1.67-3.938-3.261-8.184-4.73-12.62a236.876,236.876,0,0,1-8.839-37.375c-.615-3.905-1.167-7.942-1.64-12-.5-4.269-.922-8.677-1.261-13.1-.355-4.64-.627-9.428-.806-14.229-.188-5.019-.281-10.192-.276-15.376a.305.305,0,0,1,.305-.305Zm114.852,5.266-114.547-4.642a350.727,350.727,0,0,0,3.971,54.26,236.364,236.364,0,0,0,8.807,37.269c1.462,4.421,3.047,8.653,4.71,12.577,1.33,3.139,2.713,6.089,4.11,8.769,1.243,2.384,2.268,4.108,2.908,5.135.5.8.845,1.307,1.005,1.535.528-.045,2.255-.2,4.93-.537,2.985-.374,7.794-1.051,13.754-2.159,6.7-1.244,13.455-2.766,20.082-4.523,8.283-2.2,16.386-4.767,24.083-7.643,7.4-2.765,15.75-6.193,24.811-10.188,7.25-3.2,14.971-6.762,22.947-10.6,11.434-5.5,20.147-9.991,22.674-11.306-.346-.089-.792-.219-1.326-.4a24.348,24.348,0,0,1-2.432-.995,30.673,30.673,0,0,1-3.111-1.7,40.368,40.368,0,0,1-7.6-6.227,53.06,53.06,0,0,1-4.167-4.881,65.328,65.328,0,0,1-4.191-6.294c-2.06-3.5-4.293-7.736-6.637-12.581-1.98-4.093-4.064-8.674-6.194-13.615C524.792,369.38,521.636,361.232,520.056,357.054Z" transform="translate(-337.029 -292.821)" fill="#2e353a"/>
        <path id="Path_7990" data-name="Path 7990" d="M521.789,358.275l-115.066-4.663q0,12.55.678,23.653l121.515-1.137c-3.148-7.5-5.684-14.069-7.126-17.853" transform="translate(-338.547 -294.339)" fill="#94cc00"/>
        <path id="Path_7991" data-name="Path 7991" d="M405.2,351.789h.012l115.066,4.663a.305.305,0,0,1,.273.2c2.444,6.411,4.774,12.248,7.123,17.843a.305.305,0,0,1-.279.424l-121.514,1.137h0a.306.306,0,0,1-.305-.287c-.45-7.59-.679-15.554-.679-23.671a.306.306,0,0,1,.306-.306Zm114.853,5.266L405.51,352.413c.006,7.891.228,15.634.661,23.026l120.769-1.13C524.671,368.89,522.417,363.239,520.057,357.055Z" transform="translate(-337.029 -292.822)" fill="#2e353a"/>
        <path id="Line_116" data-name="Line 116" d="M-4.553-3.447a.917.917,0,0,1-.916-.885.917.917,0,0,1,.884-.948L.855-5.469a.917.917,0,0,1,.948.884.917.917,0,0,1-.884.948l-5.439.189Z" transform="translate(189.83 93.651)" fill="#2e353a"/>
        <path id="Line_117" data-name="Line 117" d="M-4.553-3.226a.917.917,0,0,1-.916-.885.917.917,0,0,1,.885-.948L7.328-5.469a.917.917,0,0,1,.948.885.917.917,0,0,1-.885.948l-11.912.409Z" transform="translate(173.841 93.975)" fill="#2e353a"/>
        <path id="Line_118" data-name="Line 118" d="M-4.553-3.116A.917.917,0,0,1-5.469-4a.917.917,0,0,1,.885-.947l15.31-.519a.917.917,0,0,1,.947.885.917.917,0,0,1-.885.947l-15.31.519Z" transform="translate(154.485 94.519)" fill="#2e353a"/>
        <path id="Line_119" data-name="Line 119" d="M-4.553-3.086a.917.917,0,0,1-.916-.886.917.917,0,0,1,.885-.947l16.312-.55a.917.917,0,0,1,.947.885.917.917,0,0,1-.885.947l-16.312.55Z" transform="translate(134.793 95.155)" fill="#2e353a"/>
        <path id="Line_120" data-name="Line 120" d="M-4.553-3.129a.917.917,0,0,1-.916-.886.917.917,0,0,1,.885-.947l14.956-.507a.917.917,0,0,1,.947.885.917.917,0,0,1-.885.947l-14.956.507Z" transform="translate(115.755 95.845)" fill="#2e353a"/>
        <path id="Line_121" data-name="Line 121" d="M-4.553-3.123a.917.917,0,0,1-.916-.885.917.917,0,0,1,.885-.948l14.968-.513a.917.917,0,0,1,.948.885.917.917,0,0,1-.885.948l-14.968.513Z" transform="translate(95.696 96.524)" fill="#2e353a"/>
        <path id="Line_122" data-name="Line 122" d="M-4.553-3.159a.917.917,0,0,1-.916-.885.917.917,0,0,1,.885-.948L9.345-5.469a.917.917,0,0,1,.948.885.917.917,0,0,1-.885.948L-4.521-3.16Z" transform="translate(78.039 97.159)" fill="#2e353a"/>
        <path id="Line_123" data-name="Line 123" d="M-1.518,6.5a.306.306,0,0,1-.3-.287.306.306,0,0,1,.286-.324L125.057-1.822a.306.306,0,0,1,.324.286.306.306,0,0,1-.286.324L-1.5,6.5Z" transform="translate(72.736 99.997)" fill="#2e353a"/>
        <path id="Path_7992" data-name="Path 7992" d="M566.972,696.858a.305.305,0,0,1-.263-.15c-2.65-4.463-5.149-9.107-7.427-13.8-2.07-4.269-4-8.678-5.749-13.1a185.777,185.777,0,0,1-7.315-22.7c-.753-2.99-1.422-5.984-1.989-8.9-.454-2.331-.844-4.617-1.159-6.793-.537-3.709-.673-5.848-.674-5.869a.306.306,0,0,1,.61-.038h0c0,.021.136,2.143.671,5.834a157.364,157.364,0,0,0,3.138,15.631,188.06,188.06,0,0,0,20.419,49.43.306.306,0,0,1-.262.462Z" transform="translate(-451.479 -520.417)" fill="#2e353a"/>
        <path id="Path_7993" data-name="Path 7993" d="M691.23,684.467a.3.3,0,0,1-.231-.106c-1.487-1.723-2.942-3.544-4.324-5.413-1.322-1.787-2.612-3.666-3.834-5.583a109.322,109.322,0,0,1-6.318-11.387,129.692,129.692,0,0,1-8.047-21.657c-.829-3.006-1.567-6.077-2.193-9.126-.5-2.44-.932-4.873-1.281-7.23-.595-4.017-.747-6.459-.749-6.483a.306.306,0,1,1,.61-.037h0c0,.024.153,2.448.745,6.445a138.579,138.579,0,0,0,3.46,16.284c3.3,11.964,9.865,29.272,22.393,43.788a.306.306,0,0,1-.231.505Z" transform="translate(-552.909 -513.709)" fill="#2e353a"/>
        <path id="Path_7994" data-name="Path 7994" d="M803.464,671.909a.3.3,0,0,1-.208-.082c-1.672-1.557-3.3-3.206-4.846-4.9-1.476-1.62-2.912-3.325-4.267-5.068-1.292-1.661-2.546-3.4-3.726-5.168-1.121-1.68-2.2-3.43-3.221-5.2a98.092,98.092,0,0,1-8.567-19.81c-.852-2.756-1.595-5.573-2.207-8.374-.49-2.241-.9-4.476-1.215-6.644-.538-3.7-.621-5.948-.621-5.97a.306.306,0,1,1,.611-.021h0c0,.022.083,2.252.618,5.921a100.213,100.213,0,0,0,3.4,14.927c3.388,10.95,10.38,26.754,24.453,39.861a.306.306,0,0,1-.208.529Z" transform="translate(-644.749 -508.064)" fill="#2e353a"/>
        <path id="Path_7995" data-name="Path 7995" d="M918.761,659.354a.3.3,0,0,1-.142-.035,41.059,41.059,0,0,1-4.729-2.907,43.528,43.528,0,0,1-4.2-3.413,47.817,47.817,0,0,1-3.708-3.822c-1.121-1.291-2.212-2.682-3.243-4.134A71.551,71.551,0,0,1,893.8,627.3c-.93-2.652-1.763-5.432-2.475-8.265-.57-2.266-1.065-4.569-1.47-6.848-.691-3.882-.887-6.38-.889-6.4a.306.306,0,1,1,.609-.047h0c0,.024.2,2.5.884,6.359a98.453,98.453,0,0,0,3.923,15.017c3.69,10.515,10.939,24.544,24.519,31.666a.306.306,0,0,1-.142.576Z" transform="translate(-739.956 -503.967)" fill="#2e353a"/>
        <path id="Path_7996" data-name="Path 7996" d="M1038.324,642.753a.3.3,0,0,1-.158-.044c-1.657-1-3.277-2.084-4.814-3.225-1.47-1.091-2.9-2.261-4.261-3.479-1.294-1.161-2.552-2.4-3.74-3.669-1.129-1.21-2.223-2.487-3.253-3.8a63.86,63.86,0,0,1-8.811-15.165,68.39,68.39,0,0,1-2.358-6.682c-.534-1.807-.989-3.626-1.352-5.405a43.188,43.188,0,0,1-.761-4.952.306.306,0,0,1,.61-.044,42.706,42.706,0,0,0,.754,4.893,67.081,67.081,0,0,0,3.68,11.977,60.62,60.62,0,0,0,24.621,29.022.306.306,0,0,1-.158.567Z" transform="translate(-839.718 -496.106)" fill="#2e353a"/>
        <path id="Path_7997" data-name="Path 7997" d="M1131.153,631.314a.3.3,0,0,1-.133-.031,33.572,33.572,0,0,1-3.7-2.1,37.6,37.6,0,0,1-3.4-2.515,46.023,46.023,0,0,1-5.921-5.956,67.9,67.9,0,0,1-8.595-13.5c-1-2.032-1.949-4.167-2.82-6.347-.7-1.744-1.346-3.52-1.93-5.279-.994-3-1.459-4.936-1.464-4.955a.306.306,0,1,1,.594-.142c.005.02.466,1.94,1.454,4.916a92.921,92.921,0,0,0,4.72,11.548c3.965,8.052,10.884,18.714,21.331,23.786a.306.306,0,0,1-.134.581Z" transform="translate(-918.263 -491.31)" fill="#2e353a"/>
        <path id="Line_124" data-name="Line 124" d="M-1.518,13.01a.306.306,0,0,1-.3-.272.306.306,0,0,1,.27-.337L127.75-1.821a.306.306,0,0,1,.337.27.306.306,0,0,1-.27.337L-1.484,13.008Z" transform="translate(75.511 110.852)" fill="#2e353a"/>
        <path id="Path_7998" data-name="Path 7998" d="M460.042,725.805a.306.306,0,0,1-.012-.611h0c.017,0,1.775-.073,5.946-.47,3.849-.367,10.6-1.094,20.9-2.476,11.577-1.552,25.187-3.6,40.452-6.079,19.08-3.1,40.814-6.9,64.6-11.28a.306.306,0,0,1,.111.6c-23.8,4.386-45.548,8.183-64.638,11.286-15.273,2.482-28.89,4.528-40.473,6.081-10.307,1.382-17.062,2.109-20.913,2.476-4.178.4-5.943.47-5.961.471Z" transform="translate(-382.675 -586.731)" fill="#2e353a"/>
        <path id="Path_7999" data-name="Path 7999" d="M491.2,771.393a21.137,21.137,0,0,1-2.13-.075.306.306,0,0,1,.069-.607h0a40.67,40.67,0,0,0,5.855-.052c2.421-.14,5.186-.4,8.219-.76,3.79-.456,8.012-1.084,12.548-1.867,11.542-1.993,25.164-4.991,40.486-8.909,19.147-4.9,41.021-11.252,65.012-18.892a.306.306,0,0,1,.185.582c-12.564,4-24.656,7.683-35.939,10.944-10.258,2.965-20.078,5.649-29.189,7.978-15.346,3.922-28.987,6.922-40.545,8.914-4.543.783-8.77,1.411-12.566,1.866-3.039.364-5.81.619-8.236.757C493.357,771.364,492.117,771.393,491.2,771.393Z" transform="translate(-406.865 -616.14)" fill="#2e353a"/>
        <path id="Path_8000" data-name="Path 8000" d="M529.609,809.712a17.551,17.551,0,0,1-4.85-.442l.192-.58h0a7.577,7.577,0,0,0,1.186.223,29.091,29.091,0,0,0,4.063.184,72.059,72.059,0,0,0,7.7-.578c3.6-.442,7.663-1.136,12.082-2.062A361.909,361.909,0,0,0,590.32,795c19.4-6.553,41.926-15.31,66.955-26.027a.306.306,0,1,1,.241.562c-13.133,5.623-25.69,10.754-37.322,15.249-10.575,4.087-20.624,7.74-29.867,10.859A360.486,360.486,0,0,1,549.892,807.1c-4.427.923-8.5,1.612-12.1,2.048a71.541,71.541,0,0,1-7.71.563Z" transform="translate(-436.798 -640.056)" fill="#2e353a"/>
        <path id="Path_8001" data-name="Path 8001" d="M488.858,419.87l-41.45-.556a1.388,1.388,0,0,1-1.357-1.222l-.355-3.349a1.369,1.369,0,0,1,1.214-1.508,1.4,1.4,0,0,1,.167-.008l40.949.709a1.381,1.381,0,0,1,1.314,1.039l.831,3.184a1.369,1.369,0,0,1-1.314,1.711" transform="translate(-370.981 -343.961)" fill="#fff"/>
        <path id="Path_8002" data-name="Path 8002" d="M1338.19,368.5a1.09,1.09,0,0,0-.243-1c-.032.012,3.256,4.945,1.655,7.7-.518.891-1.364,1.243-3.51,1.94-7.324,2.38-11.041,3.543-13.695,2.225a8.865,8.865,0,0,1-3.338-3.081c-3.63-5.15-1.482-11.645-.01-16.1a9.17,9.17,0,0,1,2.521-3.991,3.508,3.508,0,0,1,1.712-1.027c1.521-.26,3.287,1.1,4.55,3.409-.822,3.6-1.909,9.813.329,11.028.949.516,1.595-.358,5.449-.514,2.464-.1,4.253.175,4.579-.6" transform="translate(-1096.295 -295.616)" fill="#00b3cd"/>
        <path id="Path_8003" data-name="Path 8003" d="M1323.713,378.9a5.982,5.982,0,0,1-2.718-.579,8.023,8.023,0,0,1-2.2-1.623,12.363,12.363,0,0,1-1.236-1.541,10.857,10.857,0,0,1-1.13-2.037,11.324,11.324,0,0,1-.652-2.123,13.267,13.267,0,0,1-.252-2.163,16.718,16.718,0,0,1,.069-2.161,36.148,36.148,0,0,1,1.92-7.842,10.456,10.456,0,0,1,.757-1.764,8.764,8.764,0,0,1,1.838-2.339,3.745,3.745,0,0,1,1.841-1.089,2.509,2.509,0,0,1,.421-.035,3.782,3.782,0,0,1,2.352.984,8.925,8.925,0,0,1,2.048,2.591.26.26,0,0,1,.025.182,36.93,36.93,0,0,0-.977,6.362,10.257,10.257,0,0,0,.193,2.817A2.292,2.292,0,0,0,1327,368.1a1,1,0,0,0,.506.13,4.753,4.753,0,0,0,.955-.161,19.186,19.186,0,0,1,3.854-.513c.651-.026,1.259-.027,1.8-.027,1.33,0,2.381,0,2.555-.414a.588.588,0,0,0-.015-.4c-.053-.09-.1-.166-.132-.223l-.062-.1a.288.288,0,0,1-.04-.254.26.26,0,0,1,.246-.174c.148,0,.233.114.307.23a1.715,1.715,0,0,1,.152.3,16.7,16.7,0,0,1,1.493,3.287,5.3,5.3,0,0,1-.073,4.271,2.871,2.871,0,0,1-1.248,1.142,16.307,16.307,0,0,1-2.406.914c-2.738.89-4.813,1.556-6.59,2.029-.955.254-1.771.438-2.5.562a12.419,12.419,0,0,1-2.087.2Zm-1.341-24.778a1.988,1.988,0,0,0-.333.028,3.3,3.3,0,0,0-1.583.965,8.818,8.818,0,0,0-2.448,3.879c-1.425,4.309-3.579,10.821-.024,15.864a8.613,8.613,0,0,0,3.242,3,5.481,5.481,0,0,0,2.487.525c2.39,0,5.58-1,11.012-2.764,2.2-.716,2.912-1.042,3.365-1.824a4.826,4.826,0,0,0,.027-3.856,15.14,15.14,0,0,0-1.054-2.473,1.478,1.478,0,0,1-1.041.511,14.372,14.372,0,0,1-1.913.075c-.532,0-1.134,0-1.776.026a18.713,18.713,0,0,0-3.76.5,5.031,5.031,0,0,1-1.07.174h0a1.521,1.521,0,0,1-.754-.193,2.771,2.771,0,0,1-1.239-1.9,10.746,10.746,0,0,1-.208-2.964,37.153,37.153,0,0,1,.967-6.358C1325.16,355.349,1323.672,354.118,1322.372,354.118Z" transform="translate(-1094.749 -294.326)" fill="#21334e"/>
      </g>
    </g>
  </g>
</svg>
