<svg xmlns="http://www.w3.org/2000/svg" width="33.464" height="33.464" viewBox="0 0 33.464 33.464">
  <g id="menu_bar" data-name="menu bar" transform="translate(-25 -44)">
    <g id="arrow" transform="translate(25 44)">
      <path id="Ellipse_4" data-name="Ellipse 4" d="M16.732,0A16.732,16.732,0,1,1,0,16.732,16.732,16.732,0,0,1,16.732,0Z" fill="#00b3cd"/>
      <path id="Vector" d="M9.714,5.73V5.392a20.639,20.639,0,0,0-.229-3.3,9.613,9.613,0,0,0-.249-1.017A1.817,1.817,0,0,0,8.462.209,1.913,1.913,0,0,0,7.592,0a3.823,3.823,0,0,0-.908.231l-.239.09A21.3,21.3,0,0,0,.813,4.169l-.086.086-.363.4A1.751,1.751,0,0,0,0,5.744,1.7,1.7,0,0,0,.335,6.762,3.515,3.515,0,0,0,.6,7.081l.363.38A21.46,21.46,0,0,0,6.31,11.083a4.775,4.775,0,0,0,1.281.39h.057a1.739,1.739,0,0,0,1.53-.948,3.92,3.92,0,0,0,.229-.75l.105-.52A26.2,26.2,0,0,0,9.714,5.73Zm6.062,1.458a1.451,1.451,0,0,0,0-2.9L12.238,4.6a1.138,1.138,0,0,0,0,2.277Z" transform="translate(7.649 11.473)" fill="#fff"/>
    </g>
  </g>
</svg>
