<svg xmlns="http://www.w3.org/2000/svg" width="36.545" height="36.654" viewBox="0 0 36.545 36.654">
  <g id="call" transform="translate(0.046 0.013)">
    <path id="Path_3851" data-name="Path 3851" d="M7.825,90.939a18.068,18.068,0,0,0,4.368,4.517c.264-.511.445-.923.676-1.335a2.4,2.4,0,0,1,2.753-1.3c1.517.28,3.017.593,4.517.907a2.967,2.967,0,0,1,2.456,2.9c.049,1.368.049,2.753,0,4.121a2.861,2.861,0,0,1-3.561,2.786A23.317,23.317,0,0,1,.291,85.252a15.459,15.459,0,0,1-.33-1.945,2.837,2.837,0,0,1,2.852-3.132q1.855-.049,3.709,0A2.9,2.9,0,0,1,9.49,82.73c.28,1.484.56,2.967.857,4.451a2.71,2.71,0,0,1-1.5,3.215C8.534,90.544,8.221,90.725,7.825,90.939Zm13.221,7.731V97.022c-.016-1.088-.313-1.5-1.352-1.731-1.418-.313-2.852-.577-4.27-.874a1.006,1.006,0,0,0-1.22.577c-.247.495-.478.989-.758,1.467a1.231,1.231,0,0,1-1.929.495A18.8,18.8,0,0,1,6.358,91.6a1.3,1.3,0,0,1,.511-1.962,11.077,11.077,0,0,1,1.236-.659,1.191,1.191,0,0,0,.742-1.467c-.28-1.484-.56-2.967-.857-4.434a1.372,1.372,0,0,0-1.55-1.269c-1.039-.033-2.044-.033-3.066-.033-1.616,0-2.061.528-1.764,2.143A22.248,22.248,0,0,0,8.567,96.693,20.965,20.965,0,0,0,19.2,101.918c1.236.214,1.83-.28,1.846-1.517C21.062,99.825,21.046,99.248,21.046,98.671Z" transform="translate(0 -66.948)" fill="#fff"/>
    <path id="Path_3852" data-name="Path 3852" d="M45.525,18.419a17.993,17.993,0,0,1-9.33,15.974,1.863,1.863,0,0,1-.89.4,1.194,1.194,0,0,1-.907-.429c-.115-.181.066-.709.264-.89a10.871,10.871,0,0,1,1.4-.841,16.752,16.752,0,1,0-23.54-22.189c-.066.115-.132.247-.2.363-.247.429-.593.676-1.088.429a.738.738,0,0,1-.28-1.187,28.548,28.548,0,0,1,2.934-4.154C19.034.583,25.315-1.247,32.4.813,39.525,2.89,43.778,7.869,45.327,15.139a10,10,0,0,1,.2,1.385C45.542,17.166,45.525,17.793,45.525,18.419Z" transform="translate(-9.033 0)" fill="#fff"/>
    <path id="Path_3853" data-name="Path 3853" d="M80.675,69.708c0-.89.016-1.648,0-2.407-.016-.742.264-1.121,1.055-1.1,1.2.033,2.423.016,3.627,0,.692-.016,1.006.313.989,1.006-.016.791,0,1.583,0,2.506.857,0,1.632.033,2.423,0,.758-.033,1.1.264,1.088,1.055-.033,1.2-.033,2.423,0,3.627.016.676-.3.956-.94.956H86.346c0,.907-.016,1.731,0,2.539.016.692-.313,1.006-.989,1.006H81.648a.852.852,0,0,1-.956-.973V75.346H78.318c-.94-.016-1.121-.181-1.121-1.088,0-1.187.016-2.357,0-3.544-.016-.692.3-1.006.989-.989C78.944,69.725,79.736,69.708,80.675,69.708ZM88.341,73.9V71.142c-.956,0-1.846-.016-2.736.016-.528.016-.742-.165-.709-.709.033-.89.016-1.8.016-2.8-.857,0-1.616-.033-2.357.033-.148.016-.379.346-.4.544-.049.758-.033,1.533-.016,2.308.016.445-.165.643-.626.626-.775-.016-1.533-.033-2.308.016-.2.016-.528.231-.544.379-.049.758-.033,1.5-.033,2.341.989,0,1.863.016,2.736,0,.544-.016.808.165.775.758a14.331,14.331,0,0,0,.016,2.225c.016.214.379.577.544.544.725-.1,1.566.412,2.176-.33.082-.1.016-.313.016-.478,0-.626.033-1.269-.016-1.9-.049-.593.148-.841.775-.808C86.527,73.928,87.4,73.9,88.341,73.9Z" transform="translate(-64.509 -55.295)" fill="#fff"/>
  </g>
</svg>
