<svg xmlns="http://www.w3.org/2000/svg" width="23.973" height="18.44" viewBox="0 0 23.973 18.44">
  <path id="icons8_camera" d="M11.438,4A1.843,1.843,0,0,0,9.789,5.019l-.364.728a1.846,1.846,0,0,1-1.65,1.019H3.844A1.844,1.844,0,0,0,2,8.61V20.6A1.844,1.844,0,0,0,3.844,22.44H24.128A1.844,1.844,0,0,0,25.972,20.6V8.61a1.844,1.844,0,0,0-1.844-1.844H20.2a1.843,1.843,0,0,1-1.649-1.019l-.364-.728A1.846,1.846,0,0,0,16.534,4Zm-5.75.922a.922.922,0,0,0-.922.922H7.532a.922.922,0,0,0-.922-.922Zm8.3,2.766a6.454,6.454,0,1,1-6.454,6.454A6.461,6.461,0,0,1,13.986,7.688Zm8.3.922a.922.922,0,1,1-.922.922A.922.922,0,0,1,22.284,8.61Zm-8.3.922a4.61,4.61,0,1,0,4.61,4.61,4.61,4.61,0,0,0-4.61-4.61Z" transform="translate(-2 -4)" fill="#12b2aa"/>
</svg>
