<svg xmlns="http://www.w3.org/2000/svg" width="30" height="30" viewBox="0 0 30 30"><path d="M24.375,0H5.625A5.626,5.626,0,0,0,0,5.625v18.75A5.626,5.626,0,0,0,5.625,30h18.75A5.626,5.626,0,0,0,30,24.375V5.625A5.626,5.626,0,0,0,24.375,0Zm-2.7,20.071-1.6,1.6a.753.753,0,0,1-1.064,0l-4-4-4,4a.749.749,0,0,1-1.064,0l-1.6-1.6a.767.767,0,0,1,0-1.068l4-4-4-4a.759.759,0,0,1,0-1.068l1.6-1.6a.751.751,0,0,1,1.068,0l4,4,4-4a.745.745,0,0,1,1.064,0l1.6,1.6a.765.765,0,0,1,0,1.073l-4,4,4,4A.767.767,0,0,1,21.671,20.071Z" fill="#fff"/></svg>