<svg xmlns="http://www.w3.org/2000/svg" width="63.251" height="63.363" viewBox="0 0 63.251 63.363">
  <g id="COVID-19_Test_PCR" data-name="COVID-19 Test PCR" transform="translate(0.5 0.5)">
    <path id="Path_3820" data-name="Path 3820" d="M18.32,48.464c.776.572,1.58,1.117,2.329,1.73a8.309,8.309,0,0,1,1.2,1.2,1.794,1.794,0,0,1,.027,2.588c-.545.722-1.24,1.321-1.8,2.043a2.472,2.472,0,0,0-.518,1.253c-.082,1.362-.1,2.724-.082,4.086,0,.627-.218.913-.872.913-5.925-.014-11.85,0-17.775-.014C.109,62.262,0,62.1,0,61.267Q0,44.473,0,27.651V1.09C0,.082.082,0,1.076,0H13.4c.9,0,1.022.109.994,1.022A6.3,6.3,0,0,0,16.6,6.116c4.182,3.8,8.254,7.723,12.341,11.619a6.122,6.122,0,0,1,1.035,7.723,10.816,10.816,0,0,1-3.528,3.623c-1.812,1.2-3.7,2.288-5.53,3.473-1.866,1.212-2.016,1.812-.953,3.746.749,1.376,1.566,2.711,2.4,4.032a3.066,3.066,0,0,1,.163,3.16,11.628,11.628,0,0,1-3.8,4.618c-.123.1-.259.177-.381.272A.1.1,0,0,0,18.32,48.464Zm.109,12.668c0-1.308.014-2.534,0-3.759a2.782,2.782,0,0,1,.831-2.084c.545-.572,1.09-1.158,1.607-1.757.6-.695.64-1.09-.054-1.689-1.022-.885-2.152-1.648-3.228-2.479a1.309,1.309,0,0,0-1.321-.163,28.284,28.284,0,0,1-8.554.967.858.858,0,0,1-.613-.531c-.1-.4.232-.545.6-.531.177,0,.368.014.545,0,2.03-.177,4.073-.272,6.089-.531a8.992,8.992,0,0,0,7.028-5.094,2.464,2.464,0,0,0-.068-2.792,43.576,43.576,0,0,1-2.316-3.923c-1.28-2.452-.994-3.5,1.321-5.067,1.185-.79,2.465-1.444,3.637-2.261a29,29,0,0,0,4.032-3.092,5.4,5.4,0,0,0-.218-8.268c-4.209-3.841-8.3-7.8-12.45-11.7a5.8,5.8,0,0,1-1.8-3.269c-.123-.64-.177-1.294-.259-1.948H1.131V61.145C6.879,61.131,12.586,61.131,18.429,61.131Z" transform="translate(0 0)" fill="#12b2aa" stroke="#12b2aa" stroke-width="1"/>
    <path id="Path_3821" data-name="Path 3821" d="M283.665,16.029c2.806,3.364,2.9,6.919.232,9.562a6.6,6.6,0,0,1-9.535-.341c-.109.136-.2.286-.3.409a2.5,2.5,0,0,1-4.454-2.03,1.5,1.5,0,0,0-1.076-2c-.817-.3-1.2-.136-1.7.722a2.494,2.494,0,0,1-3.419.953,2.46,2.46,0,0,1-.953-3.405,3.254,3.254,0,0,1,.994-.981,1.38,1.38,0,0,0,.5-1.934,1.227,1.227,0,0,0-1.648-.872A2.511,2.511,0,0,1,259.46,12.3a2.557,2.557,0,0,1,2.833-.981,1.324,1.324,0,0,0,1.7-.926,1.3,1.3,0,0,0-.558-1.852,2.51,2.51,0,0,1-1.335-2.67,2.556,2.556,0,0,1,2.016-2.057A2.529,2.529,0,0,1,266.8,5.132a1.3,1.3,0,0,0,1.839.586,1.321,1.321,0,0,0,.926-1.757,2.531,2.531,0,0,1,.967-2.833,2.476,2.476,0,0,1,2.874.014,2.532,2.532,0,0,1,.953,2.833,1.3,1.3,0,0,0,.94,1.743,1.264,1.264,0,0,0,1.825-.6,2.486,2.486,0,0,1,2.656-1.362,2.517,2.517,0,0,1,2.084,2.057,2.369,2.369,0,0,1-1.308,2.6c-1.2.558-.845,2.288.014,2.751a1.856,1.856,0,0,0,1.158.041,2.493,2.493,0,0,1,2.6.722,2.244,2.244,0,0,1,.436,2.642A7.338,7.338,0,0,1,283.665,16.029Zm-11.006,4.944a6.65,6.65,0,0,1,6.647-6.538,10.851,10.851,0,0,1,2.52.49,1.512,1.512,0,0,0,1.852-.545,1.328,1.328,0,0,0-.055-1.594,1.35,1.35,0,0,0-1.635-.49,2.115,2.115,0,0,1-1.771-.027A2.912,2.912,0,0,1,278.707,9.7,2.148,2.148,0,0,1,280.014,7.5a1.318,1.318,0,0,0,.776-1.512,1.293,1.293,0,0,0-1.185-1.144,1.4,1.4,0,0,0-1.512.79,2.3,2.3,0,0,1-3.215,1.09A2.339,2.339,0,0,1,273.313,3.7a1.416,1.416,0,0,0-.545-1.675,1.349,1.349,0,0,0-1.594.014,1.355,1.355,0,0,0-.5,1.689,2.391,2.391,0,0,1-1.621,3.01,2.289,2.289,0,0,1-3.146-.994,1.4,1.4,0,0,0-1.553-.831,1.318,1.318,0,0,0-1.158,1.171,1.414,1.414,0,0,0,.858,1.539,2.3,2.3,0,0,1,.981,3.146,2.359,2.359,0,0,1-2.942,1.621,1.437,1.437,0,0,0-1.689.518,1.33,1.33,0,0,0,.027,1.648,1.471,1.471,0,0,0,1.7.477,2.461,2.461,0,0,1,1.253-.054,2.761,2.761,0,0,1,1.852,2.534,2.112,2.112,0,0,1-1.171,2.316,1.408,1.408,0,0,0,.368,2.67,1.415,1.415,0,0,0,1.553-.845,2.179,2.179,0,0,1,3.051-1.022,2.457,2.457,0,0,1,1.73,2.969,1.454,1.454,0,0,0,.558,1.73,1.352,1.352,0,0,0,1.648-.1,1.48,1.48,0,0,0,.368-1.784A25.627,25.627,0,0,1,272.659,20.973Zm6.647-5.462a5.442,5.442,0,1,0,5.448,5.448A5.441,5.441,0,0,0,279.306,15.511Z" transform="translate(-223.732 -0.583)" fill="#12b2aa" stroke="#12b2aa" stroke-width="1"/>
    <path id="Path_3822" data-name="Path 3822" d="M259.837,275.7c-1.335.422-2.329-.436-3.378-1.5-3.664-3.746-7.4-7.423-11.088-11.142a.981.981,0,0,0-1.062-.313,2.827,2.827,0,0,1-3.242-1.648,4.571,4.571,0,0,0-1.7-1.961,20.084,20.084,0,0,1-6.511-7.1,7.714,7.714,0,0,1-.749-2.166,2.309,2.309,0,0,1,2.751-2.765,8.627,8.627,0,0,1,3.8,1.716,21.31,21.31,0,0,1,5.612,5.762,3.732,3.732,0,0,0,1.675,1.43,2.859,2.859,0,0,1,1.757,3.419.8.8,0,0,0,.286.872q6.967,6.947,13.907,13.907a2.533,2.533,0,0,1,.422.436c.123.218.286.531.2.708a.931.931,0,0,1-.654.341C261.281,275.727,260.7,275.7,259.837,275.7Zm-15.882-13.962a8.626,8.626,0,0,0,1.1-.6,9.66,9.66,0,0,0,1.062-1.049,1.839,1.839,0,0,0-.654-3.106,4.41,4.41,0,0,1-2.043-1.716,18.4,18.4,0,0,0-5.271-5.435,13.418,13.418,0,0,0-3.337-1.594c-1.117-.354-1.88.477-1.607,1.621a8,8,0,0,0,.817,2.07,19.561,19.561,0,0,0,6.048,6.361,4.67,4.67,0,0,1,1.948,2.275A1.956,1.956,0,0,0,243.955,261.738Zm1.852.191c.2.218.381.409.558.572,3.773,3.773,7.573,7.492,11.278,11.333.94.967,1.893.708,2.847.749-4.536-4.549-9.085-9.085-13.594-13.607C246.571,261.248,246.2,261.574,245.808,261.929Z" transform="translate(-200.45 -213.424)" fill="#12b2aa" stroke="#12b2aa" stroke-width="1"/>
    <path id="Path_3823" data-name="Path 3823" d="M43.632,152.752c-1.362-.177-2.82-.381-4.277-.531a2.356,2.356,0,0,0-1.144.177,6.851,6.851,0,0,1-3.95.994,3.344,3.344,0,0,1-2.683-2.152,9.18,9.18,0,0,1,2.193-9.589,4.86,4.86,0,0,1,5.653-.409c.177.109.218.463.313.708-.259.082-.6.313-.776.232-2.969-1.417-5,.381-5.993,2.4a7.854,7.854,0,0,0-.722,5.353,2.689,2.689,0,0,0,3.678,2.179,12.138,12.138,0,0,0,2.465-1.117,9.526,9.526,0,0,1,5.026-1.471,4.53,4.53,0,0,1,2.765,1.008c.313.259.654.79.572,1.1a1.591,1.591,0,0,1-.981.858A15.329,15.329,0,0,1,43.632,152.752Zm-3.106-1.485a16.411,16.411,0,0,0,4.972.191A4.531,4.531,0,0,0,40.526,151.267Z" transform="translate(-26.796 -121.383)" fill="#12b2aa" stroke="#12b2aa" stroke-width="1"/>
    <path id="Path_3824" data-name="Path 3824" d="M337.4,82.1a2.613,2.613,0,0,1-2.6-2.656,2.65,2.65,0,1,1,2.6,2.656Zm.027-1.1a1.552,1.552,0,0,0,1.553-1.553,1.553,1.553,0,1,0-3.106.014A1.532,1.532,0,0,0,337.428,81Z" transform="translate(-289.196 -66.339)" fill="#12b2aa" stroke="#12b2aa" stroke-width="1"/>
    <path id="Path_3825" data-name="Path 3825" d="M382.287,123.819c-.136,1.975-.518,2.561-1.635,2.588a1.423,1.423,0,0,1-1.485-.872,9.814,9.814,0,0,1-.286-1.716c-2.07-.3-2.615-.667-2.588-1.743s.667-1.485,2.67-1.635c0-.341-.014-.695,0-1.035a1.625,1.625,0,0,1,1.675-1.607,1.607,1.607,0,0,1,1.594,1.607c.014.341,0,.667,0,1.035.831.123,1.743-.163,2.3.64a2.119,2.119,0,0,1,.368,1.062C384.943,123.193,384.371,123.547,382.287,123.819Zm-1.131-3.61a1.8,1.8,0,0,0-.014-.667,2.953,2.953,0,0,0-.531-.64c-.177.218-.449.409-.5.667a4.61,4.61,0,0,0-.014,1.226c.027.586-.259.831-.817.8a6.133,6.133,0,0,0-1.226.014c-.232.041-.409.3-.613.463.191.2.368.518.6.572a5.572,5.572,0,0,0,1.348.027c.49-.014.708.218.708.695a7.587,7.587,0,0,0,.027,1.362c.041.218.327.4.5.586.191-.2.49-.381.531-.613a7.535,7.535,0,0,0,.027-1.362.586.586,0,0,1,.667-.667,8.338,8.338,0,0,0,1.43-.027c.218-.041.381-.341.572-.518-.191-.177-.368-.463-.572-.5a7.536,7.536,0,0,0-1.362-.027.644.644,0,0,1-.736-.749C381.17,120.618,381.157,120.414,381.157,120.21Z" transform="translate(-325.038 -101.753)" fill="#12b2aa" stroke="#12b2aa" stroke-width="1"/>
  </g>
</svg>
