<svg xmlns="http://www.w3.org/2000/svg" width="20" height="15.556" viewBox="0 0 20 15.556">
  <path id="Icon_awesome-credit-card" data-name="Icon awesome-credit-card" d="M0,16.139a1.667,1.667,0,0,0,1.667,1.667H18.333A1.667,1.667,0,0,0,20,16.139V10.028H0Zm6.667-2.361a.418.418,0,0,1,.417-.417h4.722a.418.418,0,0,1,.417.417v1.389a.418.418,0,0,1-.417.417H7.083a.418.418,0,0,1-.417-.417Zm-4.444,0a.418.418,0,0,1,.417-.417h2.5a.418.418,0,0,1,.417.417v1.389a.418.418,0,0,1-.417.417h-2.5a.418.418,0,0,1-.417-.417ZM20,3.917V5.583H0V3.917A1.667,1.667,0,0,1,1.667,2.25H18.333A1.667,1.667,0,0,1,20,3.917Z" transform="translate(0 -2.25)" fill="#55a2ff"/>
</svg>
