<svg xmlns="http://www.w3.org/2000/svg" width="15" height="16.667" viewBox="0 0 15 16.667">
  <path id="Icon_material-date-range" data-name="Icon material-date-range" d="M9.5,10.5H7.833v1.667H9.5Zm3.333,0H11.167v1.667h1.667Zm3.333,0H14.5v1.667h1.667Zm1.667-5.833H17V3H15.333V4.667H8.667V3H7V4.667H6.167A1.659,1.659,0,0,0,4.508,6.333L4.5,18a1.666,1.666,0,0,0,1.667,1.667H17.833A1.672,1.672,0,0,0,19.5,18V6.333A1.672,1.672,0,0,0,17.833,4.667Zm0,13.333H6.167V8.833H17.833Z" transform="translate(-4.5 -3)" fill="#55a2ff"/>
</svg>
