<svg xmlns="http://www.w3.org/2000/svg" width="61.941" height="59.559" viewBox="0 0 61.941 59.559">
  <path id="icons8_stethoscope_5" d="M12.529,4A4.714,4.714,0,0,0,8.286,6.68,7.171,7.171,0,0,0,3,13.529V35.864l.6.67s5.612,6.57,13.7,7.743v4.988a14.294,14.294,0,0,0,28.588,0V37.353a4.765,4.765,0,0,1,9.529,0V37.8a7.147,7.147,0,1,0,4.765,0v-.447a9.529,9.529,0,0,0-19.059,0V49.265a9.529,9.529,0,1,1-19.059,0V44.277c8.087-1.173,13.7-7.743,13.7-7.743l.6-.67V13.529A7.171,7.171,0,0,0,31.067,6.68,4.714,4.714,0,0,0,26.824,4a4.765,4.765,0,0,0,0,9.529,4.7,4.7,0,0,0,3.8-1.936,2.35,2.35,0,0,1,.968,1.936v20.4c-.856.866-5.928,5.807-11.912,5.807S8.621,34.794,7.765,33.928v-20.4a2.35,2.35,0,0,1,.968-1.936,4.7,4.7,0,0,0,3.8,1.936,4.765,4.765,0,1,0,0-9.529ZM57.794,42.118A2.382,2.382,0,1,1,55.412,44.5,2.352,2.352,0,0,1,57.794,42.118Z" transform="translate(-3 -4)" fill="#55a2ff"/>
</svg>
