<svg xmlns="http://www.w3.org/2000/svg" width="39.06" height="39.06"><defs><linearGradient id="a" x1=".5" x2=".5" y2="1" gradientUnits="objectBoundingBox"><stop offset="0" stop-color="#32b0f2"/><stop offset="1" stop-color="#0012b5"/></linearGradient></defs><path d="M33.709 1.757a6.85 6.85 0 0 1 4.844 11.695L14.4 37.608a1.789 1.789 0 0 1-.794.461L3.76 40.754a1.789 1.789 0 0 1-2.2-2.2l2.684-9.842a1.789 1.789 0 0 1 .461-.794l24.16-24.154a6.806 6.806 0 0 1 4.844-2.007zM12.2 34.742l23.822-23.821A3.272 3.272 0 1 0 31.4 6.294L7.575 30.115 5.84 36.477z" transform="translate(-1.5 -1.757)" fill="url(#a)"/></svg>