<svg xmlns="http://www.w3.org/2000/svg" width="10.55" height="9.671" viewBox="0 0 10.55 9.671">
  <path id="envelope" d="M8.352,1H2.2A2.2,2.2,0,0,0,0,3.2V8.473a2.2,2.2,0,0,0,2.2,2.2H8.352a2.2,2.2,0,0,0,2.2-2.2V3.2A2.2,2.2,0,0,0,8.352,1ZM2.2,1.879H8.352a1.319,1.319,0,0,1,1.222.829L6.208,6.075a1.322,1.322,0,0,1-1.866,0L.976,2.709A1.319,1.319,0,0,1,2.2,1.879ZM8.352,9.792H2.2A1.319,1.319,0,0,1,.879,8.473V3.857L3.721,6.7a2.2,2.2,0,0,0,3.109,0l2.841-2.84V8.473A1.319,1.319,0,0,1,8.352,9.792Z" transform="translate(0 -1)" fill="#12b2aa"/>
</svg>
