<svg xmlns="http://www.w3.org/2000/svg" width="41" height="54" viewBox="0 0 41 54">
  <g id="Group_1540" data-name="Group 1540" transform="translate(-39 -258)">
    <path id="icons8_email_open" d="M22.364,3a5.6,5.6,0,0,0-3.61,1.255l-.046.04c-.4.3-1.271,1.071-2.517,2.151l-.088.076H10.042a.879.879,0,0,0-.88.88v5.248c-3.027,2.676-5.6,4.965-5.843,5.185l7.6,5.924V8.281h5.271a.88.88,0,0,0,.418,0H28.1a.88.88,0,0,0,.3,0h5.4V23.758l7.6-5.924c-.247-.22-2.816-2.509-5.843-5.185V7.4a.879.879,0,0,0-.88-.88H28.575c-.147-.132-.283-.249-.431-.382-1-.9-1.775-1.581-2.127-1.848l-.009-.007c-.029-.025-.059-.043-.088-.067-.135-.11-.272-.216-.411-.308a5.167,5.167,0,0,0-.5-.294l0,0h0a5.491,5.491,0,0,0-1-.39,5.955,5.955,0,0,0-.915-.181A6.118,6.118,0,0,0,22.364,3Zm-7.922,9.682a.88.88,0,1,0,0,1.76H30.286a.88.88,0,1,0,0-1.76Zm0,4.4a.88.88,0,1,0,0,1.76h9.682a.88.88,0,1,0,0-1.76ZM3,19.842V36.568c.07-.054.135-.106.206-.162,3.058-2.378,7.255-5.643,10.53-8.185Zm38.728,0L30.937,28.264c3.211,2.534,7.4,5.838,10.791,8.506ZM22.364,24.848a4.559,4.559,0,0,0-2.56.908C19,26.354,9.428,33.8,4.288,37.8c-.486.378-.909.708-1.288,1v2.051a.879.879,0,0,0,.88.88H40.848a.879.879,0,0,0,.88-.88V39.01c-6.187-4.869-16.145-12.724-16.834-13.277A4.081,4.081,0,0,0,22.364,24.848Z" transform="translate(37.41 255)" fill="#5581c4"/>
    <rect id="Rectangle_763" data-name="Rectangle 763" width="41" height="3" rx="1.5" transform="translate(39 309)" fill="#5581c4"/>
  </g>
</svg>
