<svg xmlns="http://www.w3.org/2000/svg" width="28.784" height="28.773" viewBox="0 0 28.784 28.773">
  <g id="emergency_call" transform="translate(0 -0.06)">
    <path id="Path_890" data-name="Path 890" d="M23.915,35.827H22.37V34.281a.982.982,0,0,0-1.965,0v1.545H18.86a.982.982,0,1,0,0,1.965H20.4v1.545a.982.982,0,0,0,1.965,0V37.791h1.545a.982.982,0,1,0,0-1.965ZM8.46,44.839l2.408-2.4a.982.982,0,0,0,0-1.389L5.086,35.272a.983.983,0,0,0-1.389,0L1.384,37.585c-1.512,1.512-1.8,3.993-.8,6.986A22.175,22.175,0,0,0,6.01,52.852c3.839,3.839,8.213,6,11.54,6a5.1,5.1,0,0,0,3.727-1.372l2.313-2.313a.982.982,0,0,0,0-1.389l-5.782-5.782a.983.983,0,0,0-1.389,0l-2.4,2.408c-.506.254-2.134-.184-3.756-1.806s-2.06-3.251-1.806-3.756Zm8.653,5.238,4.393,4.393-.924.924L16.189,51ZM4.392,37.356l4.393,4.393-.924.924L3.468,38.279l.924-.924ZM14.912,56.412A20.2,20.2,0,0,1,7.4,51.462a20.2,20.2,0,0,1-4.95-7.513,6.226,6.226,0,0,1-.221-4.131L6.606,44.2c-.557,1.519.3,3.812,2.271,5.789a7.35,7.35,0,0,0,4.785,2.44,2.907,2.907,0,0,0,1-.168l4.376,4.376a6.226,6.226,0,0,1-4.131-.221Z" transform="translate(0 -30.018)" fill="#55a2ff"/>
    <path id="Path_891" data-name="Path 891" d="M152.99.06h-9.256A2.945,2.945,0,0,0,140.792,3v7.792a2.945,2.945,0,0,0,2.942,2.942h1.45v1.945a.982.982,0,0,0,1.572.786l3.642-2.731h2.593a2.945,2.945,0,0,0,2.942-2.942V3A2.945,2.945,0,0,0,152.99.06Zm.977,10.734a.978.978,0,0,1-.977.977h-2.92a.983.983,0,0,0-.589.2l-2.332,1.749v-.963a.982.982,0,0,0-.982-.982h-2.432a.978.978,0,0,1-.977-.977V3a.978.978,0,0,1,.977-.977h9.256a.978.978,0,0,1,.977.977Z" transform="translate(-127.147 0)" fill="#55a2ff"/>
  </g>
</svg>
