<svg xmlns="http://www.w3.org/2000/svg" width="15" height="12" viewBox="0 0 15 12">
  <path id="Icon_awesome-eye-slash" data-name="Icon awesome-eye-slash" d="M7.5,9.375a3.362,3.362,0,0,1-3.349-3.12l-2.459-1.9a7.811,7.811,0,0,0-.861,1.3.758.758,0,0,0,0,.684A7.517,7.517,0,0,0,7.5,10.5a7.28,7.28,0,0,0,1.826-.245L8.109,9.314A3.378,3.378,0,0,1,7.5,9.375Zm7.355,1.362-2.591-2a7.764,7.764,0,0,0,1.9-2.392.758.758,0,0,0,0-.684A7.517,7.517,0,0,0,7.5,1.5a7.222,7.222,0,0,0-3.453.884L1.066.079A.375.375,0,0,0,.539.145L.079.737a.375.375,0,0,0,.066.526l13.79,10.658a.375.375,0,0,0,.526-.066l.46-.592a.375.375,0,0,0-.066-.526ZM10.549,7.408,9.628,6.7A2.221,2.221,0,0,0,6.907,3.839a1.117,1.117,0,0,1,.218.661,1.093,1.093,0,0,1-.036.234L5.364,3.4A3.335,3.335,0,0,1,7.5,2.625,3.373,3.373,0,0,1,10.875,6a3.3,3.3,0,0,1-.326,1.409Z" transform="translate(0 0)" fill="#55a2ff"/>
</svg>
