<svg xmlns="http://www.w3.org/2000/svg" width="58" height="40" viewBox="0 0 58 40">
  <path id="Path_1435" data-name="Path 1435" d="M57.988,39H58V33.444a3.965,3.965,0,0,0,0-6.888V24a11.993,11.993,0,0,0-23.962-.758,8.7,8.7,0,0,0-4.076,0A11.993,11.993,0,0,0,6,24v2.556A3.987,3.987,0,0,0,8,34h.835a9.95,9.95,0,0,0,.839,1.522A15.059,15.059,0,0,0,3,48v4H5V48a13.049,13.049,0,0,1,5.951-10.919A9.967,9.967,0,0,0,18,40V38a8.009,8.009,0,0,1-8-8V28h1a13.941,13.941,0,0,0,9.022-3.339,9.076,9.076,0,0,0,4.173,2.876A8.935,8.935,0,0,0,23,32a3,3,0,0,0,0,6h.232a8.888,8.888,0,0,0,.76,2.086A11.953,11.953,0,0,0,20,49v1H14v2H50V50H44V49a11.956,11.956,0,0,0-3.991-8.914A8.966,8.966,0,0,0,40.769,38H41a3,3,0,0,0,0-6,8.931,8.931,0,0,0-1.164-4.411,9.977,9.977,0,0,0,6.171-5.244A10.014,10.014,0,0,0,54,27.949V30a8.009,8.009,0,0,1-8,8v2a9.967,9.967,0,0,0,7.049-2.919A13.049,13.049,0,0,1,59,48v4h2V48A15.033,15.033,0,0,0,57.988,39ZM56,32h-.2a9.983,9.983,0,0,0,.2-2V28a2,2,0,0,1,0,4ZM39,32v4a7,7,0,0,1-14,0V32a7,7,0,0,1,14,0ZM8,32a2,2,0,0,1,0-4v2a9.983,9.983,0,0,0,.2,2Zm3-6H8V24a9.985,9.985,0,0,1,14.917-8.7A12.04,12.04,0,0,1,11,26Zm10.462-2.729a13.923,13.923,0,0,0,3.279-6.634A9.963,9.963,0,0,1,28,23.951a9.04,9.04,0,0,0-2.528,1.874A7.052,7.052,0,0,1,21.462,23.271ZM22,35a1,1,0,0,1,1-1v2A1,1,0,0,1,22,35ZM42,49v1H22V49a9.957,9.957,0,0,1,3.106-7.225,8.981,8.981,0,0,0,13.788,0A9.957,9.957,0,0,1,42,49ZM41,34a1,1,0,0,1,0,2Zm6-16H45a7.985,7.985,0,0,1-6.45,7.847A9.019,9.019,0,0,0,36,23.951,10,10,0,0,1,56,24v2H55A8.009,8.009,0,0,1,47,18Zm7.326,17.522A10,10,0,0,0,55.165,34H56v2.827A14.894,14.894,0,0,0,54.326,35.522Z" transform="translate(-3 -12)" fill="#55a2ff"/>
</svg>
