<svg xmlns="http://www.w3.org/2000/svg" width="20" height="20" viewBox="0 0 20 20">
  <g id="icons8_timezone__3" data-name="icons8_timezone_+3" transform="translate(-2 -2)" fill="none">
    <path d="M12,3a9,9,0,1,0,9,9A9,9,0,0,0,12,3Zm-1.345,9.98H9.618v1.49H8.636V12.98H7.582v-.963H8.636V10.589h.982v1.428h1.037Zm4.213,1.032a1.689,1.689,0,0,1-.415.591,1.79,1.79,0,0,1-.624.365,2.359,2.359,0,0,1-.778.125,2.18,2.18,0,0,1-.684-.109,1.653,1.653,0,0,1-.589-.338,1.712,1.712,0,0,1-.415-.574,1.949,1.949,0,0,1-.158-.82H12.45a1.033,1.033,0,0,0,.048.323.845.845,0,0,0,.132.255.608.608,0,0,0,.2.169.544.544,0,0,0,.258.062.657.657,0,0,0,.29-.062.613.613,0,0,0,.217-.175.823.823,0,0,0,.14-.274,1.238,1.238,0,0,0,.048-.359,1.092,1.092,0,0,0-.2-.727.688.688,0,0,0-.547-.222h-.6v-1h.6a.561.561,0,0,0,.5-.239,1.13,1.13,0,0,0,.161-.64,1.322,1.322,0,0,0-.038-.323.755.755,0,0,0-.114-.255.562.562,0,0,0-.682-.183.516.516,0,0,0-.186.141.739.739,0,0,0-.127.224.862.862,0,0,0-.048.3H11.264a1.768,1.768,0,0,1,.141-.718A1.645,1.645,0,0,1,11.787,9a1.733,1.733,0,0,1,.568-.352,1.949,1.949,0,0,1,.706-.125,2.407,2.407,0,0,1,.765.116,1.609,1.609,0,0,1,.595.347,1.574,1.574,0,0,1,.387.571,2.084,2.084,0,0,1,.139.789,1.558,1.558,0,0,1-.215.789,1.659,1.659,0,0,1-.258.329,1.484,1.484,0,0,1-.349.257,1.369,1.369,0,0,1,.674.58,1.806,1.806,0,0,1,.223.914A2.027,2.027,0,0,1,14.868,14.012Z" stroke="none"/>
    <path d="M 12 3 C 7.029750823974609 3 3 7.029750823974609 3 12 C 3 16.97024917602539 7.029750823974609 21 12 21 C 16.97024917602539 21 21 16.97024917602539 21 12 C 21 7.029750823974609 16.97024917602539 3 12 3 M 13.05150032043457 15.0930004119873 C 12.81750011444092 15.0930004119873 12.58874988555908 15.05624961853027 12.36750030517578 14.98349952697754 C 12.14624977111816 14.91075038909912 11.94974994659424 14.79749965667725 11.7787504196167 14.64525032043457 C 11.60774993896484 14.49300003051758 11.46975040435791 14.30175018310547 11.36400032043457 14.07149982452393 C 11.25825023651123 13.8412504196167 11.20575046539307 13.56824970245361 11.20575046539307 13.25174999237061 L 12.44999980926514 13.25174999237061 C 12.44999980926514 13.36874961853027 12.46574974060059 13.47675037384033 12.4980001449585 13.57499980926514 C 12.53024959564209 13.67325019836426 12.57450008392334 13.75800037384033 12.63000011444092 13.82999992370605 C 12.6855001449585 13.90200042724609 12.75150012969971 13.95825004577637 12.82950019836426 13.9995002746582 C 12.90750026702881 14.04074954986572 12.99374961853027 14.06099987030029 13.08749961853027 14.06099987030029 C 13.19624996185303 14.06099987030029 13.29224967956543 14.04074954986572 13.37775039672852 13.9995002746582 C 13.46325016021729 13.95825004577637 13.53450012207031 13.89974975585938 13.5944995880127 13.82400035858154 C 13.65450000762939 13.74825000762939 13.70174980163574 13.6560001373291 13.73400020599365 13.54950046539307 C 13.76624965667725 13.44299983978271 13.7819995880127 13.32299995422363 13.7819995880127 13.19099998474121 C 13.7819995880127 12.85424995422363 13.71599960327148 12.61200046539307 13.58549976348877 12.46350002288818 C 13.45499992370605 12.3149995803833 13.27350044250488 12.24149990081787 13.03874969482422 12.24149990081787 L 12.43649959564209 12.24149990081787 L 12.43649959564209 11.23950004577637 L 13.03874969482422 11.23950004577637 C 13.26749992370605 11.23950004577637 13.43400001525879 11.15999984741211 13.54125022888184 11.0002498626709 C 13.64850044250488 10.84049987792969 13.70250034332275 10.6274995803833 13.70250034332275 10.36050033569336 C 13.70250034332275 10.24349975585938 13.68900012969971 10.13549995422363 13.66425037384033 10.03724956512451 C 13.63949966430664 9.939000129699707 13.60124969482422 9.854249954223633 13.55025005340576 9.78225040435791 C 13.4992504119873 9.710249900817871 13.43624973297119 9.654000282287598 13.35974979400635 9.612750053405762 C 13.2832498550415 9.571499824523926 13.19550037384033 9.551250457763672 13.0957498550415 9.551250457763672 C 13.01700019836426 9.551250457763672 12.94050025939941 9.567000389099121 12.86849975585938 9.599249839782715 C 12.79650020599365 9.631500244140625 12.73499965667725 9.678000450134277 12.68249988555908 9.740249633789062 C 12.63000011444092 9.802499771118164 12.58724975585938 9.876749992370605 12.55500030517578 9.964500427246094 C 12.52274990081787 10.05224990844727 12.50699996948242 10.15200042724609 12.50699996948242 10.26299953460693 L 11.26350021362305 10.26299953460693 C 11.26350021362305 9.99899959564209 11.3100004196167 9.759750366210938 11.40450000762939 9.544500350952148 C 11.49899959564209 9.329250335693359 11.6257495880127 9.146249771118164 11.78699970245361 8.995499610900879 C 11.94824981689453 8.84475040435791 12.13724994659424 8.727749824523926 12.35550022125244 8.643750190734863 C 12.57374954223633 8.559749603271484 12.80924987792969 8.518500328063965 13.06124973297119 8.518500328063965 C 13.33950042724609 8.518500328063965 13.5944995880127 8.557499885559082 13.82625007629395 8.634750366210938 C 14.05799961090088 8.711999893188477 14.25524997711182 8.828249931335449 14.42099952697754 8.982000350952148 C 14.58675003051758 9.135749816894531 14.71574974060059 9.326250076293945 14.80799961090088 9.553500175476074 C 14.90025043487549 9.780750274658203 14.94750022888184 10.04325008392334 14.94750022888184 10.34249973297119 C 14.94750022888184 10.48349952697754 14.92875003814697 10.61999988555908 14.89200019836426 10.75349998474121 C 14.85525035858154 10.88700008392334 14.80274963378906 11.01299953460693 14.73225021362305 11.13150024414062 C 14.66174983978271 11.25 14.57549953460693 11.36025047302246 14.47424983978271 11.46074962615967 C 14.3730001449585 11.56124973297119 14.25749969482422 11.64750003814697 14.1254997253418 11.7180004119873 C 14.42700004577637 11.84700012207031 14.65124988555908 12.04049968719482 14.79899978637695 12.29775047302246 C 14.94674968719482 12.55500030517578 15.02175045013428 12.86025047302246 15.02175045013428 13.21199989318848 C 15.02025032043457 13.51124954223633 14.9692497253418 13.77750015258789 14.86800003051758 14.01224994659424 C 14.76675033569336 14.24625015258789 14.62950038909912 14.44349956512451 14.45324993133545 14.60324954986572 C 14.27700042724609 14.76299953460693 14.06925010681152 14.88449954986572 13.82925033569336 14.96774959564209 C 13.58924961090088 15.05099964141846 13.32975006103516 15.0930004119873 13.05150032043457 15.0930004119873 M 10.65524959564209 12.98025035858154 L 9.618000030517578 12.98025035858154 L 9.618000030517578 14.47049999237061 L 8.636249542236328 14.47049999237061 L 8.636249542236328 12.98025035858154 L 7.581750869750977 12.98025035858154 L 7.581750869750977 12.01725006103516 L 8.636249542236328 12.01725006103516 L 8.636249542236328 10.58924961090088 L 9.618000030517578 10.58924961090088 L 9.618000030517578 12.01725006103516 L 10.65524959564209 12.01725006103516 L 10.65524959564209 12.98025035858154 M 12 2 C 17.51401901245117 2 22 6.485979080200195 22 12 C 22 17.51401901245117 17.51401901245117 22 12 22 C 6.485979080200195 22 2 17.51401901245117 2 12 C 2 6.485979080200195 6.485979080200195 2 12 2 Z" stroke="none" fill="#5581c4"/>
  </g>
</svg>
