<svg xmlns="http://www.w3.org/2000/svg" width="8.239" height="8.24" viewBox="0 0 8.239 8.24">
  <path id="Union_3" data-name="Union 3" d="M5973.059,2139.975a3.291,3.291,0,0,1-1.072-.721,3.366,3.366,0,0,1,1.072-5.487,3.327,3.327,0,0,1,1.31-.266,3.377,3.377,0,0,1,2.114.745l1.511-1.523h-1.219a.362.362,0,1,1,0-.723h2.1a.357.357,0,0,1,.257.107.354.354,0,0,1,.1.255v2.1a.361.361,0,0,1-.723,0v-1.22l-1.523,1.513a3.369,3.369,0,0,1,.479,3.423,3.368,3.368,0,0,1-4.414,1.793ZM5972.5,2135a2.642,2.642,0,1,0,1.868-.775A2.626,2.626,0,0,0,5972.5,2135Z" transform="translate(-5971 -2132)" fill="#00b3cd"/>
</svg>
