<svg id="home_readiology" data-name="home readiology" xmlns="http://www.w3.org/2000/svg" width="55.146" height="66.522" viewBox="0 0 55.146 66.522">
  <path id="Path_3804" data-name="Path 3804" d="M18.593,104.011c-.565-1.663-.366-2,1.3-2.062a26.715,26.715,0,0,1,2.827,0c1.064.066,1.43-.333,1.064-1.6H3.492C1,100.353,0,99.388,0,96.96V69.52c0-2.495,1-3.426,3.559-3.426H7.783c.832-4.889,3.526-8.116,8.249-9.479,2.86-.832,3.592-.6,6.087,1.663-5.954-.366-10.643,1.1-12.207,7.65H45.2c-.366-2.827-1.73-5.155-4.257-6.253-2.362-1.031-5.022-1.3-7.417-1.9,1.33-1.663,3.326-1.929,5.621-1.231,4.623,1.43,7.384,4.457,8.249,9.479H51.92c2.2.033,3.226,1.031,3.226,3.293V97.093c0,2.228-1.064,3.226-3.293,3.226H31.4c-.333,1.1-.166,1.663,1.031,1.6a26.713,26.713,0,0,1,2.827,0c1.663.033,1.863.4,1.3,2.062C30.567,104.011,24.58,104.011,18.593,104.011ZM26.476,68.19c-.532-.033-.931-.067-1.3-.067-7.085,0-14.169.033-21.287-.033-1.4,0-1.829.432-1.8,1.8.033,8.847.067,17.728,0,26.575,0,1.53.565,1.863,1.962,1.829,4.39-.067,8.748-.033,13.138-.033h4.723c-.8-1.364-1.463-2.428-2.1-3.526-.931-1.6-.6-2.162,1.3-2.2,1.8-.033,3.592,0,5.355,0V90.242c-2.262-.7-4.39-1.3-6.419-2.1-.5-.2-.7-1.131-1-1.73a5.267,5.267,0,0,1,1.9-.067c1.8.732,3.526,1.463,5.521,1.231V85.119c-2.328-.8-4.424-1.4-6.453-2.262-.5-.2-.7-1.131-1.064-1.73a6.725,6.725,0,0,1,2-.033c1.8.5,3.592,1.164,5.555,1.8v-2.96c-2.328-.8-4.557-1.5-6.652-2.361-.432-.2-.6-1.1-.865-1.663.632-.033,1.33-.3,1.829-.067a11.3,11.3,0,0,0,5.688,1.43V74.742c-2.328-.8-4.49-1.43-6.552-2.295-.466-.2-.632-1.164-.931-1.763a7.213,7.213,0,0,1,1.9.033c1.829.532,3.592,1.164,5.621,1.829C26.476,70.884,26.476,69.62,26.476,68.19Zm7.218,30.134c6.053,0,11.774-.033,17.462.033,1.463.033,1.929-.432,1.9-1.9q-.1-13.221,0-26.442c0-1.43-.4-1.929-1.9-1.9-6.985.067-13.97.033-20.954.033-.5,0-.965.033-1.53.067v3.925a10.213,10.213,0,0,0,5.787-1.43c.432-.266,1.131-.067,1.7-.067-.166.565-.166,1.33-.532,1.663a5.975,5.975,0,0,1-2.328,1.2c-1.53.432-3.093.665-4.623,1v3.359c2.1-.732,3.925-1.43,5.787-2.029a6.349,6.349,0,0,1,1.6-.1c-.1.565-.033,1.33-.4,1.7a4.85,4.85,0,0,1-2.129,1.2c-1.6.432-3.226.7-4.856,1.064v3.26c2-.632,3.792-1.1,5.521-1.8.732-.3,1.463-1,1.929,0,.2.4-.366,1.4-.832,1.8a5.283,5.283,0,0,1-2.228,1.031c-1.43.366-2.894.6-4.357.9v3.293c2.1-.7,3.958-1.364,5.821-1.929a5.2,5.2,0,0,1,1.6.067c-.133.532-.1,1.3-.432,1.563a8.984,8.984,0,0,1-2.661,1.3c-1.43.4-2.894.565-4.357.865V92.6h5.022c2.395,0,2.628.4,1.6,2.461C34.824,96.062,34.325,97.027,33.693,98.324ZM22.418,94.765c.865,2.661,2.328,4.124,5.222,3.559a25.91,25.91,0,0,1,2.794-.067,1.6,1.6,0,0,0,1.1-.466c.565-.931.965-1.929,1.53-3.06C29.369,94.765,25.943,94.765,22.418,94.765Zm3.692,5.688c-.4,2.129,1.1,1.4,1.962,1.5,1.231.133,1.164-.6.965-1.5Z" transform="translate(0 -37.49)" fill="#12b2aa"/>
  <path id="Path_3805" data-name="Path 3805" d="M64.721,0a29.745,29.745,0,0,1,3.625,1.563,9.852,9.852,0,0,1-6.785,18.061A9.868,9.868,0,0,1,59.865.532C60.4.366,60.9.166,61.428,0ZM55.308,9.679a7.753,7.753,0,0,0,15.5.466,7.754,7.754,0,1,0-15.5-.466Z" transform="translate(-35.485)" fill="#12b2aa"/>
  <path id="Path_3806" data-name="Path 3806" d="M41.212,109.542v9.147c0,.832.067,1.9-1.131,1.73-.4-.067-.931-1.131-.965-1.73-.067-6.02-.033-12.074-.033-18.094,0-.832-.033-1.9,1.131-1.73.4.067.931,1.131.931,1.73C41.245,103.555,41.212,106.548,41.212,109.542Z" transform="translate(-26.078 -65.97)" fill="#12b2aa"/>
  <path id="Path_3807" data-name="Path 3807" d="M41.785,171.428c-.7.5-1.064.965-1.463.965-.333,0-1-.6-.931-.832a1.55,1.55,0,0,1,.9-1.064C40.621,170.464,41.087,170.962,41.785,171.428Z" transform="translate(-26.286 -113.787)" fill="#12b2aa"/>
  <path id="Path_3808" data-name="Path 3808" d="M122.5,109.41v8.98c0,.832.066,1.9-1.1,1.8-.4-.033-1-1.1-1-1.7q-.1-9.13,0-18.26c0-.565.665-1.131,1.031-1.73.366.6.965,1.164,1,1.763C122.562,103.323,122.5,106.383,122.5,109.41Z" transform="translate(-80.321 -65.738)" fill="#12b2aa"/>
  <path id="Path_3809" data-name="Path 3809" d="M121.8,172.985c-.5-.665-1-1.064-1-1.463-.033-.333.565-1,.8-.931a1.556,1.556,0,0,1,1.1.865C122.76,171.788,122.228,172.254,121.8,172.985Z" transform="translate(-80.618 -113.848)" fill="#12b2aa"/>
</svg>
