<svg xmlns="http://www.w3.org/2000/svg" width="169.774" height="169.774" viewBox="0 0 169.774 169.774">
  <g id="freepik--background-simple--inject-2" transform="translate(104.939 -109.39) rotate(45)">
    <path id="Path_1982" data-name="Path 1982" d="M191.329,157.754c.707-9.394-1.478-19.2-4.406-27.932-4.331-13-12.789-26.316-27-29.392A31.588,31.588,0,0,0,136.356,105c-6.757,4.271-12.021,9.79-20.334,10.858-8.4,1.082-17.028.647-25.475.647-21.72,0-39.346,22.816-34.94,46.583s25.181,40.247,42.807,40.247c15.84,0,28.873-9.5,43.917-12.053,7.46-1.266,14.953.233,22.335-1.662,8.581-2.206,16.65-7.464,21.405-15.076A36.417,36.417,0,0,0,191.329,157.754Z" transform="translate(0)" fill="#f5f8fb"/>
  </g>
</svg>
