<svg id="home" xmlns="http://www.w3.org/2000/svg" width="22.455" height="23.637" viewBox="0 0 22.455 23.637">
  <path id="Vector" d="M7.842,22.186V18.574A1.676,1.676,0,0,1,9.523,16.9h3.4a1.688,1.688,0,0,1,1.189.489,1.665,1.665,0,0,1,.493,1.182v3.613a1.436,1.436,0,0,0,.421,1.025,1.459,1.459,0,0,0,1.029.425h2.318a4.089,4.089,0,0,0,2.887-1.181,4.027,4.027,0,0,0,1.2-2.864V9.3A2.922,2.922,0,0,0,21.4,7.049L13.513.8A3.662,3.662,0,0,0,8.846.882l-7.7,6.167A2.926,2.926,0,0,0,0,9.3V19.582a4.069,4.069,0,0,0,4.084,4.055H6.349A1.456,1.456,0,0,0,7.81,22.2Z" transform="translate(0)" fill="#5581c4"/>
</svg>
