<svg xmlns="http://www.w3.org/2000/svg" width="45.428" height="42.519" viewBox="0 0 45.428 42.519">
  <path id="Subtraction_12" data-name="Subtraction 12" d="M18163.1-2635.48h-38.762v-21.925l19.381-12.177,19.381,12.177v21.924Zm-17.133-24.883h0a10.39,10.39,0,0,0-9.734,7.461,10.581,10.581,0,0,0,.623,7.871,9.592,9.592,0,0,0,5.8,4.954,9.556,9.556,0,0,0,2.768.415,10.167,10.167,0,0,0,7.9-3.935,7.717,7.717,0,0,1-4.068,1.158,7.745,7.745,0,0,1-2.232-.328,7.663,7.663,0,0,1-4.635-3.961,8.462,8.462,0,0,1-.5-6.293,8.5,8.5,0,0,1,3.018-4.338,7.985,7.985,0,0,1,4.768-1.625,7.566,7.566,0,0,1,1.434.137,9.65,9.65,0,0,0-2.381-1.1,9.45,9.45,0,0,0-2.76-.413Zm-22.965-.251h0l-2-3.209,21.744-13.568.971-.606.971.606,21.742,13.568-2,3.208-20.713-12.961L18123-2660.615Z" transform="translate(-18121 2677.999)" fill="#fff"/>
</svg>
