<?xml version="1.0" encoding="utf-8"?>
<!-- Generator: Adobe Illustrator 26.0.1, SVG Export Plug-In . SVG Version: 6.00 Build 0)  -->
<svg version="1.1" id="Layer_1" xmlns="http://www.w3.org/2000/svg" xmlns:xlink="http://www.w3.org/1999/xlink" x="0px" y="0px"
	 viewBox="0 0 24 24" style="enable-background:new 0 0 24 24;" xml:space="preserve">
<path d="M12,2C6.5,2,2,6.5,2,12s4.5,10,10,10s10-4.5,10-10S17.5,2,12,2z M12,4c4.4,0,8,3.6,8,8s-3.6,8-8,8s-8-3.6-8-8S7.6,4,12,4z
	 M11,8L11,8c0,0.6,0.4,1,1,1h0c0.6,0,1-0.4,1-1v0c0-0.6-0.4-1-1-1h0C11.4,7,11,7.4,11,8z M11,12v4c0,0.6,0.4,1,1,1h0
	c0.6,0,1-0.4,1-1v-4c0-0.6-0.4-1-1-1h0C11.4,11,11,11.4,11,12z"/>
</svg>
