<svg xmlns="http://www.w3.org/2000/svg" width="19.716" height="23.636" viewBox="0 0 19.716 23.636">
  <g id="microscope-medical-svgrepo-com" transform="translate(0)">
    <g id="Group_68" data-name="Group 68" transform="translate(0 19.255)">
      <g id="Group_67" data-name="Group 67">
        <path id="Path_659" data-name="Path 659" d="M57.895,418.01H46.941a4.381,4.381,0,0,0-4.381,4.381H62.276A4.381,4.381,0,0,0,57.895,418.01Z" transform="translate(-42.56 -418.01)" fill="#bbcde7"/>
      </g>
    </g>
    <g id="Group_70" data-name="Group 70" transform="translate(5.05 5.686)">
      <g id="Group_69" data-name="Group 69" transform="translate(0)">
        <ellipse id="Ellipse_66" data-name="Ellipse 66" cx="1.643" cy="1.643" rx="1.643" ry="1.643" fill="#bbcde7"/>
      </g>
    </g>
    <g id="Group_72" data-name="Group 72" transform="translate(4.786)">
      <g id="Group_71" data-name="Group 71">
        <path id="Path_660" data-name="Path 660" d="M156.12,7.328l.387-.387L149.924.358l-.775.774L148.017,0l-1.549,1.549L147.6,2.681l-.775.775.7.7a3.3,3.3,0,0,1,.851-.111,3.286,3.286,0,0,1,3.286,3.286,3.307,3.307,0,0,1-.111.851l1.86,1.86.387-.387,1.132,1.132,2.324-2.324Z" transform="translate(-146.468)" fill="#bbcde7"/>
      </g>
    </g>
    <g id="Group_74" data-name="Group 74" transform="translate(3.286 8.861)">
      <g id="Group_73" data-name="Group 73">
        <path id="Path_661" data-name="Path 661" d="M124.661,198.192a4.381,4.381,0,0,1-7.369-4.072,3.293,3.293,0,0,1-2.9-1.753,7.668,7.668,0,0,0,1.746,8.148,7.751,7.751,0,0,0,.678.6l9.473.01a7.746,7.746,0,0,0,.691-.613Z" transform="translate(-113.896 -192.367)" fill="#bbcde7"/>
      </g>
    </g>
  </g>
</svg>
