<svg id="marker" xmlns="http://www.w3.org/2000/svg" width="10.55" height="12.592" viewBox="0 0 10.55 12.592">
  <path id="Path_18" data-name="Path 18" d="M10.1,6a2.1,2.1,0,1,0,2.1,2.1A2.1,2.1,0,0,0,10.1,6Zm0,3.148A1.049,1.049,0,1,1,11.148,8.1,1.049,1.049,0,0,1,10.1,9.148Z" transform="translate(-4.823 -2.851)" fill="#12b2aa"/>
  <path id="Path_19" data-name="Path 19" d="M7.22,12.59a2.765,2.765,0,0,1-2.262-1.154c-2-2.758-3.013-4.831-3.013-6.163a5.275,5.275,0,0,1,10.55,0c0,1.331-1.014,3.4-3.013,6.163A2.765,2.765,0,0,1,7.22,12.59Zm0-11.447A4.136,4.136,0,0,0,3.089,5.274c0,1.054.993,3,2.8,5.491a1.65,1.65,0,0,0,2.67,0c1.8-2.486,2.8-4.436,2.8-5.491A4.136,4.136,0,0,0,7.22,1.143Z" transform="translate(-1.945 0.002)" fill="#12b2aa"/>
</svg>
