<svg xmlns="http://www.w3.org/2000/svg" width="100.06" height="100.93" viewBox="0 0 100.06 100.93">
  <g id="Group_1488" data-name="Group 1488" transform="translate(-4642.83 1021.014)">
    <path id="Path_3968" data-name="Path 3968" d="M351.07,154.23v26.86h-7.6V154.23c0-10.22-7.76-18.53-17.3-18.53s-17.31,8.31-17.31,18.53v26.86h-7.59V154.23c0-14.63,11.17-26.53,24.9-26.53S351.07,139.6,351.07,154.23Z" transform="translate(4351.29 -1148.714)" fill="#00b3cd"/>
    <path id="Path_3969" data-name="Path 3969" d="M301.27,161.21l7.59.31v19.57h-7.59Z" transform="translate(4351.29 -1148.714)" fill="#00b3cd"/>
    <path id="Path_3970" data-name="Path 3970" d="M351.06,163.24v17.85h-7.59V162.93Z" transform="translate(4351.29 -1148.714)" fill="#00b3cd"/>
    <rect id="Rectangle_930" data-name="Rectangle 930" width="69.26" height="57.48" transform="translate(4642.83 -977.564)" fill="#00b3cd"/>
    <rect id="Rectangle_931" data-name="Rectangle 931" width="34.63" height="57.48" transform="translate(4677.445 -977.564)" opacity="0.1"/>
    <path id="Path_3971" data-name="Path 3971" d="M329.42,199.51l2.9,13.76H320l2.9-13.76a6.16,6.16,0,1,1,6.51,0Z" transform="translate(4351.29 -1148.714)" fill="#f8f9fc" opacity="0.77"/>
    <path id="Path_3972" data-name="Path 3972" d="M387.17,175l-3.1-.5a23.45,23.45,0,0,0-43.4-15.5l-2.78-1.46A26.59,26.59,0,0,1,387.17,175Z" transform="translate(4351.29 -1148.714)" fill="#00b3cd"/>
    <path id="Path_3973" data-name="Path 3973" d="M383.24,175.09l.12-.71a22.73,22.73,0,0,0-42.07-15l-.35.59-4.05-2.13.38-.65a27.31,27.31,0,0,1,50.61,18l-.12.71ZM366,147.17a24.17,24.17,0,0,1,18.87,26.73l1.68.27a25.86,25.86,0,0,0-47.66-16.95l1.5.79A24.14,24.14,0,0,1,366,147.17Z" transform="translate(4351.29 -1148.714)" fill="#00b3cd"/>
    <path id="Path_3974" data-name="Path 3974" d="M380.44,172.22l1.44-1.13,3.4,4.56,4.29-3.65,1.05,1.43-5.74,4.87Z" transform="translate(4351.29 -1148.714)" fill="#00b3cd"/>
    <path id="Path_3975" data-name="Path 3975" d="M384.76,179.35l-5.31-7.26,2.56-2,3.39,4.53,4.28-3.64,1.92,2.58Zm-3.33-7,3.58,4.89,4.64-3.94-.2-.26-4.29,3.64-3.42-4.58Z" transform="translate(4351.29 -1148.714)" fill="#00b3cd"/>
    <path id="Path_3976" data-name="Path 3976" d="M334.42,167.26l3.1.5a23.45,23.45,0,0,0,43.4,15.53l2.78,1.46a26.59,26.59,0,0,1-49.28-17.49Z" transform="translate(4351.29 -1148.714)" fill="#00b3cd"/>
    <path id="Path_3977" data-name="Path 3977" d="M354.92,198.14a27.29,27.29,0,0,1-21.2-31l.11-.71,4.52.72-.12.71a22.73,22.73,0,0,0,42.07,15.06l.35-.6,4.05,2.13-.38.65a27.23,27.23,0,0,1-29.4,13.04Zm-19.89-30A25.87,25.87,0,0,0,382.7,185l-1.51-.79a24.17,24.17,0,0,1-44.48-15.88Z" transform="translate(4351.29 -1148.714)" fill="#00b3cd"/>
    <path id="Path_3978" data-name="Path 3978" d="M341.15,170.03l-1.44,1.13-3.4-4.56-4.28,3.65-1.06-1.43,5.74-4.87Z" transform="translate(4351.29 -1148.714)" fill="#00b3cd"/>
    <path id="Path_3979" data-name="Path 3979" d="M331.91,171.29,330,168.71l6.84-5.81,5.31,7.26-2.56,2-3.38-4.53Zm0-2.35.2.26,4.28-3.64,3.42,4.58.31-.25L336.58,165Z" transform="translate(4351.29 -1148.714)" fill="#00b3cd"/>
  </g>
</svg>
