<svg xmlns="http://www.w3.org/2000/svg" width="94.065" height="83.396" viewBox="0 0 94.065 83.396">
  <g id="Layer_2" data-name="Layer 2" transform="translate(-0.025 0)">
    <g id="Layer_1" data-name="Layer 1" transform="translate(0.025 0)">
      <path id="Path_5101" data-name="Path 5101" d="M107.1,440.94a1.078,1.078,0,0,1,.13.068A.948.948,0,0,0,107.1,440.94ZM164.181,453.9a2.028,2.028,0,0,1-1.711-.954l-.105.47-.963,4.31a2.008,2.008,0,0,1-1.934,1.576h-.028a2.015,2.015,0,0,1-1.951-1.507l-1.132-4.342-1.384-5.291L154,453.374l-.852,4.572a2.029,2.029,0,0,1-1.923,1.646h-.058a2.006,2.006,0,0,1-1.956-1.537l-1.13-4.619-1.041-4.254-.936,2.886a2.008,2.008,0,0,1-1.917,1.394H133.841a2.015,2.015,0,0,1-1.552-.731,2.015,2.015,0,0,1-1.553.731H119.408a2.026,2.026,0,0,1-1.97-1.594l-2.255-10.533-1.833,12-.58,3.8a2.026,2.026,0,0,1-1.875,1.708h-.119a2.016,2.016,0,0,1-1.94-1.49l-1.042-3.9-.861-3.212-.448,2.027a2.026,2.026,0,0,1-1.679,1.559,1.939,1.939,0,0,1-.3.021,2.015,2.015,0,0,1-1.757-1.039l-.363-.651a2.015,2.015,0,0,1-1.994,1.731H95.83a41.545,41.545,0,0,0,72.3,0Z" transform="translate(-85.104 -391.574)" fill="#12b2aa"/>
      <path id="Path_5102" data-name="Path 5102" d="M94.09,358.916a2.672,2.672,0,0,1-5.062,1.2H79.1a.9.9,0,0,1-.876-.707l-.878-4.071-1.155,5.17-.963,4.311a.9.9,0,0,1-.859.7h-.01a.9.9,0,0,1-.868-.672l-1.136-4.34-2.646-10.146-1.889,10.146-.851,4.571a.9.9,0,0,1-.855.731h-.026a.9.9,0,0,1-.869-.683l-1.13-4.62-1.977-8.087-2.152,6.638a.9.9,0,0,1-.852.619H48.761A.9.9,0,0,1,48.326,358c.06-.034,7.188-3.437,7.188-7.409,0-1.755-.5-3.023-1.433-3.661a2.842,2.842,0,0,0-1.626-.469,4.386,4.386,0,0,0-1.59.32,4.508,4.508,0,0,0-2.8,2.351.886.886,0,0,1-1.719,0,4.468,4.468,0,0,0-2.8-2.351,4.389,4.389,0,0,0-1.59-.32,2.847,2.847,0,0,0-1.627.469c-.937.639-1.433,1.9-1.433,3.661,0,3.972,7.127,7.376,7.188,7.409a.9.9,0,0,1-.436,1.679H34.329a.9.9,0,0,1-.876-.709l-3.533-16.5-2.756,18.047-.58,3.8a.9.9,0,0,1-.836.759H25.7a.9.9,0,0,1-.863-.664l-1.042-3.895-2.042-7.634-1.441,6.494a.9.9,0,0,1-.746.693.829.829,0,0,1-.13.009.9.9,0,0,1-.784-.46l-2.084-3.744-.362,3.446a.9.9,0,0,1-.89.8H5.081a2.673,2.673,0,1,1,.224-1.791h9.2l.573-5.462a.9.9,0,0,1,1.486-.575.747.747,0,0,1,.084.085,1.031,1.031,0,0,1,.073.1c.011.017.021.035.031.053l2.314,4.163,1.723-7.774a.9.9,0,0,1,.855-.7h.008a.923.923,0,0,1,.364.074.957.957,0,0,1,.13.068.885.885,0,0,1,.383.523l2.925,10.938,3.429-22.452a.9.9,0,0,1,.859-.76h.028a.888.888,0,0,1,.874.713l4.4,20.577h7.713c-1.984-1.576-5.54-4.136-5.65-7.152v-.144c0-3,1.2-4.451,2.213-5.141a4.432,4.432,0,0,1,1.405-.635,4.9,4.9,0,0,1,.515-.1,5.186,5.186,0,0,1,.713-.049,5.4,5.4,0,0,1,.55.028c.185.018.371.046.56.083l.141.029c.094.02.189.043.283.069a6.542,6.542,0,0,1,.711.234,7.333,7.333,0,0,1,3,2.055,7.32,7.32,0,0,1,3-2.055,6.515,6.515,0,0,1,.711-.234c.094-.026.189-.049.283-.069l.141-.029c.187-.037.374-.065.56-.083a5.43,5.43,0,0,1,.55-.028,5.172,5.172,0,0,1,.738.053c.156.022.309.053.459.09a4.472,4.472,0,0,1,.843.3c.1.048.2.1.3.158a2.85,2.85,0,0,1,.292.182c1.008.69,2.213,2.142,2.213,5.141v.145c-.112,3.016-3.667,5.576-5.65,7.152h6.807l2.924-9.018a.9.9,0,0,1,.853-.62h.029a.9.9,0,0,1,.836.682l2.83,11.576.037.152.028-.152,2.687-14.419a.9.9,0,0,1,.849-.731h.025a.9.9,0,0,1,.725.363.735.735,0,0,1,.064.1.861.861,0,0,1,.084.209l3.775,14.481.081.309.069-.309,2.127-9.543a.9.9,0,0,1,.873-.7h0a.9.9,0,0,1,.872.708l1.585,7.353H88.8a2.672,2.672,0,0,1,5.279.589Z" transform="translate(-0.025 -298.915)" fill="#5581c4"/>
      <path id="Path_5103" data-name="Path 5103" d="M135.629,17.223,107.594,1.477a11.678,11.678,0,0,0-11.373,0L68.186,17.223A11.626,11.626,0,0,0,62.26,27.347v30.5h2.015v-30.5a9.61,9.61,0,0,1,4.9-8.368L97.207,3.234a9.661,9.661,0,0,1,9.4,0L134.646,18.98a9.609,9.609,0,0,1,4.9,8.368v30.5h2.015v-30.5a11.626,11.626,0,0,0-5.93-10.124Z" transform="translate(-55.292 0)" fill="#5581c4"/>
    </g>
  </g>
</svg>
