<svg xmlns="http://www.w3.org/2000/svg" xmlns:xlink="http://www.w3.org/1999/xlink" viewBox="0 0 276.64 198.1"><defs><style>.cls-1{isolation:isolate;}.cls-2{fill:#00bed6;}.cls-3{fill:#93d500;}.cls-4{mix-blend-mode:multiply;fill:url(#linear-gradient);}</style><linearGradient id="linear-gradient" x1="183.45" y1="106.54" x2="121.12" y2="106.54" gradientUnits="userSpaceOnUse"><stop offset="0" stop-color="#818181"/><stop offset="0.56" stop-color="#d4d4d4"/><stop offset="0.87" stop-color="#fff"/></linearGradient></defs><title>Artboard ٢٣</title><g class="cls-1"><g id="Layer_1" data-name="Layer 1"><path class="cls-2" d="M184.48,117,162.35,94.87a33.55,33.55,0,1,1,12.89-55.48l9.24,9.24V9.25a63.14,63.14,0,1,0,0,107.75Z"/><path class="cls-3" d="M42.27,160.46l-5.85,5.78a17.33,17.33,0,0,0-13-5.87,14.83,14.83,0,0,0-10.8,4.27A14,14,0,0,0,8.31,175a14.39,14.39,0,0,0,4.52,10.72A15.34,15.34,0,0,0,24,190.14a13.64,13.64,0,0,0,7.27-1.81A12.8,12.8,0,0,0,36,182.66H23.36v-7.81h22l.06,1.84a21.4,21.4,0,0,1-3,10.87,20.84,20.84,0,0,1-7.69,7.84,21.93,21.93,0,0,1-11.07,2.7,24.6,24.6,0,0,1-12.13-3,21.63,21.63,0,0,1-8.43-8.41A23.45,23.45,0,0,1,0,174.94a21.91,21.91,0,0,1,5.73-15.08q6.79-7.62,17.69-7.63a26.9,26.9,0,0,1,10.66,2.11A24.46,24.46,0,0,1,42.27,160.46Z"/><path class="cls-3" d="M51.24,152.23h8.1V197h-8.1Z"/><path class="cls-3" d="M81.87,163.87a17.19,17.19,0,0,1,8.6,2.28A16.75,16.75,0,0,1,99,180.82a17,17,0,0,1-2.27,8.55,16.43,16.43,0,0,1-6.19,6.22,17.12,17.12,0,0,1-8.64,2.24A16.14,16.14,0,0,1,70,192.89a17.13,17.13,0,0,1,.64-24.63A16.22,16.22,0,0,1,81.87,163.87ZM82,171.5a8.3,8.3,0,0,0-6.29,2.63,9.31,9.31,0,0,0-2.52,6.72,9.49,9.49,0,0,0,2.49,6.83A8.3,8.3,0,0,0,82,190.29a8.4,8.4,0,0,0,6.33-2.64,10.4,10.4,0,0,0,0-13.55A8.35,8.35,0,0,0,82,171.5Z"/><path class="cls-3" d="M113.67,152.23v16a15.12,15.12,0,0,1,4.75-3.29,13.69,13.69,0,0,1,5.46-1.1,14.11,14.11,0,0,1,10.75,4.78,17.38,17.38,0,0,1,4.42,12.26A17,17,0,0,1,134.48,193a14.42,14.42,0,0,1-10.84,4.85,13.48,13.48,0,0,1-5.19-1,15.78,15.78,0,0,1-4.78-3.26V197h-8V152.23Zm8.52,19.12a8.48,8.48,0,0,0-6.36,2.61,9.43,9.43,0,0,0-2.52,6.83,9.69,9.69,0,0,0,2.52,7,8.41,8.41,0,0,0,6.36,2.66,8.26,8.26,0,0,0,6.25-2.7,9.67,9.67,0,0,0,2.53-6.89,9.56,9.56,0,0,0-2.49-6.81A8.26,8.26,0,0,0,122.19,171.35Z"/><path class="cls-2" d="M177.37,171.23l-6.74,3.71a11.71,11.71,0,0,0-3.76-2.76,11.4,11.4,0,0,0-4.36-.77,10.12,10.12,0,0,0-7.35,2.71,9.22,9.22,0,0,0-2.81,6.95,8.94,8.94,0,0,0,2.7,6.73,9.8,9.8,0,0,0,7.11,2.61,10.36,10.36,0,0,0,8.47-3.71l6.39,4.37q-5.21,6.77-14.67,6.76-8.52,0-13.34-5.05a16.78,16.78,0,0,1,4.06-26.65,19.53,19.53,0,0,1,9.4-2.26,19.12,19.12,0,0,1,8.64,1.91A16.46,16.46,0,0,1,177.37,171.23Z"/><path class="cls-2" d="M208.51,164.7h8.11V197h-8.11v-3.42a16,16,0,0,1-4.76,3.26,13.34,13.34,0,0,1-5.17,1A14.38,14.38,0,0,1,187.76,193a16.92,16.92,0,0,1-4.57-12.07,17.33,17.33,0,0,1,4.42-12.26,14,14,0,0,1,10.73-4.78,13.69,13.69,0,0,1,5.46,1.1,14.85,14.85,0,0,1,4.71,3.29ZM200,171.35a8.2,8.2,0,0,0-6.24,2.66,9.56,9.56,0,0,0-2.49,6.81,9.71,9.71,0,0,0,2.53,6.89,8.22,8.22,0,0,0,6.23,2.7,8.33,8.33,0,0,0,6.33-2.66,9.69,9.69,0,0,0,2.52-7,9.43,9.43,0,0,0-2.52-6.83A8.44,8.44,0,0,0,200,171.35Z"/><path class="cls-2" d="M222.91,164.7h7v4.07a8.64,8.64,0,0,1,3-3.65,7.2,7.2,0,0,1,4.1-1.25,7.66,7.66,0,0,1,3.3.83l-2.53,7a5.53,5.53,0,0,0-2.34-.72c-1.25,0-2.3.78-3.16,2.32s-1.3,4.57-1.3,9.08l0,1.58V197h-8Z"/><path class="cls-2" d="M276.61,183.19h-26a8.63,8.63,0,0,0,3,5.48,9.43,9.43,0,0,0,6.25,2,10.8,10.8,0,0,0,7.81-3.17l6.82,3.2a16,16,0,0,1-6.11,5.36,19.12,19.12,0,0,1-8.46,1.74A16.74,16.74,0,0,1,247.52,193a16.31,16.31,0,0,1-4.78-12,16.9,16.9,0,0,1,4.76-12.28,16,16,0,0,1,11.95-4.88,16.62,16.62,0,0,1,12.41,4.88q4.78,4.89,4.78,12.9Zm-8.1-6.38a8.14,8.14,0,0,0-3.17-4.39,9.17,9.17,0,0,0-5.49-1.69,9.65,9.65,0,0,0-5.94,1.9,10.53,10.53,0,0,0-3,4.18Z"/><path class="cls-4" d="M162.35,94.87a33.53,33.53,0,0,1-34.55-8l-20.93,20.93A63.2,63.2,0,0,0,184.48,117Z"/><polygon class="cls-3" points="184.48 75.14 161.99 52.64 141.06 73.57 184.48 117 184.48 75.14"/></g></g></svg>