<svg id="mail" xmlns="http://www.w3.org/2000/svg" xmlns:xlink="http://www.w3.org/1999/xlink" width="34.289" height="28.054" viewBox="0 0 34.289 28.054">
  <defs>
    <linearGradient id="linear-gradient" x1="0.5" x2="0.5" y2="1" gradientUnits="objectBoundingBox">
      <stop offset="0" stop-color="#32b0f2"/>
      <stop offset="1" stop-color="#0012b5"/>
    </linearGradient>
  </defs>
  <path id="Path_550" data-name="Path 550" d="M6.176,4.5H31.113a4.681,4.681,0,0,1,4.676,4.676v18.7a4.681,4.681,0,0,1-4.676,4.676H6.176A4.681,4.681,0,0,1,1.5,27.878V9.176A4.681,4.681,0,0,1,6.176,4.5ZM31.113,29.437a1.56,1.56,0,0,0,1.559-1.559V9.176a1.56,1.56,0,0,0-1.559-1.559H6.176A1.56,1.56,0,0,0,4.617,9.176v18.7a1.56,1.56,0,0,0,1.559,1.559Z" transform="translate(-1.5 -4.5)" fill="url(#linear-gradient)"/>
  <path id="Path_551" data-name="Path 551" d="M18.644,21.527a1.557,1.557,0,0,1-.894-.282L2.165,10.335A1.559,1.559,0,1,1,3.952,7.782L18.644,18.066,33.336,7.782a1.559,1.559,0,1,1,1.788,2.554L19.538,21.245A1.557,1.557,0,0,1,18.644,21.527Z" transform="translate(-1.5 -4.383)" fill="url(#linear-gradient)"/>
</svg>
