<svg xmlns="http://www.w3.org/2000/svg" width="69.601" height="58.726" viewBox="0 0 69.601 58.726">
  <g id="noun-men-power-2079731" transform="translate(-78.498 -50.907)">
    <path id="Path_3842" data-name="Path 3842" d="M147.445,133.647c-9.57-4.568-15.987,5.546-16.094,5.655a.379.379,0,0,0-.109.217c-2.283,5.655-.326,10.875.761,13.159-2.393.979-6.851,4.132-7.069,13.268a23.522,23.522,0,0,1-7.069-7.069,60.326,60.326,0,0,0,3.7-14.246c.652-4.35-4.35-7.177-8.483-4.676-3.915-2.5-9.026.217-8.483,4.676a70.009,70.009,0,0,0,3.7,14.246,23.524,23.524,0,0,1-7.069,7.069c-.217-9.026-4.676-12.18-7.069-13.268,1.087-2.283,3.045-7.5.761-13.159,0-.109,0-.109-.109-.217s-6.416-10.223-16.094-5.655a7.107,7.107,0,0,0-.217.979v20.989a1.342,1.342,0,0,0,.435.87l7.613,5.438c.979,8.048,3.48,13.7,7.395,16.639,3.045,2.283,6.742,2.393,7.613,1.958.435-.217,6.307-3.7,11.745-12.289,2.175,3.371,9.244,12.506,13.159,12.506,8.809,0,12.615-10.005,13.594-18.814l7.613-5.438a.988.988,0,0,0,.435-.87V134.627a1.046,1.046,0,0,0-.652-.979ZM106.989,144.3c-.435-3.045,3.915-4.459,6.2-1.631,1.2,1.523.979,3.045,0,4.676-.544.87-1.523,1.849-1.305,2.61a6.934,6.934,0,0,1,.217.761,24.539,24.539,0,0,1-2.175,5.655,67.572,67.572,0,0,1-2.936-12.071Zm-6.416,34.256a7.847,7.847,0,0,1-5.438-1.74c-3.48-2.61-5.764-7.939-6.634-15.551a1.1,1.1,0,0,0-.435-.761l-7.5-5.438V135.387c7.177-2.936,12.072,4.132,12.615,5.111,2.5,6.307-1.2,12.289-1.305,12.289a1.058,1.058,0,0,0-.109.979,1.149,1.149,0,0,0,.761.652c.326.109,7.177,1.631,6.634,13.376a1.128,1.128,0,0,0,1.523,1.087c5.111-2.175,11.527-9.026,13.812-18.923v-.544a6.917,6.917,0,0,0,1.523-3.7,5.142,5.142,0,0,0-1.087-4.132c2.393-.979,4.894.544,4.568,2.828-3.48,23.816-17.182,33.06-18.923,34.147Zm45.349-23.49-7.5,5.438a1.1,1.1,0,0,0-.435.761c-.87,8.265-4.459,18.053-11.962,17.291a37.816,37.816,0,0,1-11.419-12.4c.87-1.523,1.631-3.154,2.5-4.894a23.918,23.918,0,0,0,8.7,7.5,1.288,1.288,0,0,0,1.087-.109,1.06,1.06,0,0,0,.435-.979c-.544-11.745,6.307-13.268,6.634-13.376a1.147,1.147,0,0,0,.761-.652,1.023,1.023,0,0,0-.109-.979c0-.109-3.806-5.981-1.305-12.289.544-.87,5.438-7.939,12.615-5.111Z" transform="translate(0 -71.103)" fill="#5581c4"/>
    <path id="Path_3843" data-name="Path 3843" d="M342.6,61.565a1.028,1.028,0,0,0,1.087-1.087V51.995a1.087,1.087,0,0,0-2.175,0v8.483A1.17,1.17,0,0,0,342.6,61.565Z" transform="translate(-229.307)" fill="#5581c4"/>
    <path id="Path_3844" data-name="Path 3844" d="M258.734,95.217a1.077,1.077,0,0,0,1.523-1.523l-5.981-5.981a1.077,1.077,0,1,0-1.523,1.523Z" transform="translate(-151.636 -31.804)" fill="#5581c4"/>
    <path id="Path_3845" data-name="Path 3845" d="M385.784,96.917l5.981-5.981a1.077,1.077,0,0,0-1.523-1.523l-5.981,5.981a1.051,1.051,0,0,0,0,1.523A1.308,1.308,0,0,0,385.784,96.917Z" transform="translate(-266.289 -33.286)" fill="#5581c4"/>
  </g>
</svg>
