<svg xmlns="http://www.w3.org/2000/svg" width="20.682" height="23.637" viewBox="0 0 20.682 23.637">
  <path id="Icon_awesome-file-medical-alt" data-name="Icon awesome-file-medical-alt" d="M13.3,6.279V0H4.063A1.105,1.105,0,0,0,2.955,1.108v10.71H.369A.37.37,0,0,0,0,12.188v.739a.37.37,0,0,0,.369.369h6.5a.376.376,0,0,1,.332.2l.919,1.837,2.622-5.249a.369.369,0,0,1,.66,0l1.6,3.208H16.25a.739.739,0,1,1,0,1.477H12.1l-1.02-2.041L8.458,17.981a.369.369,0,0,1-.66,0L6.191,14.773H2.955v7.756a1.105,1.105,0,0,0,1.108,1.108H19.574a1.105,1.105,0,0,0,1.108-1.108V7.386H14.4A1.111,1.111,0,0,1,13.3,6.279Zm7.063-1.431L15.839.323A1.107,1.107,0,0,0,15.055,0h-.282V5.909h5.909V5.628A1.1,1.1,0,0,0,20.359,4.847Z" fill="#bbcde7"/>
</svg>
