<?xml version="1.0" encoding="utf-8"?>
<!-- Generator: Adobe Illustrator 25.0.0, SVG Export Plug-In . SVG Version: 6.00 Build 0)  -->
<svg version="1.1" id="Layer_1" xmlns="http://www.w3.org/2000/svg" xmlns:xlink="http://www.w3.org/1999/xlink" x="0px" y="0px"
	 viewBox="0 0 557.5 443.3" style="enable-background:new 0 0 557.5 443.3;" xml:space="preserve">
<g>
	<path d="M507.8,68.2c-19.4-2.8-188.8-3.5-190.5-3.5h-0.8c-0.1,0-2.9-0.4-3.5-1.1v0c-0.1-0.2-0.1-0.3-0.2-0.5
		c-0.8-2.8-1.4-5.6-1.8-8.5c-0.4-2.1-0.8-4.2-1.2-6.3C304.4,24.8,288,7.7,266.9,3.9c-0.7-0.1-1.4-0.2-2.2-0.3
		c-3.9-0.6-6.4-1-8.7-1.4C248.4,0.7,243.9,0,225,0s-23.5,0.7-31.5,2c-2.5,0.4-5.2,0.9-9.4,1.5c-15.8,2.1-31.7,10.8-44.7,24.4v0
		c-12.4,13.3-21.4,29.4-26.2,46.9l-0.1,0.4l-1.8,6.6c-13.7-1.1-26.6-1.1-31-1.1h-0.9c-10.2,0-21.7,0.2-30.6,1.5
		C32,84.9,18.6,92.5,10.1,104.7c-8.8,12.4-12,28.3-9,44.8v0.3c2.4,13.7,5.1,27.3,13.2,56.5c3.9,13.9,7.2,24.9,10.5,34.7
		c5,19.7,11,42.3,15.3,57.7c8,28.4,20.9,70.9,26.3,85.1l0.1,0.4l0,0c5.9,15,15.7,28.1,28.4,38.1c12.9,10.2,28.3,16.7,43.4,18.3
		c18.3,1.9,141,2.6,160.1,2.6c19.3,0,142.7-0.8,160.1-2.7c16.5-1.8,30.6-9.8,39.6-22.6c5.6-8,9-17.4,9.8-27.1
		c5.3-19.9,18.5-77.5,25.7-113.8c7.6-38.1,21-110.8,23.2-129.2v-0.4c2.3-18.7-0.8-36.7-8.6-50.7C539.4,81.1,524.7,70.7,507.8,68.2
		L507.8,68.2z M453.9,399.2c-13,1.4-123.3,2.4-155.5,2.4c-33,0-141.8-1-155.9-2.4c-7.2-0.7-15.1-4.2-21.9-9.5h0
		c-6.8-5.3-12.1-12.2-15.3-20.2l-0.1-0.4c-4.5-11.9-16.7-51.5-25.2-81.5c-4.3-15.3-10.3-37.9-15.3-57.6c-0.1-0.5-0.3-1-0.4-1.5
		c-3.1-9.3-6.3-19.9-10.1-33.4c-7.7-27.3-10-39.5-12.3-52.6v-0.3c-1-5.4-0.2-10.3,2.1-13.6c2.4-3.4,7.3-4.8,11-5.3
		c6.8-1,18.9-1.1,24-1.1h1.2c4.3,0,17.2,0,30,1.2l0.7,0.1c8.8,1.1,18.2,6.7,24.7,14.5c0.9,1,1.9,2.3,2.9,3.7c2.4,3,5,6.5,8.2,9.8
		c17.4,18.5,41.9,19,46.4,18.9c31.9,0,172.1,1,186.2,2.4c7.2,0.7,15.1,4.2,21.9,9.5c6.8,5.3,12.1,12.3,15.3,20.3l0.1,0.3
		c4.8,12.5,21.2,67.7,29.1,95.7c8.4,30,18.3,69.6,20.4,81.4l0.1,0.3c1,5.4,0.2,10.3-2.1,13.6C461.5,397.7,457.2,398.9,453.9,399.2
		L453.9,399.2z M515.5,142.7l-0.1,0.4c-2,16.6-15.3,89.2-22.6,126c-1.5,7.6-3.3,16.2-5.2,25.1c-0.6-2.3-1.2-4.5-1.8-6.6
		c-7.1-25.6-24.5-84.1-30.3-99.3l-0.1-0.4c-5.9-15-15.7-28.1-28.3-38c-12.9-10.2-28.4-16.7-43.4-18.3c-18.9-1.9-177.9-2.7-190.7-2.7
		h-0.7c-0.2,0-10-0.3-15.3-5.8c-1.8-1.9-3.7-4.4-5.6-6.8c-1.2-1.6-2.5-3.2-3.8-4.8c-5-6-10.7-11.3-17.1-15.7
		c0.9-3.3,1.8-6.5,2.6-9.5l0.1-0.4v0c3-11,8.6-21,16.3-29.3c6.4-6.7,13.7-11.1,20.1-11.9c4.9-0.7,8.2-1.2,10.9-1.7
		c5.9-1,8.3-1.4,24.4-1.4c16.1,0,18.1,0.4,23.4,1.4c2.5,0.5,5.7,1.1,10.4,1.7l0.5,0.1c6.6,1.2,9,9.3,9.8,12.7c0.3,1.3,0.6,3,0.9,4.7
		v0c0.7,4.5,1.7,8.9,3,13.3c6.8,21.9,27.8,31.3,44.6,30.8c38.4,0,171.3,1.3,184.3,3.1c4.1,0.6,7.4,3.2,9.9,7.7
		C515.4,123.4,516.7,132.7,515.5,142.7L515.5,142.7z"/>
	<path d="M299.6,268.5h-34.6l-10.2-35.8c-2-7.1-7.7-12.6-14.9-14.4c-7.2-1.8-14.8,0.4-20,5.7c-5.2,5.3-7.1,13-5,20.2l7,24.3H200
		c-7.4,0-14.3,4-18,10.4c-3.7,6.4-3.7,14.4,0,20.8c3.7,6.4,10.6,10.4,18,10.4h33.8l10.2,35.8c1.5,5.3,5.1,9.8,9.9,12.4
		c4.8,2.7,10.5,3.3,15.8,1.8c5.3-1.5,9.8-5.1,12.4-9.9c2.7-4.8,3.3-10.5,1.8-15.8l-7-24.3h22.7v0c7.4,0,14.3-4,18-10.4
		c3.7-6.4,3.7-14.4,0-20.8C314,272.5,307.1,268.5,299.6,268.5L299.6,268.5z"/>
</g>
</svg>
