<svg xmlns="http://www.w3.org/2000/svg" width="46.263" height="52.872" viewBox="0 0 46.263 52.872">
  <path id="Icon_awesome-file-medical-alt" data-name="Icon awesome-file-medical-alt" d="M29.741,14.044V0H9.087A2.472,2.472,0,0,0,6.609,2.478V26.436H.826A.829.829,0,0,0,0,27.262v1.652a.829.829,0,0,0,.826.826h14.55a.842.842,0,0,1,.744.454l2.055,4.11L24.04,22.564a.825.825,0,0,1,1.477,0L29.1,29.741H36.35a1.652,1.652,0,0,1,0,3.3H27.066l-2.282-4.564L18.918,40.222a.825.825,0,0,1-1.477,0l-3.594-7.177H6.609V50.394a2.472,2.472,0,0,0,2.478,2.478h34.7a2.472,2.472,0,0,0,2.478-2.478V16.523H32.219A2.486,2.486,0,0,1,29.741,14.044Zm15.8-3.2L35.431.723A2.477,2.477,0,0,0,33.675,0h-.63V13.218H46.263v-.63A2.47,2.47,0,0,0,45.54,10.843Z" fill="#55a2ff"/>
</svg>
