<svg xmlns="http://www.w3.org/2000/svg" width="29.311" height="41.102" viewBox="0 0 29.311 41.102">
  <path id="Icon_metro-steps" data-name="Icon metro-steps" d="M14.593,3.856c-3.445,0-6.239,4.6-6.239,10.275,0,3.157.781,6.507,1.56,11.676.61,4.05,2.1,7.407,4.679,7.407s4.316-2.238,4.316-6.329c0-1.393-1.145-3.612-1.2-5.506C17.62,17.964,20,16.6,20,13.443c0-5.675-1.965-9.587-5.41-9.587ZM31.427,15.6c-3.445,0-5.41,3.912-5.41,9.587,0,3.157,2.383,4.52,2.29,7.936-.051,1.894-1.2,4.113-1.2,5.506,0,4.091,1.732,6.329,4.316,6.329S35.5,41.6,36.106,37.551c.779-5.17,1.56-8.519,1.56-11.676,0-5.675-2.793-10.275-6.239-10.275Z" transform="translate(-8.355 -3.856)" fill="#fff"/>
</svg>
