<svg xmlns="http://www.w3.org/2000/svg" width="17.604" height="27.722" viewBox="0 0 17.604 27.722">
  <path id="icons8_microphone" d="M17.927,0a6.017,6.017,0,0,0-6.1,5.943V6.1h4.158a.554.554,0,1,1,0,1.109H11.828V8.317h4.158a.554.554,0,1,1,0,1.109H11.828v1.109h4.158a.554.554,0,1,1,0,1.109H11.828v1.265a6.1,6.1,0,0,0,12.2,0V11.643H19.867a.554.554,0,0,1,0-1.109h4.158V9.426H19.867a.554.554,0,0,1,0-1.109h4.158V7.208H19.867a.554.554,0,0,1,0-1.109h4.158V5.943A6.017,6.017,0,0,0,17.927,0ZM9.506,9.495a.482.482,0,0,0-.381.485v2.772A8.833,8.833,0,0,0,16.263,21.4v3H19.59v-3a8.833,8.833,0,0,0,7.139-8.646V9.98a.485.485,0,1,0-.97,0v2.772a7.832,7.832,0,0,1-15.663,0V9.98a.484.484,0,0,0-.158-.364.478.478,0,0,0-.379-.121ZM12.659,25.5a1.927,1.927,0,0,0-1.923,1.923l-.017.295,14.346-.035.017-.26A1.927,1.927,0,0,0,23.159,25.5Z" transform="translate(-9.125)" fill="#94cc00"/>
</svg>
