<?xml version="1.0" encoding="utf-8"?>
<!-- Generator: Adobe Illustrator 25.4.1, SVG Export Plug-In . SVG Version: 6.00 Build 0)  -->
<svg version="1.1" id="options" xmlns="http://www.w3.org/2000/svg" xmlns:xlink="http://www.w3.org/1999/xlink" x="0px" y="0px"
	 viewBox="0 0 15.3 55.9" style="enable-background:new 0 0 15.3 55.9;" xml:space="preserve">
<style type="text/css">
	.st0{fill:url(#Options-2_00000031917168076576962250000006739807740647171221_);}
</style>
<g id="_1" transform="translate(0)">
	
		<linearGradient id="Options-2_00000120545639764739987540000007476900572544554685_" gradientUnits="userSpaceOnUse" x1="-269.5517" y1="441.8632" x2="-269.5517" y2="440.8632" gradientTransform="matrix(15.252 0 0 -55.93 4118.8306 24713.4082)">
		<stop  offset="0" style="stop-color:#32B0F2"/>
		<stop  offset="1" style="stop-color:#0012B5"/>
	</linearGradient>
	<path id="Options-2" style="fill:url(#Options-2_00000120545639764739987540000007476900572544554685_);" d="M7.6,0
		c4.7,0,8.4,4.3,7.5,9.2c-0.6,3-3,5.4-5.9,5.9C4.3,16.1,0,12.3,0,7.6c0,0,0,0,0,0C0,3.4,3.4,0,7.6,0z M4.6,20.9
		c5.8-2.2,11.2,2.4,10.6,8c-0.4,3.5-3.2,6.3-6.7,6.6C3.9,36.1,0,32.5,0,28l0,0C0,24.9,1.8,22,4.6,20.9z M7.6,40.7
		c4.7,0,8.4,4.3,7.5,9.2c-0.6,3-3,5.4-5.9,5.9C4.3,56.7,0,53,0,48.3c0,0,0,0,0,0C0,44.1,3.4,40.7,7.6,40.7L7.6,40.7z"/>
</g>
</svg>
