<svg xmlns="http://www.w3.org/2000/svg" width="28.1" height="28.227" viewBox="0 0 28.1 28.227">
  <path id="icons8_Defend_Family" d="M18.691,4a1.053,1.053,0,0,0-.414.1L4.6,10.412a1.053,1.053,0,1,0,.881,1.91l13.216-6.1L30.515,12.3a1.053,1.053,0,0,0,.963-1.872L19.2,4.116A1.053,1.053,0,0,0,18.691,4Zm-6.641,8.419a3.157,3.157,0,1,0,3.159,3.157A3.156,3.156,0,0,0,12.051,12.419Zm11.929,0a3.157,3.157,0,1,0,3.157,3.157A3.157,3.157,0,0,0,23.98,12.419Zm3.862,4.212a3.864,3.864,0,0,0,.877,2.627,3.856,3.856,0,0,0,2.626.876,3.864,3.864,0,0,0-.876-2.627A3.86,3.86,0,0,0,27.841,16.632Zm-9.825,2.8a2.1,2.1,0,1,0,2.1,2.1A2.1,2.1,0,0,0,18.016,19.435Zm-5.455.7H11.253a4.231,4.231,0,0,0-4.463,4.21v7.718a22.14,22.14,0,0,1,4.8-.7c.126-.006.25,0,.375,0V28.935A4.672,4.672,0,0,1,13.339,25.4a6.421,6.421,0,0,1,2.221-1.052,4.153,4.153,0,0,1-1.281-2.1,3.671,3.671,0,0,1,.229-1.754A5.1,5.1,0,0,0,12.56,20.136Zm12.219,0H23.5a5.959,5.959,0,0,0-1.973.351,3.523,3.523,0,0,1,.351,1.6,3.173,3.173,0,0,1-1.4,2.261,5.037,5.037,0,0,1,3.5,4.588l.007,2.442c.125,0,.25-.014.376-.014a30.184,30.184,0,0,1,4.873.828V24.43A4.288,4.288,0,0,0,24.78,20.136Zm-7.466,4.913a3.662,3.662,0,0,0-3.508,3.508v2.806c1.4,0,2.3.728,3.46.829.256.022.505.034.75.034s.5-.013.751-.036c1.163-.1,2.055-.828,3.459-.828V28.557a3.338,3.338,0,0,0-3.508-3.508Z" transform="translate(-3.949 -4)" fill="#55a2ff"/>
</svg>
