<svg xmlns="http://www.w3.org/2000/svg" width="24" height="24" viewBox="0 0 24 24">
  <path id="icons8_geography_1" d="M15,3A12,12,0,1,0,27,15,12.015,12.015,0,0,0,15,3Zm0,2a1.845,1.845,0,0,1,1.266.6,6.494,6.494,0,0,1,1.359,2.039A12.39,12.39,0,0,1,18.139,9H11.861a12.389,12.389,0,0,1,.514-1.365A6.494,6.494,0,0,1,13.734,5.6,1.845,1.845,0,0,1,15,5Zm-3.912.793a10.982,10.982,0,0,0-.533,1.016A15.216,15.216,0,0,0,9.773,9H7.006A9.994,9.994,0,0,1,11.088,5.793Zm7.824,0A9.994,9.994,0,0,1,22.994,9H20.227a15.226,15.226,0,0,0-.781-2.191A10.982,10.982,0,0,0,18.912,5.793ZM5.834,11h3.5a23.486,23.486,0,0,0-.307,3H5.049A9.952,9.952,0,0,1,5.834,11Zm5.529,0h7.273a21.367,21.367,0,0,1,.34,3H11.023A21.367,21.367,0,0,1,11.363,11Zm9.307,0h3.5a9.951,9.951,0,0,1,.785,3H20.977A23.493,23.493,0,0,0,20.67,11ZM5.049,16H9.023a23.486,23.486,0,0,0,.307,3h-3.5A9.952,9.952,0,0,1,5.049,16Zm5.975,0h7.953a21.367,21.367,0,0,1-.34,3H11.363A21.367,21.367,0,0,1,11.023,16Zm9.953,0h3.975a9.951,9.951,0,0,1-.785,3h-3.5A23.493,23.493,0,0,0,20.977,16ZM7.006,21H9.773a15.219,15.219,0,0,0,.781,2.191,10.975,10.975,0,0,0,.533,1.016A9.994,9.994,0,0,1,7.006,21Zm4.855,0h6.277a12.388,12.388,0,0,1-.514,1.365A6.494,6.494,0,0,1,16.266,24.4,1.844,1.844,0,0,1,15,25a1.844,1.844,0,0,1-1.266-.6,6.494,6.494,0,0,1-1.359-2.039A12.387,12.387,0,0,1,11.861,21Zm8.365,0h2.767a9.994,9.994,0,0,1-4.082,3.207,10.975,10.975,0,0,0,.533-1.016A15.229,15.229,0,0,0,20.227,21Z" transform="translate(-3 -3)" fill="#55a2ff"/>
</svg>
