<svg xmlns="http://www.w3.org/2000/svg" width="19.254" height="28.88" viewBox="0 0 19.254 28.88">
  <g id="icons8_question_mark_1" transform="translate(-16.999 -9)">
    <path id="Path_681" data-name="Path 681" d="M26.429,9c6.274,0,9.824,3.021,9.824,7.921,0,3.832-1.685,5.342-4.374,7.258-2.294,1.621-2.043,2.174-2.976,3.463A3.264,3.264,0,0,1,26.035,28.9c-1.327,0-2.94-.585-2.94-2.616,0-2.063,1.132-3.227,3.442-4.9,2.187-1.585,3.119-2.4,3.119-4.126,0-1.658-1.148-2.874-3.3-2.874a3.44,3.44,0,0,0-3.478,2.137,3.047,3.047,0,0,1-2.8,1.843A3.15,3.15,0,0,1,17,15.191C17,11.249,21.961,9,26.429,9ZM25.5,31.462h1a3.21,3.21,0,0,1,0,6.418h-1a3.21,3.21,0,0,1,0-6.418Z" transform="translate(0 0)" fill="#55a2ff"/>
  </g>
</svg>
