<?xml version="1.0" encoding="utf-8"?>
<!-- Generator: Adobe Illustrator 25.4.1, SVG Export Plug-In . SVG Version: 6.00 Build 0)  -->
<svg version="1.1" id="password" xmlns="http://www.w3.org/2000/svg" xmlns:xlink="http://www.w3.org/1999/xlink" x="0px" y="0px"
	 viewBox="0 0 25.5 28.1" style="enable-background:new 0 0 25.5 28.1;" xml:space="preserve">
<style type="text/css">
	.st0{fill:url(#SVGID_1_);}
</style>
<linearGradient id="SVGID_1_" gradientUnits="userSpaceOnUse" x1="12.75" y1="0.1287" x2="12.75" y2="28.0598">
	<stop  offset="0" style="stop-color:#32B0F2"/>
	<stop  offset="1" style="stop-color:#0012B5"/>
</linearGradient>
<path class="st0" d="M21.7,11.5h-1.3V7.6c-0.1-4.1-3.4-7.5-7.5-7.5C8.7,0.1,5.2,3.4,5.1,7.6v3.8H3.8c-2.1,0-3.8,1.7-3.8,3.8v8.9
	c0,2.1,1.7,3.8,3.8,3.8h17.8c2.1,0,3.8-1.7,3.8-3.8v-8.9C25.5,13.2,23.8,11.5,21.7,11.5z M7.7,7.6c0-2.8,2.3-5.1,5.1-5.1
	c2.8,0,5.1,2.3,5.1,5.1v3.8H7.7V7.6z M23,24.2c0,0.7-0.6,1.3-1.3,1.3H3.8c-0.7,0-1.3-0.6-1.3-1.3v-8.9c0-0.7,0.6-1.3,1.3-1.3h17.8
	c0.7,0,1.3,0.6,1.3,1.3V24.2z"/>
</svg>
