<?xml version="1.0" encoding="utf-8"?>
<!-- Generator: Adobe Illustrator 26.0.1, SVG Export Plug-In . SVG Version: 6.00 Build 0)  -->
<svg version="1.1" id="Layer_1" xmlns="http://www.w3.org/2000/svg" xmlns:xlink="http://www.w3.org/1999/xlink" x="0px" y="0px"
	 viewBox="0 0 120.1 115.9" style="enable-background:new 0 0 120.1 115.9;" xml:space="preserve">
<g>
	<path d="M3.9,92c0.5-1.9,0.9-3.9,1.4-5.8C8.7,71.6,12.1,57,15.4,42.5c2.7-11.7,5.5-23.5,8.2-35.2c0.5-2.2,1.5-4.1,3.8-4.9
		c1-0.4,2.1-0.5,3.2-0.5c11.3,0,22.6,0,33.9,0c4,0,7.9,0.3,11.9,1c4.1,0.8,8,2,11.6,4.1c3.2,1.8,5.7,4.5,7.7,7.6
		c1.5,2.4,2.3,5.1,2.7,7.9c0.8,5.8,0.5,11.5-1.5,17c-2.1,5.8-5.7,10.4-10.4,14.3c-5.7,4.8-12.3,7.8-19.5,9.6
		c-4.8,1.2-9.6,1.9-14.5,2.2c-3.9,0.2-7.8,0.2-11.7,0.3c-2.4,0-4.4,1.1-5.8,2.9c-0.5,0.6-0.8,1.5-1,2.3c-1,3.7-1.8,7.5-2.7,11.2
		c-0.8,3.2-1.6,6.4-2.3,9.6c-0.6,2.6-3.6,5-6.4,5.1c-4.8,0-9.5,0-14.3,0c-2.1,0-3.6-1.2-4.1-3.3c0-0.1-0.1-0.2-0.1-0.3
		C3.9,92.9,3.9,92.4,3.9,92z M48.1,47.7c4.4,0.1,8.8-0.4,12.9-2c2.9-1.1,5.5-2.8,7.5-5.1c3.2-3.7,4-8.2,3.3-12.9
		c-0.5-3.2-2.3-5.4-5.3-6.6c-1.3-0.5-2.6-0.9-4-1.2c-3.8-0.8-7.8-0.7-11.6-0.5c-3.4,0.1-5.4,1.8-6.2,5.1c-1.5,6.1-2.8,12.2-4.2,18.3
		c-0.6,2.5,0.9,4.7,3.4,5C45.2,47.8,46.7,47.7,48.1,47.7z"/>
	<path d="M116.2,46.9c-0.1,1.2-0.3,2.5-0.4,3.7c-1,7-4.2,12.9-9.2,17.8c-5.4,5.4-11.9,9-19.2,11.2c-4.6,1.4-9.4,2.3-14.2,2.8
		c-5,0.5-10,0.7-15,0.5c-2.8-0.1-6.6,2.5-7.3,5.8c-1.4,6.6-3,13.1-4.5,19.7c-0.2,1-0.7,2-1.2,2.9c-1.1,1.8-2.8,2.7-4.9,2.8
		c-3,0.1-6,0-9.1,0c-1.9,0-3.8,0-5.7,0c-2.9-0.1-4.8-2.5-4.1-5.3c0.2-0.9,0.5-1.8,0.7-2.8c0.1-0.4,0.2-0.5,0.6-0.5
		c2.7,0,5.3-0.1,8,0c3.2,0.2,6.7-3.1,7.3-5.8c1.4-6.6,3-13.2,4.5-19.7c0.4-1.8,1.1-3.4,2.7-4.5c1.1-0.7,2.3-1.1,3.6-1.1
		c2.9-0.1,5.9,0,8.8-0.1c8.2-0.3,16.2-1.4,23.9-4.2c6.4-2.3,12.2-5.7,16.9-10.7c4.8-5,7.9-10.9,8.8-17.8c0.7-5.2,0.5-10.4-1.5-15.4
		c-0.3-0.7-0.6-1.4-0.9-2.2c0.9,0.6,1.9,1.1,2.7,1.7c4.6,3.4,7.2,8,8.1,13.6c0.2,1.3,0.3,2.6,0.5,3.9
		C116.2,44.4,116.2,45.7,116.2,46.9z"/>
</g>
</svg>
