<svg xmlns="http://www.w3.org/2000/svg" width="19.409" height="20.881" viewBox="0 0 19.409 20.881">
  <g id="icons8_time" transform="translate(-2)" fill="none">
    <path d="M8.394,1V2.8h5.394V1Zm8.954,1.612L16.186,3.983l2.652,2.248L20,4.86ZM11.092,3.7a8.092,8.092,0,1,0,8.092,8.092A8.1,8.1,0,0,0,11.092,3.7Zm-.9,2.7h1.8v6.294h-1.8Z" stroke="none"/>
    <path d="M 8.394479751586914 0.9999980926513672 L 8.394479751586914 2.798158645629883 L 13.78896999359131 2.798158645629883 L 13.78896999359131 0.9999980926513672 L 8.394479751586914 0.9999980926513672 M 17.34843063354492 2.612028121948242 L 16.18592071533203 3.983478546142578 L 18.83749008178711 6.231178283691406 L 20 4.85972785949707 L 17.34843063354492 2.612028121948242 M 11.09173011779785 3.697238922119141 C 6.630489349365234 3.697238922119141 3 7.327728271484375 3 11.78896903991699 C 3 16.25020980834961 6.630489349365234 19.88069915771484 11.09173011779785 19.88069915771484 C 15.55296993255615 19.88069915771484 19.18345069885254 16.25020980834961 19.18345069885254 11.78896903991699 C 19.18345069885254 7.327728271484375 15.55296993255615 3.697238922119141 11.09173011779785 3.697238922119141 M 11.99081039428711 12.68804836273193 L 10.19264984130859 12.68804836273193 L 10.19264984130859 6.394488334655762 L 11.99081039428711 6.394488334655762 L 11.99081039428711 12.68804836273193 M 7.394479751586914 -1.9073486328125e-06 L 14.78896999359131 -1.9073486328125e-06 L 14.78896999359131 3.48322868347168 C 14.91170692443848 3.538076400756836 15.0330696105957 3.595598220825195 15.15287399291992 3.655660629272461 L 17.23223114013672 1.202579498291016 L 21.40942001342773 4.743528366088867 L 19.09358406066895 7.475589752197266 C 19.78862953186035 8.759784698486328 20.18345069885254 10.22907543182373 20.18345069885254 11.78896903991699 C 20.18345069885254 16.80216979980469 16.10491943359375 20.88069915771484 11.09173011779785 20.88069915771484 C 6.078529357910156 20.88069915771484 2 16.80216979980469 2 11.78896903991699 C 2 8.091488838195801 4.21856689453125 4.90247917175293 7.394479751586914 3.48322868347168 L 7.394479751586914 -1.9073486328125e-06 Z" stroke="none" fill="#5581c4"/>
  </g>
</svg>
