<svg xmlns="http://www.w3.org/2000/svg" width="10.55" height="10.55" viewBox="0 0 10.55 10.55">
  <path id="phone-call" d="M5.746.439A.44.44,0,0,1,6.186,0a4.408,4.408,0,0,1,4.4,4.4.44.44,0,0,1-.881,0A3.526,3.526,0,0,0,6.186.88a.44.44,0,0,1-.44-.44Zm.44,2.2A1.761,1.761,0,0,1,7.947,4.4a.44.44,0,0,0,.881,0A2.644,2.644,0,0,0,6.186,1.76a.44.44,0,0,0,0,.881Zm4,4.728a1.365,1.365,0,0,1,0,1.928l-.4.462C6.183,13.211-2.592,4.438.807.821L1.313.38A1.357,1.357,0,0,1,3.218.4c.014.014.83,1.073.83,1.073a1.365,1.365,0,0,1,0,1.885L3.535,4A5.627,5.627,0,0,0,6.587,7.056l.645-.513a1.365,1.365,0,0,1,1.885,0S10.176,7.356,10.19,7.369Zm-.606.64S8.53,7.2,8.517,7.185a.484.484,0,0,0-.682,0c-.012.012-.9.72-.9.72a.44.44,0,0,1-.431.067A6.608,6.608,0,0,1,2.62,4.094a.44.44,0,0,1,.064-.44s.708-.889.719-.9a.484.484,0,0,0,0-.682C3.389,2.058,2.579,1,2.579,1a.484.484,0,0,0-.665.017l-.506.44c-2.484,2.987,5.12,10.17,7.738,7.7l.4-.462A.494.494,0,0,0,9.584,8.01Z" transform="translate(-0.039 0.002)" fill="#12b2aa"/>
</svg>
