<svg xmlns="http://www.w3.org/2000/svg" width="22" height="21.13" viewBox="0 0 22 21.13">
  <g id="icons8_pills" transform="translate(-1 -2)" fill="none">
    <path d="M6.782,3A4.8,4.8,0,0,0,2,7.8c0,.2,0,2.482,0,4.763,0,2.3,0,4.6,0,4.763a4.78,4.78,0,0,0,8.321,3.233,7.123,7.123,0,0,1-1.008-8H2.87c0-2.129,0-4.577,0-4.764A3.928,3.928,0,0,1,6.783,3.87,3.877,3.877,0,0,1,9.548,5.021,3.918,3.918,0,0,1,10.7,7.8v2.891a7.239,7.239,0,0,1,.87-.722V7.8A4.793,4.793,0,0,0,6.782,3ZM15.7,9.522a6.3,6.3,0,1,0,6.3,6.3A6.312,6.312,0,0,0,15.7,9.522Zm3.261,2.609a.435.435,0,0,1,.307.742l-6.522,6.522a.435.435,0,1,1-.615-.615l6.522-6.522A.433.433,0,0,1,18.957,12.13Z" stroke="none"/>
    <path d="M 6.781740188598633 2.999996185302734 C 4.145671844482422 3.000436782836914 2.000431060791016 5.154747009277344 2.000001907348633 7.802127838134766 C 2.000431060791016 8.002126693725586 2.000850677490234 10.28391742706299 2.000850677490234 12.56521701812744 C 2.000850677490234 14.865647315979 2.000431060791016 17.16482734680176 2.000001907348633 17.32830810546875 C 2.000431060791016 18.61090660095215 2.498130798339844 19.81681632995605 3.400300979614258 20.72334671020508 C 4.303781509399414 21.6307373046875 5.504781723022461 22.13043785095215 6.782611846923828 22.13043785095215 C 8.14043140411377 22.13043785095215 9.425520896911621 21.54069709777832 10.32117080688477 20.56112670898438 C 9.205090522766113 19.29634666442871 8.521740913391113 17.64129638671875 8.521740913391113 15.82608699798584 C 8.521740913391113 14.65130710601807 8.810561180114746 13.54477691650391 9.31317138671875 12.56521701812744 L 2.869560241699219 12.56521701812744 C 2.869560241699219 10.43608665466309 2.870000839233398 7.987827301025391 2.869560241699219 7.801307678222656 C 2.870000839233398 5.63389778137207 4.625221252441406 3.869997024536133 6.782611846923828 3.86956787109375 C 7.827390670776367 3.86956787109375 8.809691429138184 4.278886795043945 9.548391342163086 5.02105712890625 C 10.28752136230469 5.763666152954102 10.69522094726562 6.75086784362793 10.69565105438232 7.801307678222656 L 10.69565105438232 10.69191741943359 C 10.96565055847168 10.42886734008789 11.25696086883545 10.18838691711426 11.56522083282471 9.970127105712891 L 11.56522083282471 7.802127838134766 C 11.56478118896484 6.519956588745117 11.06752109527588 5.313617706298828 10.1649112701416 4.407096862792969 C 9.261871337890625 3.499706268310547 8.060001373291016 2.999996185302734 6.781740188598633 2.999996185302734 M 15.69565105438232 9.521737098693848 C 12.21956062316895 9.521737098693848 9.391301155090332 12.34999656677246 9.391301155090332 15.82608699798584 C 9.391301155090332 19.30216598510742 12.21956062316895 22.13043785095215 15.69565105438232 22.13043785095215 C 19.1717414855957 22.13043785095215 22 19.30216598510742 22 15.82608699798584 C 22 12.34999656677246 19.1717414855957 9.521737098693848 15.69565105438232 9.521737098693848 M 12.43478107452393 19.52173614501953 C 12.3234806060791 19.52173614501953 12.21217060089111 19.4791259765625 12.12739086151123 19.39434814453125 C 11.95739078521729 19.22434616088867 11.95739078521729 18.94955635070801 12.12739086151123 18.77955627441406 L 18.64913177490234 12.25782680511475 C 18.81913757324219 12.08781909942627 19.09391784667969 12.08783435821533 19.2639102935791 12.25782680511475 C 19.43391036987305 12.42782688140869 19.43391036987305 12.70260715484619 19.2639102935791 12.87260723114014 L 12.74217128753662 19.39434814453125 C 12.65739059448242 19.4791259765625 12.54609107971191 19.52173614501953 12.43478107452393 19.52173614501953 M 6.781570434570312 1.999996185302734 L 6.781740188598633 1.999996185302734 C 8.328400611877441 1.999996185302734 9.781620979309082 2.604337692260742 10.87371063232422 3.701686859130859 C 11.96391105651855 4.796607971191406 12.56469058990479 6.252777099609375 12.56522083282471 7.801786422729492 L 12.56522083282471 9.227066993713379 C 13.51444911956787 8.774997711181641 14.5761547088623 8.521736145019531 15.69565105438232 8.521736145019531 C 19.72328186035156 8.521736145019531 23 11.79845714569092 23 15.82608699798584 C 23 19.85371780395508 19.72328186035156 23.13043785095215 15.69565105438232 23.13043785095215 C 13.88021850585938 23.13043785095215 12.21712684631348 22.46451187133789 10.93812847137451 21.36435317993164 C 9.845664024353027 22.48885345458984 8.341155052185059 23.13043785095215 6.782611846923828 23.13043785095215 C 5.237030029296875 23.13043785095215 3.784181594848633 22.52615737915039 2.691671371459961 21.42892646789551 C 1.601240158081055 20.33322715759277 1.000520706176758 18.87710762023926 1.000001907348633 17.32864761352539 C 1.00044059753418 17.16024780273438 1.000850677490234 14.84674739837646 1.000850677490234 12.56521701812744 C 1.000850677490234 10.3206672668457 1.00044059753418 8.006937026977539 1.000001907348633 7.804277420043945 C 1.000520706176758 4.603277206420898 3.594120025634766 2.000526428222656 6.781570434570312 1.999996185302734 Z M 9.695651054382324 11.56521701812744 L 9.695651054382324 7.801307678222656 C 9.695330619812012 7.017787933349609 9.391321182250977 6.280797958374023 8.839620590209961 5.726497650146484 C 8.289610862731934 5.173896789550781 7.559080123901367 4.86956787109375 6.782611846923828 4.86956787109375 C 5.17677116394043 4.86988639831543 3.869890213012695 6.185146331787109 3.869560241699219 7.801507949829102 C 3.869840621948242 7.917007446289062 3.869760513305664 8.940227508544922 3.869670867919922 10.21552658081055 L 3.869607925415039 11.56521701812744 L 9.695651054382324 11.56521701812744 Z" stroke="none" fill="#5581c4"/>
  </g>
</svg>
