<svg xmlns="http://www.w3.org/2000/svg" width="109.01" height="95.106" viewBox="0 0 109.01 95.106">
  <g id="Prescrip-" transform="translate(0.15 -0.035)">
    <path id="Path_3854" data-name="Path 3854" d="M86.061,49.538c-1.006.251-1.874.48-2.972.754V2.747H31.04V9.765c0,1.189-.069,2.354-.046,3.543.046,1.1-.48,1.532-1.486,1.532H27.383c.3,1.829.549,3.5.846,5.372h1.463l44.254.069c.3,0,.686-.114.891.023.411.3.983.731.983,1.1a1.43,1.43,0,0,1-1.006,1.029c-1.966.114-3.954.069-5.943.069q-19.818.034-39.659.046c-1.029,0-1.6.206-1.783,1.326a20.161,20.161,0,0,1-.846,2.7h1.554q23.11,0,46.2.023c.869,0,1.577.137,1.577,1.166,0,.937-.663,1.12-1.509,1.12-15.544-.023-31.087.023-46.654-.046-1.76,0-3.086.183-4.3,1.623a13.692,13.692,0,0,1-3.314,2.4,1.4,1.4,0,0,0-.823,1.3q.034,25.613.023,51.226c0,.251.046.526.069.914h1.486c10.675,0,21.35.069,32-.069,1.989-.023,2.972.869,3.886,2.514-.48.023-.869.069-1.28.069q-18.412.034-36.8.046c-1.646,0-2.469-.869-2.469-2.56V34.246c-.96.069-1.783.137-2.7.229V92.421h1.463q29.9.034,59.8.046c.571,0,1.143.023,1.714.023a1.24,1.24,0,0,1,1.372,1.234c.046.823-.549,1.234-1.326,1.257-2.332.069-4.64.16-6.972.16-8.732-.023-17.441-.114-26.173-.137-10.126-.023-20.275,0-30.4,0a2.255,2.255,0,0,1-2.56-2.583q0-28.527.023-57.055a1.61,1.61,0,0,0-1.28-1.852C1.782,31-2.036,22.314.776,14.542A13.984,13.984,0,0,1,20.114,6.679,1.084,1.084,0,0,0,21.6,6.45c1.92-1.966,3.909-3.863,5.806-5.829C28.092-.11,28.869.05,29.669.05Q37.727.084,45.784.1H83.272c2.034,0,2.789.754,2.789,2.834V49.538ZM26.514,19.777c.571-6.652-6.24-15.247-15.932-12.641A12.832,12.832,0,0,0,1.37,19.274C1.347,25.126,4.2,29.88,9.1,31.892,18.994,35.938,27.109,27.251,26.514,19.777Zm1.577-7.84v-8C26.332,5.6,24.777,7.09,23.2,8.6a13.764,13.764,0,0,1,1.806,2.172C25.737,12.1,26.766,12.256,28.092,11.936Z" transform="translate(0 0)" fill="#94cc00"/>
    <path id="Path_3855" data-name="Path 3855" d="M258.39,325.463c-4,0-8-.114-12,.023-4.64.183-7.658-3.132-8.526-6.926a10.651,10.651,0,0,1,1.486-8.755,7.475,7.475,0,0,1,6.286-3.543c8.229-.023,16.458.091,24.664-.069a8.458,8.458,0,0,1,8.618,6.972c.777,3.749.251,7.292-2.652,10.126a7.186,7.186,0,0,1-5.349,2.149C266.756,325.44,262.573,325.44,258.39,325.463Zm-2.149-2.149V308.822c-3.795,0-7.52-.023-11.223.023a3.714,3.714,0,0,0-1.806.663,7.682,7.682,0,0,0-3.223,8.389c.64,2.88,2.857,5.3,5.326,5.395C248.9,323.406,252.538,323.315,256.241,323.315Z" transform="translate(-183.347 -236.174)" fill="#94cc00"/>
    <path id="Path_3856" data-name="Path 3856" d="M354.459,258.794c5.44-5.9,3.726-15.818-3.452-18.767,2.583-1.646,5.1-3.223,7.7-4.869-.8-1.28-1.509-2.492-2.24-3.68-.937-1.509-1.966-2.994-2.857-4.549-2.263-3.932-6.972-4-10.149-1.806a7,7,0,0,0-3.406,6.446,8.08,8.08,0,0,0,1.029,3.086c.891,1.669,1.943,3.246,2.949,4.892-1.943.48-2.194.389-3.177-1.189-.526-.846-.983-1.714-1.577-2.514-2.674-3.566-1.509-8.183,1.143-10.949a10.462,10.462,0,0,1,11.269-2.834,6.6,6.6,0,0,1,3.383,2.766c4.366,7.018,8.64,14.1,13.166,21.007a8.847,8.847,0,0,1-.777,10.263A10.311,10.311,0,0,1,354.459,258.794Z" transform="translate(-260.672 -170.785)" fill="#94cc00"/>
    <path id="Path_3857" data-name="Path 3857" d="M115.223,268.447c1.966-2.857,3.772-5.463,5.577-8.046-1.12-1.966-2.217-3.863-3.292-5.76a2.661,2.661,0,0,0-3.086-1.326v6.56a1.681,1.681,0,0,1-.411.137c-3.223.137-3.246.137-3.246-3.086-.023-4.389,0-8.755,0-13.235a6.555,6.555,0,0,1,.891-.091c2.172.046,4.343.069,6.515.183a9.2,9.2,0,0,1,2.332.48,3.955,3.955,0,0,1,.206,7.475c-.206.091-.411.183-.709.343,1.12,1.829,2.194,3.589,3.383,5.509,1.029-1.76,2.034-3.36,2.949-5.006a1.353,1.353,0,0,1,1.44-.823c.983.069,1.966.023,3.223.023-1.9,2.812-3.68,5.417-5.463,8.069,1.989,2.812,3.955,5.577,6.08,8.595-1.6,0-2.9.046-4.206-.023-.274-.023-.594-.411-.777-.709-1.1-1.737-2.149-3.474-3.36-5.417-1.006,1.646-1.989,3.086-2.789,4.617a2.441,2.441,0,0,1-2.789,1.554A17.183,17.183,0,0,0,115.223,268.447Zm-.754-22.173v4.435h2.149a4.73,4.73,0,0,0,.8-.069,2.206,2.206,0,0,0,2.034-2.309,2.072,2.072,0,0,0-2.172-2.034C116.366,246.229,115.452,246.274,114.469,246.274Z" transform="translate(-85.554 -187.89)" fill="#94cc00"/>
    <path id="Path_3858" data-name="Path 3858" d="M135.819,146.176H159.8c.8,0,1.394.229,1.394,1.1,0,.846-.549,1.189-1.372,1.143H112.092c-.274,0-.617.091-.777-.023-.366-.3-.914-.709-.914-1.074s.526-.777.891-1.074c.16-.137.526-.046.777-.046q11.863-.034,23.75-.023Z" transform="translate(-85.28 -112.73)" fill="#94cc00"/>
    <path id="Path_3859" data-name="Path 3859" d="M128.742,175.663q-8.675,0-17.372-.023a1.889,1.889,0,0,1-1.394-.48,1.052,1.052,0,0,1,.937-1.646c2.446-.069,4.869-.114,7.315-.114q12.618,0,25.236.023c1.074,0,2.126.114,3.2.137.686.023,1.051.457.914,1.006a1.582,1.582,0,0,1-.937,1.006,22.706,22.706,0,0,1-3.314.137H128.7C128.742,175.709,128.742,175.686,128.742,175.663Z" transform="translate(-84.787 -133.736)" fill="#94cc00"/>
    <path id="Path_3860" data-name="Path 3860" d="M125.83,200.4H140c.8,0,1.44.069,1.44,1.12s-.617,1.143-1.44,1.143H111.315c-.731,0-1.28-.114-1.326-1.006-.046-.96.411-1.234,1.3-1.234,4.869,0,9.692,0,14.538-.023Z" transform="translate(-84.961 -154.565)" fill="#94cc00"/>
    <path id="Path_3861" data-name="Path 3861" d="M122.984,228.074c-3.886,0-7.772-.023-11.658.023-.96.023-1.326-.366-1.326-1.234,0-.846.389-1.189,1.28-1.166q11.761.034,23.521,0c.891,0,1.28.343,1.257,1.189,0,.869-.366,1.257-1.326,1.234C130.824,228.051,126.892,228.074,122.984,228.074Z" transform="translate(-84.971 -174.078)" fill="#94cc00"/>
    <path id="Path_3862" data-name="Path 3862" d="M42.909,58.4v3.749H36.783v6.195H33.126V62.2H27V58.472h6.126V52.3h3.612v6.08C38.795,58.4,40.784,58.4,42.909,58.4Z" transform="translate(-20.944 -40.318)" fill="#94cc00"/>
  </g>
</svg>
