<svg id="Component_1_2" data-name="Component 1 – 2" xmlns="http://www.w3.org/2000/svg" width="39.654" height="52.872" viewBox="0 0 39.654 52.872">
  <path id="Icon_awesome-prescription-bottle" data-name="Icon awesome-prescription-bottle" d="M3.3,19.827H15.7a.829.829,0,0,1,.826.826v1.652a.829.829,0,0,1-.826.826H3.3v6.609H15.7a.829.829,0,0,1,.826.826v1.652a.829.829,0,0,1-.826.826H3.3v6.609H15.7a.829.829,0,0,1,.826.826v1.652a.829.829,0,0,1-.826.826H3.3v6.609a3.314,3.314,0,0,0,3.3,3.3H33.045a3.314,3.314,0,0,0,3.3-3.3V13.218H3.3ZM37.176,0H2.478A2.486,2.486,0,0,0,0,2.478V7.435A2.486,2.486,0,0,0,2.478,9.914h34.7a2.486,2.486,0,0,0,2.478-2.478V2.478A2.486,2.486,0,0,0,37.176,0Z" fill="#55a2ff"/>
</svg>
