<svg xmlns="http://www.w3.org/2000/svg" width="17.728" height="23.636" viewBox="0 0 17.728 23.636">
  <path id="Icon_awesome-prescription-bottle" data-name="Icon awesome-prescription-bottle" d="M1.477,8.864h5.54a.37.37,0,0,1,.369.369v.739a.37.37,0,0,1-.369.369H1.477V13.3h5.54a.37.37,0,0,1,.369.369V14.4a.37.37,0,0,1-.369.369H1.477v2.955h5.54a.37.37,0,0,1,.369.369v.739a.37.37,0,0,1-.369.369H1.477v2.955a1.482,1.482,0,0,0,1.477,1.477H14.773a1.482,1.482,0,0,0,1.477-1.477V5.909H1.477ZM16.62,0H1.108A1.111,1.111,0,0,0,0,1.108V3.324A1.111,1.111,0,0,0,1.108,4.432H16.62a1.111,1.111,0,0,0,1.108-1.108V1.108A1.111,1.111,0,0,0,16.62,0Z" fill="#bbcde7"/>
</svg>
