<svg xmlns="http://www.w3.org/2000/svg" width="19.935" height="31.917"><defs><linearGradient id="a" x1=".5" x2=".5" y2="1" gradientUnits="objectBoundingBox"><stop offset="0" stop-color="#32b0f2"/><stop offset="1" stop-color="#0012b5"/></linearGradient></defs><path d="M20.507 11.055a6.921 6.921 0 0 1-1.035 3.686 7.712 7.712 0 0 1-3.05 2.76 10.984 10.984 0 0 1-4.775 1.18v2.941H9.323v-2.978a10.832 10.832 0 0 1-6.209-2.306 7.085 7.085 0 0 1-2.506-5.392h6.609a2.976 2.976 0 0 0 2.106 2.8V8A36.065 36.065 0 0 1 4.8 6.589a7.547 7.547 0 0 1-2.957-2.215A6.326 6.326 0 0 1 .572.2a6.5 6.5 0 0 1 2.451-5.3 10.832 10.832 0 0 1 6.3-2.251V-10.3h2.324v2.941a10.1 10.1 0 0 1 6.028 2.219A7.479 7.479 0 0 1 20.144.2H13.5a2.767 2.767 0 0 0-1.852-2.542v5.626a47.108 47.108 0 0 1 4.648 1.489 7.516 7.516 0 0 1 2.923 2.161 6.134 6.134 0 0 1 1.288 4.121zM7.144-.093a2.179 2.179 0 0 0 .563 1.525 4.83 4.83 0 0 0 1.616 1.09v-5.047a2.853 2.853 0 0 0-1.6.781 2.273 2.273 0 0 0-.579 1.651zm4.5 13.944a2.913 2.913 0 0 0 1.725-.871 2.425 2.425 0 0 0 .635-1.707 2.089 2.089 0 0 0-.6-1.543 4.9 4.9 0 0 0-1.761-1.035z" transform="translate(-.572 10.296)" fill="url(#a)"/></svg>