<svg xmlns="http://www.w3.org/2000/svg" width="28" height="31.599" viewBox="0 0 28 31.599">
  <path id="privacy" d="M26.42,13.995a7.725,7.725,0,0,1-.614-2.817A9.111,9.111,0,0,1,27.3,6.689L28,5.633,22.207,0,21.066.88A5.368,5.368,0,0,1,17.818,2.2h-.527a5.519,5.519,0,0,1-2.633-.616l-.7-.352-.79.352A5.975,5.975,0,0,1,9.918,2.2,5.577,5.577,0,0,1,6.846.968L5.705.176,0,5.721.614,6.777a10.811,10.811,0,0,1,1.4,4.4A7.274,7.274,0,0,1,1.4,13.907a21.282,21.282,0,0,0-.7,2.2A5.138,5.138,0,0,0,.439,17.78v.088a8.1,8.1,0,0,0,1.668,5.105,15.973,15.973,0,0,0,3.95,3.345v.088h.088a25.982,25.982,0,0,0,4.3,1.76l.7.264.527.264.176.088a1.181,1.181,0,0,1,.614.528L13.781,31.6l1.4-2.2a2.368,2.368,0,0,1,.7-.616,10.284,10.284,0,0,0,.966-.44l.614-.264h.088a1.921,1.921,0,0,1,.7-.264c.351-.176.79-.264,1.141-.44a9.7,9.7,0,0,0,2.37-1.056h.088a16.8,16.8,0,0,0,3.774-3.257v-.088a8.615,8.615,0,0,0,1.755-5.193v-.088a14.384,14.384,0,0,0-.966-3.7Zm-3.16,7.13a22.87,22.87,0,0,1-3.16,2.641,10.444,10.444,0,0,1-1.755.7,7.709,7.709,0,0,1-1.317.44c-.351.176-.7.264-.878.352l-.527.264a10.284,10.284,0,0,0-.966.44h-.088l-.088.088a1.836,1.836,0,0,0-.527.352,1.836,1.836,0,0,1-.527-.352h-.176l-.263-.088a1.245,1.245,0,0,0-.527-.176l-.966-.44h-.176a15.64,15.64,0,0,1-3.774-1.584,14.388,14.388,0,0,1-3.072-2.553,5.032,5.032,0,0,1-1.053-3.081c.088-.352.088-.7.176-1.056a16.458,16.458,0,0,1,.614-1.936A10.4,10.4,0,0,0,5,11.09,12.7,12.7,0,0,0,3.774,6.425L5.881,4.4a12.571,12.571,0,0,0,3.774.968,10.025,10.025,0,0,0,4.213-.616,9.827,9.827,0,0,0,4.213.616,8.337,8.337,0,0,0,3.862-1.232l2.019,2.024a12.806,12.806,0,0,0-1.317,4.753,9.652,9.652,0,0,0,.79,4.137,18.292,18.292,0,0,1,.878,2.9,5.7,5.7,0,0,1-1.053,3.169Z" fill="#55a2ff"/>
</svg>
