<svg xmlns="http://www.w3.org/2000/svg" width="68.537" height="100.43" viewBox="0 0 68.537 100.43">
  <g id="_0484" data-name="0484" transform="translate(0 0.001)">
    <path id="Path_3784" data-name="Path 3784" d="M16.278,9.085c-.06-1.494.339-1.953,1.713-1.953,2.65-.02,5.32-.02,7.969,0,.6,0,.857-.12.956-.777a7.432,7.432,0,0,1,14.7-.02c.1.638.319.817.936.817,2.59-.02,5.18-.02,7.77-.02,1.594,0,1.952.359,1.992,1.972h1.275c2.73,0,5.439-.02,8.169,0a6.688,6.688,0,0,1,6.774,6.854V93.54a6.681,6.681,0,0,1-6.774,6.874q-27.494.03-54.969,0A6.668,6.668,0,0,1,0,93.56V15.879A6.68,6.68,0,0,1,6.654,9.1c2.69-.04,5.379-.02,8.069-.02Zm34.906,4.881c-.418,1.992-.817,3.945-1.215,5.877-.259,1.315-.638,1.634-1.933,1.634H20.442c-1.2,0-1.594-.339-1.853-1.514-.359-1.693-.737-3.367-1.016-5.08-.12-.737-.379-.976-1.156-.956-2.989.04-5.977.02-8.966.02-1.933,0-2.57.618-2.57,2.55V92.584c0,.4-.02.8.02,1.2a1.772,1.772,0,0,0,1.554,1.693,6.962,6.962,0,0,0,1.3.08H60.328c2.989,0,3.307-.319,3.307-3.327V17.632c0-.6.02-1.2-.02-1.793a1.837,1.837,0,0,0-1.833-1.873C58.3,13.946,54.77,13.966,51.183,13.966ZM36.619,5.937a2.351,2.351,0,0,0-4.7,0,2.441,2.441,0,0,0,2.411,2.391A2.4,2.4,0,0,0,36.619,5.937Z" transform="translate(0 0)" fill="#00b3cd"/>
    <path id="Path_3785" data-name="Path 3785" d="M112.8,148.294a11.785,11.785,0,1,1,11.715,11.815A11.785,11.785,0,0,1,112.8,148.294Zm19.9,2.471v-4.9h-5.7V140.2h-4.861v5.758h-5.638v4.821h5.7v5.678h4.821v-5.678C128.958,150.764,130.791,150.764,132.7,150.764Z" transform="translate(-90.326 -109.304)" fill="#00b3cd"/>
    <path id="Path_3786" data-name="Path 3786" d="M85.442,419.921H66.415a2.181,2.181,0,0,1-2.212-1.215,2.721,2.721,0,0,1,.159-2.749A2.115,2.115,0,0,1,66.316,415c2.49.02,4.981,0,7.471,0H104.35a2.348,2.348,0,0,1,2.59,2.67,2.229,2.229,0,0,1-2.49,2.231Q94.946,419.931,85.442,419.921Z" transform="translate(-51.174 -332.318)" fill="#00b3cd"/>
    <path id="Path_3787" data-name="Path 3787" d="M85.517,359.381H66.59A2.272,2.272,0,0,1,64,356.951a2.31,2.31,0,0,1,2.61-2.451h37.835a2.327,2.327,0,0,1,2.59,2.57,2.212,2.212,0,0,1-2.391,2.331C98.268,359.4,91.893,359.381,85.517,359.381Z" transform="translate(-51.249 -283.872)" fill="#00b3cd"/>
    <path id="Path_3788" data-name="Path 3788" d="M85.595,293.838c6.316,0,12.612.06,18.927-.04a2.505,2.505,0,0,1,2.291,3.546,1.993,1.993,0,0,1-1.893,1.355h-1.2q-18.559,0-37.137.02a2.23,2.23,0,0,1-2.271-1.1,2.717,2.717,0,0,1,.06-2.749,2.164,2.164,0,0,1,2.112-1.036Z" transform="translate(-51.227 -235.263)" fill="#00b3cd"/>
  </g>
</svg>
