<svg xmlns="http://www.w3.org/2000/svg" viewBox="0 0 97.67 99.8"><defs><style>.cls-1{fill:#1b354b;}</style></defs><g id="Layer_2" data-name="Layer 2"><g id="_1" data-name="1"><g id="services"><g id="Group_661" data-name="Group 661"><g id="Path_773" data-name="Path 773"><path id="Path_1144" data-name="Path 1144" class="cls-1" d="M44.93,0a2.26,2.26,0,0,0-2,1.81l-1.13,5.6a21.21,21.21,0,0,0-2.56,1.06L34.44,5.31a2.26,2.26,0,0,0-2.84.32C29.88,7.35,28,9.07,26.21,10.87a2.26,2.26,0,0,0-.28,2.87l3.22,4.79a21.64,21.64,0,0,0-1.06,2.59l-5.71,1.24a2.27,2.27,0,0,0-1.81,2.23V32a2.29,2.29,0,0,0,1.81,2.2l5.71,1.24A22.34,22.34,0,0,0,29.15,38l-3.22,4.82a2.27,2.27,0,0,0,.28,2.84c1.8,1.8,3.67,3.53,5.39,5.25a2.29,2.29,0,0,0,2.84.32l4.82-3.12a23.62,23.62,0,0,0,2.55,1.06l1.1,5.57a2.28,2.28,0,0,0,2.24,1.84h7.51a2.27,2.27,0,0,0,2.24-1.85L56,49.2a21.83,21.83,0,0,0,2.55-1.07l4.82,3.12a2.27,2.27,0,0,0,2.84-.31c1.72-1.72,3.59-3.45,5.39-5.25a2.27,2.27,0,0,0,.28-2.84L68.66,38a24.26,24.26,0,0,0,1.06-2.59l5.71-1.24A2.29,2.29,0,0,0,77.24,32V24.61a2.28,2.28,0,0,0-1.81-2.24l-5.71-1.24a24.1,24.1,0,0,0-1.06-2.58l3.21-4.78a2.27,2.27,0,0,0-.28-2.87c-1.8-1.8-3.67-3.53-5.39-5.25a2.27,2.27,0,0,0-2.83-.33L58.58,8.49A21.83,21.83,0,0,0,56,7.42L54.9,1.82A2.26,2.26,0,0,0,52.66,0H44.94ZM47,4.54h3.75l1,4.89a2.27,2.27,0,0,0,1.67,1.73A17.33,17.33,0,0,1,57.67,13a2.27,2.27,0,0,0,2.38-.07l4.26-2.77c.92.9,1.83,1.75,2.73,2.62L64.2,17a2.25,2.25,0,0,0-.1,2.37,18.43,18.43,0,0,1,1.8,4.33,2.27,2.27,0,0,0,1.7,1.63l5.07,1.06v3.76l-5.07,1.1a2.27,2.27,0,0,0-1.7,1.63,18.15,18.15,0,0,1-1.8,4.29,2.26,2.26,0,0,0,.1,2.41L67,43.81c-.89.88-1.77,1.77-2.69,2.66l-4.25-2.8a2.27,2.27,0,0,0-2.38,0,16.84,16.84,0,0,1-4.25,1.77,2.28,2.28,0,0,0-1.67,1.74l-1,4.93H47l-1-4.93a2.28,2.28,0,0,0-1.66-1.74,16.76,16.76,0,0,1-4.26-1.77,2.25,2.25,0,0,0-2.37,0l-4.26,2.8c-.91-.9-1.79-1.79-2.69-2.66l2.8-4.22a2.26,2.26,0,0,0,.11-2.41,18,18,0,0,1-1.81-4.29,2.29,2.29,0,0,0-1.69-1.63l-5.07-1.1V26.41l5.07-1.07a2.28,2.28,0,0,0,1.69-1.63,18,18,0,0,1,1.81-4.32A2.29,2.29,0,0,0,33.58,17l-2.83-4.25c.89-.87,1.81-1.73,2.73-2.62l4.25,2.76A2.25,2.25,0,0,0,40.1,13a16.84,16.84,0,0,1,4.26-1.8A2.27,2.27,0,0,0,46,9.43ZM48.9,19.18A9.11,9.11,0,1,0,58,28.29a9.11,9.11,0,0,0-9.11-9.11Zm0,4.54a4.58,4.58,0,1,1-4.58,4.58h0a4.56,4.56,0,0,1,4.53-4.58Zm42.19,22a6.35,6.35,0,0,0-4.54,2l0,0,0,.07c-.06,0-3.12,3.08-6.46,6.42s-6.88,6.86-7.94,8a2.28,2.28,0,0,0,3.38,3c.73-.79,4.4-4.48,7.77-7.83l6.48-6.49.07,0a1.75,1.75,0,0,1,1.32-.6,2.31,2.31,0,0,1,2.05,2.55,2.9,2.9,0,0,1-.53,1.69v0c-.1.11-13.67,16.4-22.44,26.65A13.82,13.82,0,0,1,59.72,86.8H32.81a11.3,11.3,0,0,0-8.31,2.84l-6.42,6.27a2.28,2.28,0,0,0,3.21,3.23l6.41-6.27a6.34,6.34,0,0,1,5.11-1.52H59.72a18.46,18.46,0,0,0,13.9-7.24c8.83-10.34,22.53-26.8,22.53-26.8l.07-.11a7.43,7.43,0,0,0,1.45-4.43,6.87,6.87,0,0,0-6.58-7.07ZM31.26,62.6A21,21,0,0,0,17.5,66.53L.94,80.08a2.28,2.28,0,1,0,2.68,3.68l0,0,.16-.13L20.35,70.05a16.64,16.64,0,0,1,10.88-2.9H64.64A4.71,4.71,0,0,1,64.25,71,4.43,4.43,0,0,1,61,73.53l-.22,0H39.15a2.27,2.27,0,1,0,0,4.54H60.81v0a8.3,8.3,0,0,0,7.45-4.9A8.77,8.77,0,0,0,68,63.53a2.22,2.22,0,0,0-1.8-.92Z"/></g></g></g></g></g></svg>