<?xml version="1.0" encoding="utf-8"?>
<!-- Generator: Adobe Illustrator 25.4.1, SVG Export Plug-In . SVG Version: 6.00 Build 0)  -->
<svg version="1.1" id="Layer_1" xmlns="http://www.w3.org/2000/svg" xmlns:xlink="http://www.w3.org/1999/xlink" x="0px" y="0px"
	 viewBox="0 0 97.8 99.7" style="enable-background:new 0 0 97.8 99.7;" xml:space="preserve">
<style type="text/css">
	.st0{fill:url(#Path_1144_00000116192983640116165510000018209278583677125032_);}
</style>
<g id="Layer_2_00000069370337095274581730000012334964646954180512_" transform="translate(58.106 -57)">
	<g id="_1">
		<g id="services" transform="translate(32 35)">
			<g id="Group_661">
				<g id="Path_773">
					
						<linearGradient id="Path_1144_00000107588252351043336130000000106181001031972997_" gradientUnits="userSpaceOnUse" x1="-335.0697" y1="489.1695" x2="-335.0697" y2="488.1695" gradientTransform="matrix(97.7794 0 0 -99.7213 32721.707 48802.6055)">
						<stop  offset="0" style="stop-color:#32B0F2"/>
						<stop  offset="1" style="stop-color:#0012B5"/>
					</linearGradient>
					<path id="Path_1144" style="fill:url(#Path_1144_00000107588252351043336130000000106181001031972997_);" d="M-45.1,22
						c-1,0.1-1.8,0.8-2,1.8l-1.1,5.6c-0.9,0.3-1.7,0.7-2.6,1.1l-4.8-3.2c-0.9-0.6-2.1-0.4-2.8,0.3c-1.7,1.7-3.6,3.4-5.4,5.2
						c-0.8,0.8-0.9,2-0.3,2.9l3.2,4.8c-0.4,0.8-0.8,1.7-1.1,2.6l-5.7,1.2c-1.1,0.2-1.8,1.2-1.8,2.2V54c0,1.1,0.8,2,1.8,2.2l5.7,1.2
						c0.3,0.9,0.7,1.7,1.1,2.6l-3.2,4.8c-0.6,0.9-0.5,2.1,0.3,2.8c1.8,1.8,3.7,3.5,5.4,5.2c0.8,0.8,1.9,0.9,2.8,0.3l4.8-3.1
						c0.8,0.4,1.7,0.8,2.5,1.1l1.1,5.6c0.2,1.1,1.1,1.8,2.2,1.8h7.5c1.1,0,2-0.8,2.2-1.8l1.1-5.5c0.9-0.3,1.7-0.7,2.5-1.1l4.8,3.1
						c0.9,0.6,2.1,0.5,2.8-0.3c1.7-1.7,3.6-3.5,5.4-5.2c0.8-0.8,0.9-1.9,0.3-2.8l-3.2-4.8c0.4-0.8,0.8-1.7,1.1-2.6l5.7-1.2
						c1-0.2,1.8-1.1,1.8-2.2v-7.4c0-1.1-0.8-2-1.8-2.2l-5.7-1.2c-0.3-0.9-0.7-1.7-1.1-2.6l3.2-4.8c0.6-0.9,0.5-2.1-0.3-2.9
						c-1.8-1.8-3.7-3.5-5.4-5.2c-0.7-0.8-1.9-0.9-2.8-0.3l-4.8,3.2c-0.8-0.4-1.7-0.8-2.6-1.1l-1.1-5.6c-0.2-1.1-1.2-1.8-2.2-1.8
						H-45.1L-45.1,22z M-43,26.5h3.8l1,4.9c0.2,0.8,0.8,1.5,1.7,1.7c1.5,0.4,2.9,1,4.2,1.8c0.7,0.4,1.7,0.4,2.4-0.1l4.3-2.8
						c0.9,0.9,1.8,1.8,2.7,2.6l-2.8,4.2c-0.5,0.7-0.5,1.6-0.1,2.4c0.8,1.4,1.4,2.8,1.8,4.3c0.2,0.8,0.9,1.4,1.7,1.6l5.1,1.1v3.8
						l-5.1,1.1c-0.8,0.2-1.5,0.8-1.7,1.6c-0.4,1.5-1,2.9-1.8,4.3c-0.4,0.8-0.4,1.7,0.1,2.4l2.8,4.2c-0.9,0.9-1.8,1.8-2.7,2.7
						l-4.2-2.8c-0.7-0.4-1.7-0.4-2.4,0c-1.3,0.8-2.8,1.4-4.2,1.8c-0.8,0.2-1.5,0.9-1.7,1.7l-1,4.9H-43l-1-4.9
						c-0.2-0.8-0.8-1.5-1.7-1.7c-1.5-0.4-2.9-1-4.3-1.8c-0.7-0.4-1.6-0.4-2.4,0l-4.3,2.8c-0.9-0.9-1.8-1.8-2.7-2.7l2.8-4.2
						c0.5-0.7,0.5-1.7,0.1-2.4c-0.8-1.3-1.4-2.8-1.8-4.3c-0.2-0.8-0.9-1.4-1.7-1.6l-5.1-1.1v-3.8l5.1-1.1c0.8-0.2,1.5-0.8,1.7-1.6
						c0.4-1.5,1-3,1.8-4.3c0.4-0.8,0.4-1.7-0.1-2.4l-2.8-4.2c0.9-0.9,1.8-1.7,2.7-2.6l4.2,2.8c0.7,0.5,1.6,0.5,2.4,0.1
						c1.3-0.8,2.8-1.4,4.3-1.8c0.8-0.2,1.5-0.9,1.6-1.8L-43,26.5z M1.1,67.7c-1.7,0-3.4,0.7-4.5,2l0,0v0.1c-0.1,0-3.1,3.1-6.5,6.4
						s-6.9,6.9-7.9,8c-0.7,1-0.4,2.5,0.6,3.2c0.9,0.6,2,0.5,2.8-0.2c0.7-0.8,4.4-4.5,7.8-7.8l6.5-6.5h0.1c0.3-0.4,0.8-0.6,1.3-0.6
						c1.3,0.1,2.2,1.3,2.1,2.5c0,0,0,0,0,0c0,0.6-0.2,1.2-0.5,1.7l0,0C2.6,76.6-11,92.9-19.8,103.2c-2.5,3.4-6.4,5.4-10.5,5.6h-26.9
						c-3-0.2-6,0.8-8.3,2.8l-6.4,6.3c-0.8,0.9-0.8,2.4,0.2,3.2c0.9,0.8,2.2,0.8,3.1,0l6.4-6.3c1.4-1.2,3.3-1.8,5.1-1.5h26.9
						c5.5-0.2,10.6-2.9,13.9-7.2C-7.5,95.8,6.2,79.3,6.2,79.3l0.1-0.1c0.9-1.3,1.5-2.8,1.4-4.4C7.8,71,4.8,67.9,1.1,67.7L1.1,67.7z
						 M-58.7,84.6c-4.9-0.3-9.8,1-13.8,3.9l-16.6,13.6c-1.1,0.7-1.4,2.1-0.7,3.2s2.1,1.4,3.2,0.7c0.1,0,0.1-0.1,0.2-0.2l0,0l0.2-0.1
						l16.6-13.6c3.2-2.2,7-3.2,10.9-2.9h33.4c0.4,1.3,0.3,2.7-0.4,3.8c-0.6,1.3-1.8,2.3-3.2,2.5h-21.8c-1.3,0-2.3,1-2.3,2.3
						c0,1.3,1,2.3,2.3,2.3h21.7c3.2,0,6.1-2,7.5-4.9c1.8-3,1.7-6.8-0.3-9.6c-0.4-0.6-1.1-0.9-1.8-0.9L-58.7,84.6z M-41.1,41.2
						L-41.1,41.2c-5,0-9.1,4.1-9.1,9.1c0,5,4.1,9.1,9.1,9.1c5,0,9.1-4.1,9.1-9.1C-32,45.3-36.1,41.2-41.1,41.2z M-41.1,54.9
						c-2.5,0-4.6-2-4.6-4.6v0c0-2.5,2-4.5,4.5-4.5h0c2.5,0,4.6,2,4.6,4.6C-36.5,52.8-38.6,54.9-41.1,54.9z"/>
				</g>
			</g>
		</g>
	</g>
</g>
</svg>
