<svg version="1.1" id="Layer_1" xmlns="http://www.w3.org/2000/svg" x="0" y="0" viewBox="0 0 97.8 99.7" style="enable-background:new 0 0 97.8 99.7" xml:space="preserve"><style></style><g id="Layer_2_00000069370337095274581730000012334964646954180512_" transform="translate(58.106 -57)"><g id="_1"><g id="services" transform="translate(32 35)"><g id="Group_661"><g id="Path_773"><linearGradient id="Path_1144_00000107588252351043336130000000106181001031972997_" gradientUnits="userSpaceOnUse" x1="-335.07" y1="489.17" x2="-335.07" y2="488.17" gradientTransform="matrix(97.7794 0 0 -99.7213 32721.707 48802.605)"><stop offset="0" style="stop-color:#32b0f2"/><stop offset="1" style="stop-color:#0012b5"/></linearGradient><path id="Path_1144" style="fill:url(#Path_1144_00000107588252351043336130000000106181001031972997_)" d="M-45.1 22c-1 .1-1.8.8-2 1.8l-1.1 5.6c-.9.3-1.7.7-2.6 1.1l-4.8-3.2c-.9-.6-2.1-.4-2.8.3-1.7 1.7-3.6 3.4-5.4 5.2-.8.8-.9 2-.3 2.9l3.2 4.8c-.4.8-.8 1.7-1.1 2.6l-5.7 1.2c-1.1.2-1.8 1.2-1.8 2.2V54c0 1.1.8 2 1.8 2.2l5.7 1.2c.3.9.7 1.7 1.1 2.6l-3.2 4.8c-.6.9-.5 2.1.3 2.8 1.8 1.8 3.7 3.5 5.4 5.2.8.8 1.9.9 2.8.3l4.8-3.1c.8.4 1.7.8 2.5 1.1l1.1 5.6c.2 1.1 1.1 1.8 2.2 1.8h7.5c1.1 0 2-.8 2.2-1.8l1.1-5.5c.9-.3 1.7-.7 2.5-1.1l4.8 3.1c.9.6 2.1.5 2.8-.3 1.7-1.7 3.6-3.5 5.4-5.2.8-.8.9-1.9.3-2.8l-3.2-4.8c.4-.8.8-1.7 1.1-2.6l5.7-1.2c1-.2 1.8-1.1 1.8-2.2v-7.4c0-1.1-.8-2-1.8-2.2l-5.7-1.2c-.3-.9-.7-1.7-1.1-2.6l3.2-4.8c.6-.9.5-2.1-.3-2.9-1.8-1.8-3.7-3.5-5.4-5.2-.7-.8-1.9-.9-2.8-.3l-4.8 3.2c-.8-.4-1.7-.8-2.6-1.1l-1.1-5.6c-.2-1.1-1.2-1.8-2.2-1.8h-7.5V22zm2.1 4.5h3.8l1 4.9c.2.8.8 1.5 1.7 1.7 1.5.4 2.9 1 4.2 1.8.7.4 1.7.4 2.4-.1l4.3-2.8c.9.9 1.8 1.8 2.7 2.6l-2.8 4.2c-.5.7-.5 1.6-.1 2.4.8 1.4 1.4 2.8 1.8 4.3.2.8.9 1.4 1.7 1.6l5.1 1.1V52l-5.1 1.1c-.8.2-1.5.8-1.7 1.6-.4 1.5-1 2.9-1.8 4.3-.4.8-.4 1.7.1 2.4l2.8 4.2-2.7 2.7-4.2-2.8c-.7-.4-1.7-.4-2.4 0-1.3.8-2.8 1.4-4.2 1.8-.8.2-1.5.9-1.7 1.7l-1 4.9H-43l-1-4.9c-.2-.8-.8-1.5-1.7-1.7-1.5-.4-2.9-1-4.3-1.8-.7-.4-1.6-.4-2.4 0l-4.3 2.8-2.7-2.7 2.8-4.2c.5-.7.5-1.7.1-2.4-.8-1.3-1.4-2.8-1.8-4.3-.2-.8-.9-1.4-1.7-1.6l-5.1-1.1v-3.8l5.1-1.1c.8-.2 1.5-.8 1.7-1.6.4-1.5 1-3 1.8-4.3.4-.8.4-1.7-.1-2.4l-2.8-4.2c.9-.9 1.8-1.7 2.7-2.6l4.2 2.8c.7.5 1.6.5 2.4.1 1.3-.8 2.8-1.4 4.3-1.8.8-.2 1.5-.9 1.6-1.8l1.2-4.8zM1.1 67.7c-1.7 0-3.4.7-4.5 2v.1c-.1 0-3.1 3.1-6.5 6.4s-6.9 6.9-7.9 8c-.7 1-.4 2.5.6 3.2.9.6 2 .5 2.8-.2.7-.8 4.4-4.5 7.8-7.8l6.5-6.5H0c.3-.4.8-.6 1.3-.6 1.3.1 2.2 1.3 2.1 2.5 0 .6-.2 1.2-.5 1.7-.3.1-13.9 16.4-22.7 26.7-2.5 3.4-6.4 5.4-10.5 5.6h-26.9c-3-.2-6 .8-8.3 2.8l-6.4 6.3c-.8.9-.8 2.4.2 3.2.9.8 2.2.8 3.1 0l6.4-6.3c1.4-1.2 3.3-1.8 5.1-1.5h26.9c5.5-.2 10.6-2.9 13.9-7.2C-7.5 95.8 6.2 79.3 6.2 79.3l.1-.1c.9-1.3 1.5-2.8 1.4-4.4.1-3.8-2.9-6.9-6.6-7.1zm-59.8 16.9c-4.9-.3-9.8 1-13.8 3.9l-16.6 13.6c-1.1.7-1.4 2.1-.7 3.2s2.1 1.4 3.2.7c.1 0 .1-.1.2-.2l.2-.1 16.6-13.6c3.2-2.2 7-3.2 10.9-2.9h33.4c.4 1.3.3 2.7-.4 3.8-.6 1.3-1.8 2.3-3.2 2.5h-21.8c-1.3 0-2.3 1-2.3 2.3 0 1.3 1 2.3 2.3 2.3H-29c3.2 0 6.1-2 7.5-4.9 1.8-3 1.7-6.8-.3-9.6-.4-.6-1.1-.9-1.8-.9l-35.1-.1zm17.6-43.4c-5 0-9.1 4.1-9.1 9.1s4.1 9.1 9.1 9.1 9.1-4.1 9.1-9.1-4.1-9.1-9.1-9.1zm0 13.7c-2.5 0-4.6-2-4.6-4.6 0-2.5 2-4.5 4.5-4.5s4.6 2 4.6 4.6c.1 2.4-2 4.5-4.5 4.5z"/></g></g></g></g></g></svg>