<svg xmlns="http://www.w3.org/2000/svg" width="22.769" height="22.776" viewBox="0 0 22.769 22.776">
  <g id="Icon_ionic-ios-settings" data-name="Icon ionic-ios-settings" transform="translate(0.588 0.589)">
    <path id="Icon_ionic-ios-settings-2" data-name="Icon ionic-ios-settings" d="M24.311,15.3A2.779,2.779,0,0,1,26.093,12.7,11.014,11.014,0,0,0,24.76,9.493a2.816,2.816,0,0,1-1.13.242,2.772,2.772,0,0,1-2.536-3.9A10.981,10.981,0,0,0,17.889,4.5a2.776,2.776,0,0,1-5.185,0A11.014,11.014,0,0,0,9.493,5.833a2.772,2.772,0,0,1-2.536,3.9,2.724,2.724,0,0,1-1.13-.242A11.257,11.257,0,0,0,4.5,12.71a2.778,2.778,0,0,1,.006,5.185,11.014,11.014,0,0,0,1.333,3.211A2.774,2.774,0,0,1,9.5,24.766,11.078,11.078,0,0,0,12.71,26.1a2.771,2.771,0,0,1,5.173,0,11.014,11.014,0,0,0,3.211-1.333,2.776,2.776,0,0,1,3.661-3.661,11.078,11.078,0,0,0,1.333-3.211A2.792,2.792,0,0,1,24.311,15.3ZM15.347,19.79a4.5,4.5,0,1,1,4.5-4.5A4.5,4.5,0,0,1,15.347,19.79Z" transform="translate(-4.5 -4.5)" fill="none" stroke="#88898a" stroke-width="1"/>
  </g>
</svg>
