<svg version="1.1" id="settings" xmlns="http://www.w3.org/2000/svg" x="0" y="0" viewBox="0 0 36.1 36.1" style="enable-background:new 0 0 36.1 36.1" xml:space="preserve"><style>.st0{fill:#02006a}</style><path id="Path_11029" class="st0" d="M18 12c-3.3 0-6 2.7-6 6s2.7 6 6 6 6-2.7 6-6c.1-3.3-2.6-6-6-6zm0 9c-.8 0-1.6-.3-2.1-.9-.5-.5-.9-1.2-.9-2.1 0-1.7 1.4-3 3-3 1.7 0 3 1.3 3 3 .1 1.7-1.3 3-3 3z"/><path id="Path_11030" class="st0" d="M30.6 23.1c.2-.4.5-.6.9-.6h.3c2.5 0 4.5-2.1 4.4-4.6 0-2.5-2.1-4.5-4.6-4.4h-.2c-.3 0-.6-.2-.8-.4 0-.1-.1-.2-.1-.3-.2-.4-.1-.8.2-1.1l.1-.1c.1 0 .1-.1.2-.2 1.7-1.8 1.6-4.7-.2-6.4-1.8-1.7-4.7-1.6-6.4.2l-.1.1c-.3.3-.7.3-1.1.2-.4-.2-.6-.5-.6-.9v-.1c0-2.4-2-4.4-4.4-4.4-2.5 0-4.5 2-4.6 4.4v.2c0 .3-.2.6-.4.8-.1 0-.2.1-.3.1-.4.2-.8.1-1.1-.2l-.1-.1C9.9 3.6 7 3.6 5.3 5.4s-1.8 4.6 0 6.4l.1.1c.3.3.4.7.2 1.1v.1c-.1.4-.5.6-.9.6h-.3c-2.5 0-4.5 2.1-4.5 4.6 0 2.5 2.1 4.5 4.6 4.5h.2c.4 0 .7.2.9.6.2.4.1.8-.2 1.1l-.1.1c-1.8 1.8-1.8 4.6 0 6.4 1.8 1.8 4.6 1.8 6.4 0l.1-.1c.3-.3.7-.3 1.1-.2h.1c.4.1.6.5.6.9v.1c0 2.5 2 4.5 4.5 4.5s4.5-2 4.5-4.5v-.2c0-.4.2-.7.6-.9.4-.2.8-.1 1.1.2l.3.3c1.8 1.7 4.7 1.6 6.4-.2 1.7-1.8 1.6-4.7-.2-6.4l-.1-.1c-.2-.5-.3-.9-.1-1.3zm-2 3.2.1.1.1.1c.6.6.5 1.6-.1 2.1s-1.6.5-2.1-.1l-.1-.1c-.7-.7-1.7-1.1-2.8-1.1-2.2 0-4 1.8-4 4v.2c0 .8-.7 1.5-1.5 1.5s-1.5-.7-1.5-1.5v-.2c0-1.6-1-3.1-2.6-3.6-1.5-.6-3.2-.3-4.3.8l-.1.1-.1.1c-.6.6-1.6.5-2.1-.1s-.5-1.6.1-2.1l.1-.1c.7-.7 1.1-1.7 1.1-2.8 0-2.2-1.8-4-4-4h-.3c-.8.1-1.5-.6-1.5-1.4 0-.8.7-1.5 1.5-1.5h.2c1.6 0 3.1-1 3.6-2.6.6-1.5.3-3.2-.8-4.4l-.1-.1c-.6-.6-.6-1.5 0-2.1.6-.6 1.5-.6 2.1 0l.1.1c1.1 1.1 2.7 1.4 4.1.9.1 0 .3-.1.4-.1.7-.3 1.3-.8 1.8-1.5.4-.6.7-1.4.7-2.2v-.2c-.1-.8.6-1.5 1.4-1.5.8 0 1.5.7 1.5 1.5v.1c0 1 .4 2 1.1 2.8 1.6 1.6 4.2 1.6 5.7.1l.1-.1c.6-.6 1.5-.6 2.1 0 .6.6.6 1.5 0 2.1l-.1.1c-1.1 1.1-1.4 2.7-.9 4.1 0 .1.1.3.1.4.6 1.5 2.1 2.4 3.7 2.4h.3c.8 0 1.5.7 1.5 1.5s-.7 1.5-1.5 1.5h-.1c-1 0-2 .4-2.8 1.1-1.6 1.6-1.7 4.2-.1 5.7z"/></svg>