<?xml version="1.0" encoding="UTF-8"?>
<svg width="700pt" height="700pt" version="1.1" viewBox="0 0 700 700" xmlns="http://www.w3.org/2000/svg">
 <path d="m151.67 303.33h443.33v186.67c0 8.3359-4.4492 16.039-11.668 20.207s-16.113 4.168-23.332 0-11.668-11.871-11.668-20.207v-46.668h-396.66v46.668c0 8.3359-4.4492 16.039-11.668 20.207s-16.113 4.168-23.332 0-11.668-11.871-11.668-20.207v-420c0-8.3359 4.4492-16.039 11.668-20.207s16.113-4.168 23.332 0 11.668 11.871 11.668 20.207zm23.332-93.332c0 12.375 4.918 24.246 13.668 33 8.7539 8.75 20.621 13.668 33 13.668 12.375 0 24.246-4.918 32.996-13.668 8.7539-8.7539 13.668-20.625 13.668-33s-4.9141-24.246-13.668-33c-8.75-8.75-20.621-13.668-32.996-13.668-12.379 0-24.246 4.918-33 13.668-8.75 8.7539-13.668 20.625-13.668 33zm326.67-46.668h-163.34c-6.1875 0-12.121 2.4609-16.496 6.8359-4.3789 4.375-6.8359 10.309-6.8359 16.5v70h280c0-24.754-9.832-48.496-27.336-65.996-17.504-17.504-41.242-27.34-65.996-27.34z"/>
</svg>
