<svg xmlns="http://www.w3.org/2000/svg" width="34.587" height="17.806" viewBox="0 0 34.587 17.806">
  <g id="Group_65" data-name="Group 65" transform="translate(-170.499 -887.488)">
    <path id="Subtraction_1" data-name="Subtraction 1" d="M30.7,4.153H.954A.955.955,0,0,1,0,3.2V0H33.3a2.889,2.889,0,0,1-2.6,4.153Z" transform="translate(170.999 900.641)" fill="none" stroke="#88898a" stroke-linejoin="round" stroke-width="1"/>
    <path id="Subtraction_3" data-name="Subtraction 3" d="M4.173,11.535H0V.954A.955.955,0,0,1,.954,0H3.681A2.522,2.522,0,0,0,4.8,2.008a4.547,4.547,0,0,0,2.7.833c.149,0,.292-.006.425-.017,1.938-.16,3.4-1.374,3.4-2.824H14.95l2.764,1.655L16.607,2.763A1.43,1.43,0,1,0,18.63,4.785l1.361-1.361a1.437,1.437,0,0,0,.215-.277l1.7,1.018L19.957,6.113A1.43,1.43,0,0,0,21.98,8.135l2.2-2.2a1.43,1.43,0,0,0,.215-.277l-.939-.563,8.723,5.224a2.887,2.887,0,0,1,1.113,1.215l-23.651,0L12.5,7.74H7.035L4.173,11.535Z" transform="translate(170.999 887.988)" fill="none" stroke="#88898a" stroke-linejoin="round" stroke-width="1"/>
  </g>
</svg>
