<svg xmlns="http://www.w3.org/2000/svg" width="18.548" height="17.834" viewBox="0 0 18.548 17.834">
  <path id="icons8_stethoscope_5" d="M5.854,4a1.412,1.412,0,0,0-1.271.8A2.147,2.147,0,0,0,3,6.854v6.688l.178.2a7.468,7.468,0,0,0,4.1,2.319v1.494a4.28,4.28,0,1,0,8.561,0V13.987a1.427,1.427,0,1,1,2.854,0v.134a2.14,2.14,0,1,0,1.427,0v-.134a2.854,2.854,0,0,0-5.707,0v3.567a2.854,2.854,0,1,1-5.707,0V16.061a7.468,7.468,0,0,0,4.1-2.319l.178-.2V6.854A2.147,2.147,0,0,0,11.4,4.8,1.412,1.412,0,0,0,10.134,4a1.427,1.427,0,0,0,0,2.854,1.408,1.408,0,0,0,1.137-.58.7.7,0,0,1,.29.58v6.108A5.653,5.653,0,0,1,7.994,14.7a5.653,5.653,0,0,1-3.567-1.739V6.854a.7.7,0,0,1,.29-.58,1.408,1.408,0,0,0,1.137.58A1.427,1.427,0,1,0,5.854,4ZM19.408,15.414a.713.713,0,1,1-.713.713A.7.7,0,0,1,19.408,15.414Z" transform="translate(-3 -4)" fill="#292929"/>
</svg>
