<?xml version="1.0" encoding="iso-8859-1"?>
<!-- Generator: Adobe Illustrator 19.0.0, SVG Export Plug-In . SVG Version: 6.00 Build 0)  -->
<svg version="1.1" id="Layer_1" xmlns="http://www.w3.org/2000/svg" xmlns:xlink="http://www.w3.org/1999/xlink" x="0px" y="0px"
	 viewBox="0 0 512 512" style="enable-background:new 0 0 512 512;" xml:space="preserve">
<g>
	<g>
		<path d="M290.146,492.76c-1.947-5.192-7.735-7.822-12.924-5.876c-8.916,3.343-18.328,5.038-27.973,5.038
			c-21.45,0.001-41.69-8.347-56.993-23.504c-15.317-15.171-23.752-35.282-23.752-56.625V290.566h27.426
			c47.069,0,85.361-38.281,85.361-85.334v-61.587c0-10.27-6.204-19.115-15.059-22.996V71.261c0-14.405-4.28-28.052-12.12-39.527
			c1.078-2.668,1.679-5.579,1.679-8.629C255.79,10.365,245.422,0,232.678,0s-23.111,10.365-23.111,23.106
			s10.367,23.107,23.111,23.107c2.179,0,4.285-0.309,6.284-0.875c4.658,7.696,7.193,16.583,7.193,25.924v49.387
			c-8.855,3.881-15.059,12.726-15.059,22.996v61.587c0,19.376-15.776,35.138-35.165,35.138h-71.917
			c-19.39,0-35.165-15.763-35.165-35.138v-61.587c0-10.27-6.204-19.115-15.059-22.996V71.261c0-9.395,2.565-18.331,7.273-26.057
			c2.136,0.654,4.402,1.007,6.749,1.007c12.744,0,23.112-10.365,23.112-23.107C110.923,10.365,100.555,0,87.811,0
			C75.066,0,64.699,10.365,64.699,23.106c0,2.856,0.525,5.59,1.476,8.118C58.112,42.803,53.71,56.642,53.71,71.261v49.387
			c-8.855,3.881-15.059,12.726-15.059,22.996v61.587c0,47.054,38.294,85.334,85.361,85.334h24.411v121.227
			c0,26.743,10.548,51.92,29.701,70.891c19.088,18.907,44.346,29.319,71.123,29.318c12.062,0,23.845-2.125,35.023-6.316
			C289.462,503.738,292.093,497.951,290.146,492.76z M124.012,270.488c-35.997,0-65.283-29.274-65.283-65.256v-61.587
			c0-2.768,2.252-5.02,5.02-5.02c2.768,0,5.02,2.252,5.02,5.02v61.587c0,30.447,24.783,55.217,55.244,55.217h71.917
			c30.462,0,55.244-24.77,55.244-55.217v-61.587c0-2.768,2.252-5.02,5.02-5.02c2.768,0,5.02,2.252,5.02,5.02v61.587
			c0,35.983-29.286,65.256-65.283,65.256H124.012z"/>
	</g>
</g>
<g>
	<g>
		<path d="M434.667,356.38v-59.266c0-32.008-26.03-58.049-58.025-58.049c-31.876,0-57.81,26.041-57.811,58.049v138.379
			c0.001,13.27-5.276,25.576-14.858,34.652c-4.026,3.813-4.197,10.167-0.385,14.192c1.974,2.084,4.629,3.135,7.29,3.135
			c2.478,0,4.96-0.912,6.902-2.751c13.428-12.72,21.13-30.664,21.129-49.23V297.115c0.001-20.937,16.927-37.971,37.732-37.971
			c20.924,0,37.946,17.034,37.946,37.97v59.266c-22.065,4.643-38.683,24.263-38.683,47.696c0,26.877,21.857,48.742,48.723,48.742
			c26.865,0,48.72-21.865,48.72-48.742C473.349,380.643,456.731,361.023,434.667,356.38z M424.629,432.74
			c-15.795,0-28.645-12.858-28.645-28.664c0-15.805,12.85-28.663,28.644-28.664c15.794,0,28.643,12.858,28.643,28.664
			C453.271,419.882,440.421,432.74,424.629,432.74z"/>
	</g>
</g>
<g>
</g>
<g>
</g>
<g>
</g>
<g>
</g>
<g>
</g>
<g>
</g>
<g>
</g>
<g>
</g>
<g>
</g>
<g>
</g>
<g>
</g>
<g>
</g>
<g>
</g>
<g>
</g>
<g>
</g>
</svg>
