<svg xmlns="http://www.w3.org/2000/svg" xmlns:xlink="http://www.w3.org/1999/xlink" width="35.933" height="72" viewBox="0 0 35.933 72">
  <defs>
    <clipPath id="clip-path">
      <rect id="Rectangle_978" data-name="Rectangle 978" width="35.933" height="72" fill="#fff"/>
    </clipPath>
  </defs>
  <g id="Group_1531" data-name="Group 1531" clip-path="url(#clip-path)">
    <path id="Path_5098" data-name="Path 5098" d="M35.932,36.037q0,13.49,0,26.981A8.761,8.761,0,0,1,29.7,71.584a8.512,8.512,0,0,1-2.367.385c-6.316.029-12.633.055-18.949,0A8.757,8.757,0,0,1,.113,64.457a14.332,14.332,0,0,1-.107-1.725Q0,35.988,0,9.243A8.777,8.777,0,0,1,5.025.88,8.155,8.155,0,0,1,8.822,0Q17.9,0,26.984,0A8.826,8.826,0,0,1,35.93,8.951q.009,13.543,0,27.086M2.642,11.637V58.959h30.3c.693,0,.694,0,.694-.67q0-22.989,0-45.979c0-.672,0-.673-.692-.673H2.642ZM21.67,65.645a3.542,3.542,0,0,0-7.08-.2,3.542,3.542,0,1,0,7.08.2M18.129,6.06c1.362,0,2.725.009,4.087-.007a2.4,2.4,0,0,0,.861-.167.569.569,0,0,0,.311-.426.654.654,0,0,0-.326-.469,2.207,2.207,0,0,0-.861-.17q-4.087-.018-8.175,0a2.029,2.029,0,0,0-.856.185.454.454,0,0,0,.013.875,2.163,2.163,0,0,0,.858.171c1.362.017,2.725.008,4.087.008m11.2-.673a.834.834,0,0,0-.8-.866.874.874,0,0,0-.888.85.846.846,0,0,0,.844.83.817.817,0,0,0,.847-.813" transform="translate(0 -0.001)" fill="#fff"/>
    <path id="Path_5099" data-name="Path 5099" d="M55.3,258.4a2.273,2.273,0,0,0-1.538,1.575,2.147,2.147,0,0,0,4.063,1.357,2.083,2.083,0,0,0-1.011-2.712.954.954,0,0,1-.6-.787,5.047,5.047,0,0,0-1.572-2.643c.171.044.346.077.512.134a9.644,9.644,0,0,1,6.48,8.928,2.231,2.231,0,0,1-.7,1.642,8.4,8.4,0,0,1-3.648,1.982,31.579,31.579,0,0,1-11.092,1.2,27.076,27.076,0,0,1-7.459-1.305,13.2,13.2,0,0,1-1.966-.856c-1.836-.99-2.3-1.838-1.961-3.875a9.425,9.425,0,0,1,6.679-7.811,1.329,1.329,0,0,1,.252-.036l.121.14a2.073,2.073,0,0,0-.4.232,4.042,4.042,0,0,0-1.334,2.491,1.95,1.95,0,0,1-.857,1.349,4.17,4.17,0,0,0-1.6,2.49,8.014,8.014,0,0,0-.306,3,1.816,1.816,0,0,0,2.362,1.206.766.766,0,0,0,.359-.612.849.849,0,0,0-.524-.534,4.335,4.335,0,0,0-1.1-.023c-.027-1.054-.182-2.072.567-2.957.29-.343.459-.789.752-1.128a.915.915,0,0,1,1.59.013,4.535,4.535,0,0,1,1.2,4.061c-.276,0-.583-.008-.89,0a.591.591,0,0,0-.642.561.614.614,0,0,0,.566.695,1.7,1.7,0,0,0,2.158-1.637,10.941,10.941,0,0,0-.18-1.975,4.456,4.456,0,0,0-1.543-3.038,4.291,4.291,0,0,1-.74-.647.911.911,0,0,1-.2-.64,3.4,3.4,0,0,1,1.848-2.526.58.58,0,0,1,.781.129c1.392,1.327,2.81,2.627,4.194,3.962.308.3.471.259.758-.016,1.364-1.307,2.756-2.583,4.123-3.887a.537.537,0,0,1,.766-.106A3.452,3.452,0,0,1,55.3,258.4M52.968,264c-.01-.172-.018-.258-.019-.344-.02-1.222-.02-1.213-1.261-1.131-.29.019-.415.135-.415.413,0,.342,0,.684,0,1.064a8,8,0,0,0-1.076.014c-.148.021-.371.183-.391.308a3.137,3.137,0,0,0,0,1.043c.023.129.274.281.438.306a6.723,6.723,0,0,0,.989.014c.017.171.035.273.035.376.008,1.265-.165,1.087,1.242,1.11.359.006.455-.16.44-.481s0-.65,0-.978c.163-.012.249-.022.336-.024,1.166-.026,1.154-.025,1.142-1.194,0-.358-.113-.519-.482-.5-.31.018-.622,0-.975,0" transform="translate(-29.835 -219.415)" fill="#fff"/>
    <path id="Path_5100" data-name="Path 5100" d="M93.816,150.045a8.564,8.564,0,0,1-3.634,6.973,5.853,5.853,0,0,1-7.086-.01,8.5,8.5,0,0,1-3.216-9.451,7.2,7.2,0,0,1,13.933,1.65,7.7,7.7,0,0,1,0,.838" transform="translate(-68.326 -122.77)" fill="#fff"/>
  </g>
</svg>
