<svg xmlns="http://www.w3.org/2000/svg" width="41.1" height="53.682" viewBox="0 0 41.1 53.682">
  <g id="Group_7250" data-name="Group 7250" transform="translate(-149.45 -258.318)">
    <rect id="Rectangle_1220" data-name="Rectangle 1220" width="41" height="3" rx="1.5" transform="translate(149.45 309)" fill="#00b3cd"/>
    <path id="icons8_telephone" d="M24.553,5C6.742,5,4,10.253,4,14.99a6.153,6.153,0,0,0,.814,3.258,1.867,1.867,0,0,0,2.072.843l8.334-2.178a1.862,1.862,0,0,0,1.332-1.35l.846-3.342a1.854,1.854,0,0,1,1.573-1.394,48.205,48.205,0,0,1,5.579-.383,48.268,48.268,0,0,1,5.579.383A1.849,1.849,0,0,1,31.7,12.221l.847,3.342a1.868,1.868,0,0,0,1.339,1.35l8.323,2.178a1.879,1.879,0,0,0,2.08-.847,6.175,6.175,0,0,0,.81-3.254C45.1,10.253,42.364,5,24.553,5ZM20.784,18.051a1.868,1.868,0,0,0-1.839,1.894v.007a5.6,5.6,0,0,0-3.4,1.219l-5.5,4.4a7.472,7.472,0,0,0-2.729,4.78L6.135,38.627H5.868a1.868,1.868,0,1,0,0,3.736H43.231a1.868,1.868,0,1,0,0-3.736h-.266l-1.182-8.279a7.477,7.477,0,0,0-2.729-4.78l-5.495-4.4a5.609,5.609,0,0,0-3.4-1.219v-.007a1.868,1.868,0,1,0-3.736,0H22.682a1.868,1.868,0,0,0-1.9-1.894Zm.029,7.5a1.868,1.868,0,1,1-1.868,1.868A1.869,1.869,0,0,1,20.813,25.55Zm7.473,0a1.868,1.868,0,1,1-1.868,1.868A1.869,1.869,0,0,1,28.286,25.55Zm-7.473,7.473a1.868,1.868,0,1,1-1.868,1.868A1.869,1.869,0,0,1,20.813,33.022Zm7.473,0a1.868,1.868,0,1,1-1.868,1.868A1.869,1.869,0,0,1,28.286,33.022Z" transform="translate(145.45 253.318)" fill="#00b3cd"/>
  </g>
</svg>
