<svg xmlns="http://www.w3.org/2000/svg" width="41" height="48.575" viewBox="0 0 41 48.575">
  <g id="Group_7258" data-name="Group 7258" transform="translate(-287.5 -263.425)">
    <rect id="Rectangle_1211" data-name="Rectangle 1211" width="41" height="3" rx="1.5" transform="translate(287.5 309)" fill="#1993e9"/>
    <path id="icons8_twitter_squared" d="M33.018,4H6.9A2.9,2.9,0,0,0,4,6.9V33.018a2.9,2.9,0,0,0,2.9,2.9H33.018a2.9,2.9,0,0,0,2.9-2.9V6.9A2.9,2.9,0,0,0,33.018,4ZM28.2,15.591c.009.189.013.379.013.569A12.5,12.5,0,0,1,8.971,26.69a8.952,8.952,0,0,0,1.049.061,8.815,8.815,0,0,0,5.458-1.882,4.4,4.4,0,0,1-4.106-3.053,4.428,4.428,0,0,0,1.986-.075,4.4,4.4,0,0,1-3.526-4.309v-.055a4.381,4.381,0,0,0,1.991.55,4.4,4.4,0,0,1-1.359-5.867,12.474,12.474,0,0,0,9.059,4.592,4.458,4.458,0,0,1-.113-1,4.4,4.4,0,0,1,7.6-3.006A8.809,8.809,0,0,0,29.8,11.578a4.406,4.406,0,0,1-1.933,2.432,8.769,8.769,0,0,0,2.525-.692A9.008,9.008,0,0,1,28.2,15.591Z" transform="translate(288.04 259.425)" fill="#1993e9"/>
  </g>
</svg>
