<svg xmlns="http://www.w3.org/2000/svg" width="23.438" height="21.44" viewBox="0 0 23.438 21.44">
  <g id="upload" transform="translate(-3.242 -4.498)">
    <path id="Path_3453" data-name="Path 3453" d="M25.217,17.861h-5.2a1.456,1.456,0,0,0-1.39.973,3.9,3.9,0,0,1-7.328,0,1.456,1.456,0,0,0-1.391-.973H4.7a1.434,1.434,0,0,0-1.462,1.406v8.018A1.435,1.435,0,0,0,4.7,28.691H25.219a1.434,1.434,0,0,0,1.462-1.405V19.267a1.434,1.434,0,0,0-1.462-1.406Z" transform="translate(0 -2.753)" fill="#94cc00"/>
    <path id="Path_3454" data-name="Path 3454" d="M12.79,10.724h1.9v4.913a.385.385,0,0,0,.393.379H18.6A.385.385,0,0,0,19,15.637V10.724h1.9a.4.4,0,0,0,.349-.2.364.364,0,0,0-.029-.393l-4.069-5.47a.4.4,0,0,0-.32-.158h0a.4.4,0,0,0-.32.16l-4.043,5.469a.368.368,0,0,0-.029.393A.4.4,0,0,0,12.79,10.724Z" transform="translate(-1.886 0)" fill="#94cc00"/>
  </g>
</svg>
