<svg id="user" xmlns="http://www.w3.org/2000/svg" xmlns:xlink="http://www.w3.org/1999/xlink" width="34.289" height="38.098" viewBox="0 0 34.289 38.098">
  <defs>
    <linearGradient id="linear-gradient" x1="0.711" y1="-0.243" x2="0" y2="2.362" gradientUnits="objectBoundingBox">
      <stop offset="0" stop-color="#32b0f2"/>
      <stop offset="1" stop-color="#0012b5"/>
    </linearGradient>
  </defs>
  <path id="Path_550" data-name="Path 550" d="M36.884,36.239a1.9,1.9,0,0,1-1.9-1.9v-3.81a5.721,5.721,0,0,0-5.715-5.715H14.025A5.715,5.715,0,0,0,8.31,30.525v3.81a1.9,1.9,0,1,1-3.81,0v-3.81A9.525,9.525,0,0,1,14.025,21H29.264a9.535,9.535,0,0,1,9.525,9.525v3.81A1.9,1.9,0,0,1,36.884,36.239Z" transform="translate(-4.5 1.859)" fill="url(#linear-gradient)"/>
  <path id="Path_551" data-name="Path 551" d="M20.025,3A9.525,9.525,0,1,1,10.5,12.525,9.535,9.535,0,0,1,20.025,3Zm0,15.239a5.715,5.715,0,1,0-5.715-5.715A5.721,5.721,0,0,0,20.025,18.239Z" transform="translate(-2.88 -3)" fill="url(#linear-gradient)"/>
</svg>
