<svg id="users" xmlns="http://www.w3.org/2000/svg" xmlns:xlink="http://www.w3.org/1999/xlink" width="38.968" height="32.473" viewBox="0 0 38.968 32.473">
  <defs>
    <linearGradient id="linear-gradient" x1="0.5" x2="0.5" y2="1" gradientUnits="objectBoundingBox">
      <stop offset="0" stop-color="#32b0f2"/>
      <stop offset="1" stop-color="#0012b5"/>
    </linearGradient>
  </defs>
  <path id="Path_11029" data-name="Path 11029" d="M27.6,33.989a1.624,1.624,0,0,1-1.624-1.624V29.118a4.876,4.876,0,0,0-4.871-4.871H8.118a4.871,4.871,0,0,0-4.871,4.871v3.247a1.624,1.624,0,1,1-3.247,0V29.118A8.118,8.118,0,0,1,8.118,21H21.107a8.127,8.127,0,0,1,8.118,8.118v3.247A1.624,1.624,0,0,1,27.6,33.989Z" transform="translate(0 -1.516)" fill="url(#linear-gradient)"/>
  <path id="Path_11030" data-name="Path 11030" d="M14.118,3A8.118,8.118,0,1,1,6,11.118,8.127,8.127,0,0,1,14.118,3Zm0,12.989a4.871,4.871,0,1,0-4.871-4.871A4.876,4.876,0,0,0,14.118,15.989Z" transform="translate(0.495 -3)" fill="url(#linear-gradient)"/>
  <path id="Path_11031" data-name="Path 11031" d="M34.995,33.973a1.624,1.624,0,0,1-1.624-1.624V29.1a4.871,4.871,0,0,0-3.653-4.711,1.624,1.624,0,1,1,.812-3.144A8.118,8.118,0,0,1,36.618,29.1v3.249A1.624,1.624,0,0,1,34.995,33.973Z" transform="translate(2.349 -1.5)" fill="url(#linear-gradient)"/>
  <path id="Path_11032" data-name="Path 11032" d="M24.123,19.026a1.624,1.624,0,0,1-.4-3.2,4.871,4.871,0,0,0,0-9.437,1.624,1.624,0,1,1,.805-3.146,8.118,8.118,0,0,1,0,15.729A1.627,1.627,0,0,1,24.123,19.026Z" transform="translate(1.855 -2.984)" fill="url(#linear-gradient)"/>
</svg>
