<svg xmlns="http://www.w3.org/2000/svg" width="34.289" height="38.098"><defs><linearGradient id="a" x1=".711" y1="-.243" x2="0" y2="2.362" gradientUnits="objectBoundingBox"><stop offset="0" stop-color="#32b0f2"/><stop offset="1" stop-color="#0012b5"/></linearGradient></defs><path data-name="Path 550" d="M36.884 36.239a1.9 1.9 0 0 1-1.9-1.9v-3.81a5.721 5.721 0 0 0-5.715-5.715H14.025a5.715 5.715 0 0 0-5.715 5.711v3.81a1.9 1.9 0 1 1-3.81 0v-3.81A9.525 9.525 0 0 1 14.025 21h15.239a9.535 9.535 0 0 1 9.525 9.525v3.81a1.9 1.9 0 0 1-1.905 1.904z" transform="translate(-4.5 1.859)" fill="url(#a)"/><path data-name="Path 551" d="M20.025 3a9.525 9.525 0 1 1-9.525 9.525A9.535 9.535 0 0 1 20.025 3zm0 15.239a5.715 5.715 0 1 0-5.715-5.715 5.721 5.721 0 0 0 5.715 5.715z" transform="translate(-2.88 -3)" fill="url(#a)"/></svg>