<?xml version="1.0" standalone="no"?>
<!DOCTYPE svg PUBLIC "-//W3C//DTD SVG 20010904//EN"
 "http://www.w3.org/TR/2001/REC-SVG-20010904/DTD/svg10.dtd">
<svg version="1.0" xmlns="http://www.w3.org/2000/svg"
 width="512.000000pt" height="512.000000pt" viewBox="0 0 512.000000 512.000000"
 preserveAspectRatio="xMidYMid meet">
<metadata>
Created by potrace 1.16, written by Peter Selinger 2001-2019
</metadata>
<g transform="translate(0.000000,512.000000) scale(0.100000,-0.100000)"
fill="#000000" stroke="none">
<path d="M1178 5101 c-149 -48 -260 -153 -321 -303 -20 -49 -22 -76 -27 -372
l-5 -319 -49 -14 c-71 -21 -158 -110 -180 -183 -29 -99 -13 -192 49 -273 34
-45 136 -107 176 -107 12 0 20 -11 24 -32 22 -113 88 -262 160 -364 59 -82
187 -200 269 -248 l68 -40 -4 -92 c-2 -75 -7 -98 -24 -121 -17 -23 -89 -56
-385 -176 -221 -89 -385 -162 -418 -184 -98 -68 -172 -191 -190 -318 -6 -38
-38 -371 -71 -740 -46 -505 -65 -680 -78 -710 -12 -29 -17 -67 -17 -145 0 -90
4 -112 24 -152 37 -75 95 -134 169 -170 62 -31 74 -33 167 -33 113 0 164 17
242 81 42 35 44 35 38 11 -8 -29 16 -81 40 -91 27 -10 69 -6 88 9 25 18 36 72
37 170 l1 80 200 175 c110 96 216 188 235 204 l34 28 250 9 c137 4 267 13 288
18 48 13 111 58 147 105 16 21 57 121 97 234 62 174 69 204 66 254 -5 65 -32
112 -86 149 -32 21 -48 24 -154 27 -65 2 -118 5 -118 6 0 1 7 27 16 57 57 192
-83 371 -239 305 -43 -18 -58 -36 -221 -278 l-139 -207 -160 -106 c-87 -59
-160 -105 -162 -103 -1 2 2 73 7 158 10 170 6 190 -42 210 -34 14 -76 4 -95
-23 -8 -12 -15 -43 -15 -69 l0 -48 -220 0 -220 0 0 31 c0 68 51 560 61 586 20
54 69 120 111 150 24 17 179 85 345 153 l302 122 68 -41 c136 -81 287 -121
453 -121 167 0 316 41 456 126 l59 36 305 -122 c168 -68 309 -126 314 -131 4
-4 -6 -15 -23 -24 -51 -26 -166 -140 -211 -210 -47 -73 -84 -170 -99 -265 -15
-92 -15 -871 0 -904 21 -46 99 -57 131 -19 7 9 15 42 18 74 5 57 8 48 120
-353 63 -226 123 -422 133 -435 40 -50 137 -19 137 44 0 15 -85 331 -190 703
-104 371 -193 702 -196 736 -20 187 88 397 256 499 32 19 60 35 62 35 3 0 13
-18 23 -41 l19 -40 -97 -97 c-86 -87 -97 -101 -97 -133 0 -45 33 -79 79 -79
26 0 45 12 92 57 32 31 61 54 63 52 2 -2 90 -391 195 -864 207 -934 196 -895
265 -895 41 0 76 35 76 77 0 16 -90 434 -200 928 l-201 899 73 73 74 74 59
-28 c53 -24 71 -28 155 -27 175 1 154 -14 614 444 388 386 398 398 403 441 4
36 0 51 -22 83 l-27 39 101 100 100 101 40 -37 c47 -42 77 -46 115 -16 21 16
26 29 26 62 0 40 -4 45 -240 281 -235 237 -240 241 -281 241 -81 0 -105 -76
-44 -143 l34 -38 -102 -102 -102 -101 -28 25 c-33 28 -92 32 -135 10 -37 -20
-764 -752 -790 -796 -65 -112 -68 -301 -5 -399 14 -22 13 -25 -28 -67 l-43
-44 -20 37 c-29 57 -125 147 -192 180 -32 17 -210 90 -394 163 -412 164 -400
156 -400 293 l0 94 61 38 c210 129 357 330 419 569 l17 70 51 16 c84 28 152
91 187 173 9 21 15 66 15 109 0 80 -18 130 -65 186 -33 39 -120 92 -152 92
l-23 0 0 288 c0 319 -7 371 -62 474 -38 72 -121 157 -191 197 -95 54 -140 61
-369 61 -195 0 -209 -1 -228 -20 -12 -12 -20 -33 -20 -55 0 -22 8 -43 20 -55
18 -18 33 -20 173 -20 177 0 261 -12 326 -44 62 -32 126 -99 159 -166 l27 -55
3 -293 3 -293 -28 7 c-121 28 -275 127 -346 220 -89 119 -100 129 -154 129
-45 0 -54 -5 -143 -77 -237 -193 -528 -298 -827 -298 l-63 0 0 288 c0 322 5
352 65 434 18 25 54 60 79 78 79 53 115 62 304 67 169 6 173 6 192 31 26 32
25 63 -1 96 l-20 26 -187 -1 c-152 0 -198 -3 -244 -18z m876 -863 c90 -116
268 -228 421 -264 l77 -18 -5 -201 c-3 -168 -8 -212 -26 -275 -101 -342 -402
-570 -751 -570 -363 0 -669 239 -760 594 -16 65 -20 111 -20 258 l0 178 65 0
c224 0 459 57 665 160 85 43 248 148 270 176 18 20 21 18 64 -38z m-1228 -536
c-11 -10 -54 28 -70 63 -25 52 -14 99 32 144 l37 36 3 -119 c1 -65 0 -121 -2
-124z m3747 -484 l-103 -103 -60 60 -60 60 102 102 103 103 60 -60 60 -60
-102 -102z m-275 -161 l162 -162 -353 -352 c-365 -365 -398 -392 -476 -393
-62 0 -114 23 -168 75 -54 53 -73 96 -73 171 0 48 38 129 80 169 l29 28 50
-46 c58 -54 99 -62 138 -25 40 37 32 83 -24 140 l-47 48 49 50 49 49 52 -49
c29 -28 62 -50 73 -50 64 0 106 63 77 117 -8 15 -30 44 -50 63 l-36 34 47 48
47 48 46 -44 c25 -24 55 -47 68 -51 53 -16 112 42 99 97 -4 13 -27 43 -52 68
l-45 44 42 43 c23 24 45 43 48 43 3 0 78 -73 168 -163z m-2715 -292 c100 -19
281 -19 372 0 38 8 73 15 76 15 4 0 9 -37 11 -82 5 -85 21 -132 61 -175 l20
-23 -64 -29 c-183 -82 -422 -81 -589 4 -47 24 -51 28 -37 43 36 41 59 107 64
184 3 43 6 78 7 78 1 0 36 -7 79 -15z m205 -1148 c-3 -18 -16 -71 -29 -120
l-24 -87 20 -38 c27 -51 63 -61 223 -61 116 -1 133 -3 139 -18 7 -19 -76 -271
-117 -356 -41 -85 -47 -87 -356 -98 -171 -6 -275 -14 -290 -22 -12 -7 -179
-149 -371 -317 -191 -167 -364 -313 -383 -322 -65 -34 -172 -17 -228 35 -45
42 -64 94 -60 163 7 110 -5 100 592 493 348 230 547 367 565 390 15 20 88 125
160 235 128 191 133 197 148 176 9 -13 13 -34 11 -53z m-932 -429 c-3 -13 -6
-53 -6 -90 l0 -68 -207 -138 c-115 -76 -224 -148 -243 -160 l-36 -21 23 232
c12 128 22 240 22 250 1 16 19 17 227 17 l226 0 -6 -22z"/>
<path d="M1320 3810 c-18 -18 -20 -33 -20 -129 0 -106 1 -110 26 -130 35 -27
66 -27 99 2 22 18 27 34 32 84 7 80 -4 150 -28 174 -26 26 -83 25 -109 -1z"/>
<path d="M2104 3805 c-25 -25 -26 -30 -22 -130 4 -122 14 -140 79 -140 66 0
79 25 79 147 0 92 -2 101 -25 123 -32 33 -78 33 -111 0z"/>
<path d="M1590 3240 c-22 -22 -26 -70 -9 -101 18 -35 106 -69 178 -69 83 0
136 17 177 56 40 37 43 69 13 108 -24 30 -77 35 -119 11 -33 -19 -101 -19
-126 0 -28 21 -90 19 -114 -5z"/>
<path d="M2581 494 c-20 -25 -21 -39 -21 -236 0 -208 0 -209 25 -233 32 -33
83 -34 113 -2 21 22 22 31 22 238 0 212 0 216 -23 237 -34 32 -89 30 -116 -4z"/>
</g>
</svg>
