<svg xmlns="http://www.w3.org/2000/svg" width="20.279" height="31.485" viewBox="0 0 20.279 31.485">
  <g id="Icon_awesome-walking" data-name="Icon awesome-walking" transform="translate(0.646 0.5)">
    <path id="Icon_awesome-walking-2" data-name="Icon awesome-walking" d="M12.368,5.708A2.854,2.854,0,1,0,9.514,2.854,2.855,2.855,0,0,0,12.368,5.708Zm5.619,8.865-1.385-.7-.577-1.748A6.483,6.483,0,0,0,9.948,7.611c-2.14-.006-3.324.6-5.547,1.5a5.672,5.672,0,0,0-2.955,2.747l-.4.809a1.909,1.909,0,0,0,.844,2.551,1.877,1.877,0,0,0,2.527-.85l.4-.809a1.89,1.89,0,0,1,.981-.916L7.391,12l-.9,3.609a3.819,3.819,0,0,0,.886,3.5l3.562,3.889a3.837,3.837,0,0,1,.886,1.647L12.909,29a1.9,1.9,0,1,0,3.692-.922l-1.32-5.292a3.8,3.8,0,0,0-.886-1.647L11.69,18.182,12.712,14.1l.327.981a3.792,3.792,0,0,0,1.885,2.2l1.385.7a1.877,1.877,0,0,0,2.527-.85,1.925,1.925,0,0,0-.85-2.557ZM4.376,22.939a3.69,3.69,0,0,1-.844,1.278L.559,27.2A1.9,1.9,0,0,0,3.247,29.89l3.532-3.532a3.865,3.865,0,0,0,.844-1.278l.8-2.01c-3.288-3.585-2.3-2.485-2.818-3.193L4.376,22.939Z" transform="translate(-0.002)" fill="none" stroke="#88898a" stroke-width="1"/>
  </g>
</svg>
