<svg xmlns="http://www.w3.org/2000/svg" width="29.25" height="27" viewBox="0 0 29.25 27">
  <g id="Icon_ionic-md-wallet" data-name="Icon ionic-md-wallet" transform="translate(-3.375 -4.5)">
    <path id="Path_667" data-name="Path 667" d="M14.252,24V12a3,3,0,0,1,3-3H31.106V7.5a2.99,2.99,0,0,0-2.974-3H6.469A3.039,3.039,0,0,0,3.375,7.453V28.547A3.039,3.039,0,0,0,6.469,31.5H28.125a2.986,2.986,0,0,0,2.974-3V27H17.248A3,3,0,0,1,14.252,24Z" fill="#55a2ff"/>
    <path id="Path_668" data-name="Path 668" d="M17.227,13.078v9.844a1.128,1.128,0,0,0,1.125,1.125H31.5a1.128,1.128,0,0,0,1.125-1.125V13.078A1.128,1.128,0,0,0,31.5,11.953H18.352A1.128,1.128,0,0,0,17.227,13.078Zm5.421,7.165a2.251,2.251,0,1,1,2.1-2.1A2.251,2.251,0,0,1,22.648,20.243Z" fill="#55a2ff"/>
  </g>
</svg>
