<svg id="icons8_gift_card_1" xmlns="http://www.w3.org/2000/svg" width="87.108" height="83.758" viewBox="0 0 87.108 83.758">
  <path id="Path_6832" data-name="Path 6832" d="M79.955,50.752H53.9a6.632,6.632,0,0,0,.931-3.35,6.707,6.707,0,0,0-6.7-6.7,6.632,6.632,0,0,0-3.35.931V34h-3.35v7.632a6.632,6.632,0,0,0-3.35-.931,6.707,6.707,0,0,0-6.7,6.7,6.632,6.632,0,0,0,.931,3.35H23V54.1h9.307a6.632,6.632,0,0,0-.931,3.35,6.707,6.707,0,0,0,6.7,6.7,6.632,6.632,0,0,0,3.35-.931v7.632h3.35V63.221a6.632,6.632,0,0,0,3.35.931,6.707,6.707,0,0,0,6.7-6.7A6.632,6.632,0,0,0,53.9,54.1H79.955Zm-31.828-6.7a3.35,3.35,0,0,1,0,6.7h-3.35V47.4A3.354,3.354,0,0,1,48.127,44.051Zm-13.4,3.35a3.35,3.35,0,0,1,6.7,0v3.35h-3.35A3.354,3.354,0,0,1,34.726,47.4Zm3.35,13.4a3.35,3.35,0,0,1,0-6.7h3.35v3.35A3.354,3.354,0,0,1,38.076,60.8Zm13.4-3.35a3.35,3.35,0,1,1-6.7,0V54.1h3.35A3.354,3.354,0,0,1,51.478,57.452Z" transform="translate(5.478 11.229)" fill="#00b3cd"/>
  <path id="Path_6833" data-name="Path 6833" d="M48,40H58.051v3.35H48Z" transform="translate(22.356 15.28)" fill="#00b3cd"/>
  <path id="Path_6834" data-name="Path 6834" d="M48,51H58.051v3.35H48Z" transform="translate(22.356 22.707)" fill="#00b3cd"/>
  <path id="Path_6835" data-name="Path 6835" d="M88.083,50.554H76.356V33.8h3.35V25.427A5.032,5.032,0,0,0,74.681,20.4H56.211a8.289,8.289,0,0,0,1.719-5.025A8.35,8.35,0,0,0,42.853,10.4,8.343,8.343,0,1,0,29.5,20.4H11.025A5.032,5.032,0,0,0,6,25.427V33.8H9.35V68.981a8.385,8.385,0,0,0,8.376,8.376H29.452v-3.35H17.726A5.032,5.032,0,0,1,12.7,68.981V57.255H32.8V85.732a5.032,5.032,0,0,0,5.025,5.025H88.083a5.032,5.032,0,0,0,5.025-5.025V55.579A5.032,5.032,0,0,0,88.083,50.554Zm-38.529,0V47.2H73.006v3.35ZM39.5,33.8h6.7V50.554H39.5Zm1.675-10.051H46.2v6.7H39.5v-6.7Zm31.828,20.1H49.554V33.8H73.006Zm3.35-18.427v5.025h-26.8v-6.7H74.681A1.676,1.676,0,0,1,76.356,25.427ZM49.554,10.35a5.025,5.025,0,1,1,0,10.051H44.529V15.376A5.032,5.032,0,0,1,49.554,10.35ZM31.127,15.376a5.025,5.025,0,1,1,10.051,0V20.4H36.153A5.032,5.032,0,0,1,31.127,15.376ZM9.35,25.427a1.676,1.676,0,0,1,1.675-1.675H36.153v6.7H9.35Zm26.8,8.376V43.853H12.7V33.8ZM12.7,47.2H36.153v3.659A5.021,5.021,0,0,0,33.111,53.9H12.7ZM89.758,85.732a1.676,1.676,0,0,1-1.675,1.675H37.828a1.676,1.676,0,0,1-1.675-1.675V55.579A1.676,1.676,0,0,1,37.828,53.9H88.083a1.676,1.676,0,0,1,1.675,1.675Z" transform="translate(-6 -7)" fill="#00b3cd"/>
</svg>
