<svg xmlns="http://www.w3.org/2000/svg" width="41" height="52.241" viewBox="0 0 41 52.241">
  <g id="Group_1539" data-name="Group 1539" transform="translate(-95 -259.759)">
    <path id="icons8_whatsapp_1" d="M33.566,7.412A18.466,18.466,0,0,0,4.5,29.684L2,38.969l9.673-2.287A18.448,18.448,0,0,0,20.5,38.93H20.5A18.467,18.467,0,0,0,33.566,7.412ZM29.538,27.054a4.653,4.653,0,0,1-3.115,2.192c-.847.078-1.64.383-5.536-1.153-4.69-1.848-7.651-6.656-7.88-6.963a8.971,8.971,0,0,1-1.884-4.771,5.165,5.165,0,0,1,1.616-3.847,1.693,1.693,0,0,1,1.231-.577c.307,0,.616,0,.884.011.329.013.693.03,1.039.8.41.913,1.307,3.194,1.421,3.425a.852.852,0,0,1,.039.808,3.2,3.2,0,0,1-.46.769c-.231.27-.484.6-.691.808-.231.229-.471.481-.2.941a13.878,13.878,0,0,0,2.566,3.194,12.673,12.673,0,0,0,3.71,2.29c.462.231.73.192,1-.116s1.153-1.346,1.46-1.808.616-.384,1.039-.231,2.691,1.27,3.152,1.5.769.346.884.538A3.862,3.862,0,0,1,29.538,27.054Z" transform="translate(94.622 257.759)" fill="#12b2aa"/>
    <rect id="Rectangle_982" data-name="Rectangle 982" width="41" height="3" rx="1.5" transform="translate(95 309)" fill="#12b2aa"/>
  </g>
</svg>
