<svg xmlns="http://www.w3.org/2000/svg" width="68.552" height="54.991" viewBox="0 0 68.552 54.991">
  <g id="Wound_Care_t_-02" data-name="Wound Care, t -02" transform="translate(0.097 -0.098)">
    <path id="Path_3828" data-name="Path 3828" d="M50.075,44.04c.054-1.025.081-1.834.135-2.617a6.352,6.352,0,0,1,7.418-6.1c1.025.135,1.133-.539,1.349-1.106,2.428-6.447,4.8-12.894,7.283-19.314a1.757,1.757,0,0,1,1.457-.917c1,.162.782,1.052.513,1.726-1.295,3.291-2.671,6.528-3.938,9.846-1.241,3.264-2.4,6.555-3.426,9.873a14.4,14.4,0,0,0-.135,3.588,77.991,77.991,0,0,1-.486,9.091c-.432,2.671-1.4,5.476-4.37,6.447a8.972,8.972,0,0,1-4.828.324,37.243,37.243,0,0,1-8.2-3.291,53.866,53.866,0,0,0-16.185-5.584,43.937,43.937,0,0,1-14.836-6.042c-1.484-.944-3.48-1-5.152-1.726a26.828,26.828,0,0,1-4.855-2.751A4.956,4.956,0,0,1,.145,29.905c.539-2.023,1.645-3.911,3.965-4.316a7.6,7.6,0,0,1,3.291.27c1.322.4,2.482,1.241,3.8,1.645a11.364,11.364,0,0,0,4.289.7c4.1-.459,8.146-1.295,12.22-1.861a57.863,57.863,0,0,1,7.472-.7c5.854-.081,8.065-2.7,10.277-7.229C48,13.235,48.969,7.624,49.428,1.906c.027-.216-.027-.513.108-.647C49.887.827,50.291.125,50.7.1c.917-.027,1.106.782,1,1.565-.324,2.428-.647,4.882-1.052,7.31a38.089,38.089,0,0,1-3.776,11.572,13.274,13.274,0,0,1-5.044,5.638A12.1,12.1,0,0,1,37.4,27.559c-2.617.351-5.287.3-7.9.647-3.4.459-6.771,1.187-10.143,1.753-3.8.647-7.58.89-11.06-1.349A7.9,7.9,0,0,0,7.212,28.1C4.758,27.154,3.6,27.5,2.627,29.474a3.767,3.767,0,0,0,1.43,5.017c1.969,1,4.127,1.618,6.2,2.428a14.445,14.445,0,0,1,3.048,1.241,29.52,29.52,0,0,0,8.767,4.316c3.129.89,6.339,1.592,9.5,2.4,2.374.62,4.748,1.322,7.256,2.023.3-.459.674-1.052,1.052-1.618a5.621,5.621,0,0,1,6.069-2.131C47.216,43.474,48.538,43.717,50.075,44.04Zm9.037-2.158a30.719,30.719,0,0,0-.027-3.129,2.216,2.216,0,0,0-.809-1.538c-1.726-.917-4.775.216-5.557,2.023a9.411,9.411,0,0,0-.755,5.5c.3,1.592-.081,1.915-1.645,1.511A46.333,46.333,0,0,0,44.357,44.9c-1.861-.216-2.859.647-3.453,2.482a1.3,1.3,0,0,0,.3,1.16c3.561,2.05,7.148,4.154,11.329,4.721A4.344,4.344,0,0,0,57.3,51.054,18.3,18.3,0,0,0,59.112,41.882Z" transform="translate(0)" fill="#5581c4"/>
    <path id="Path_3829" data-name="Path 3829" d="M186.5,98.2c.836,0,1.43-.189,1.78.027a2.81,2.81,0,0,0,3.588.054,3.036,3.036,0,0,0,1.16-3.561c-.081-.3.189-.7.324-1.025.324.3.863.513.971.863a4.541,4.541,0,0,1-2.077,5.179C190.411,100.713,188.334,100.282,186.5,98.2Z" transform="translate(-136.263 -68.353)" fill="#5581c4"/>
  </g>
</svg>
