<svg xmlns="http://www.w3.org/2000/svg" width="448" height="447.097" viewBox="0 0 448 447.097">
  <g id="x-ray-_2_" transform="translate(-32 479.597)">
    <path id="Path_1705" data-name="Path 1705" d="M152.5-479.1A33.8,33.8,0,0,0,131-461.5c-3.6,7.2-3.5,20,.2,30.3,6.9,19.3,20.6,32.8,31.1,30.8,11.2-2.1,24-18.9,28.3-37.4,5.1-21.7-7.7-40.5-28.5-41.7C158.5-479.7,154.2-479.6,152.5-479.1Z" fill="#55a2ff"/>
    <path id="Path_1706" data-name="Path 1706" d="M470.3-475.5a38.449,38.449,0,0,0-18.6,19.3l-3.2,6.7v387l3.2,6.7a38.449,38.449,0,0,0,18.6,19.3c3.8,1.9,7.6,3.5,8.3,3.5,1.2,0,1.4-35.2,1.4-223s-.2-223-1.4-223C477.9-479,474.1-477.4,470.3-475.5Z" fill="#55a2ff"/>
    <path id="Path_1707" data-name="Path 1707" d="M226.5-453.5A7.8,7.8,0,0,0,224-448a7.8,7.8,0,0,0,2.5,5.5l2.4,2.5H368V-72H276.9l-2.4,2.5a7.349,7.349,0,0,0,0,11l2.4,2.5H379.1l2.4-2.5,2.5-2.4V-451.1l-2.5-2.4-2.4-2.5H228.9Z" fill="#55a2ff"/>
    <path id="Path_1708" data-name="Path 1708" d="M402.5-453.5A7.8,7.8,0,0,0,400-448a7.8,7.8,0,0,0,2.5,5.5A7.8,7.8,0,0,0,408-440a7.8,7.8,0,0,0,5.5-2.5A7.8,7.8,0,0,0,416-448a7.8,7.8,0,0,0-2.5-5.5A7.8,7.8,0,0,0,408-456,7.8,7.8,0,0,0,402.5-453.5Z" fill="#55a2ff"/>
    <path id="Path_1709" data-name="Path 1709" d="M402.5-421.5A7.8,7.8,0,0,0,400-416a7.8,7.8,0,0,0,2.5,5.5A7.8,7.8,0,0,0,408-408a7.8,7.8,0,0,0,5.5-2.5A7.8,7.8,0,0,0,416-416a7.8,7.8,0,0,0-2.5-5.5A7.8,7.8,0,0,0,408-424,7.8,7.8,0,0,0,402.5-421.5Z" fill="#55a2ff"/>
    <path id="Path_1710" data-name="Path 1710" d="M402.5-389.5A7.8,7.8,0,0,0,400-384a7.8,7.8,0,0,0,2.5,5.5A7.8,7.8,0,0,0,408-376a7.8,7.8,0,0,0,5.5-2.5A7.8,7.8,0,0,0,416-384a7.8,7.8,0,0,0-2.5-5.5A7.8,7.8,0,0,0,408-392,7.8,7.8,0,0,0,402.5-389.5Z" fill="#55a2ff"/>
    <path id="Path_1711" data-name="Path 1711" d="M94.7-382.9c-5.7,1.4-13.4,5.6-18.3,10.1C72.3-369,65-356.6,65-353.4c0,1.2,15.4,1.4,95,1.4s95-.2,95-1.4c0-.7-1.6-4.5-3.5-8.3a38.449,38.449,0,0,0-19.3-18.6l-6.7-3.2-63.5-.2C127-383.8,96.8-383.4,94.7-382.9Z" fill="#55a2ff"/>
    <path id="Path_1712" data-name="Path 1712" d="M402.5-357.5A7.8,7.8,0,0,0,400-352a7.8,7.8,0,0,0,2.5,5.5A7.8,7.8,0,0,0,408-344a7.8,7.8,0,0,0,5.5-2.5A7.8,7.8,0,0,0,416-352a7.8,7.8,0,0,0-2.5-5.5A7.8,7.8,0,0,0,408-360,7.8,7.8,0,0,0,402.5-357.5Z" fill="#55a2ff"/>
    <path id="Path_1713" data-name="Path 1713" d="M32-232v104H288V-336H32Zm133.5-85.5c1.4,1.3,2.5,3.1,2.5,4,0,1.3,2.2,1.5,15.3,1.5,16.2,0,29.8,1.1,36.6,3,9.9,2.6,15.3,12.9,9.8,18.4-3.7,3.7-8.1,3.5-11.7-.4-2.5-2.7-3.8-3.2-11.2-4-4.6-.6-15.2-1-23.5-1H168v23.7l28.3.6c36.3.8,45.2,2.5,49.7,10,2.7,4.4,2.5,8.3-.5,11.2-3.3,3.4-7.8,3.3-11.3-.2a16.511,16.511,0,0,0-6.7-3.5c-2.2-.5-16.5-1.1-31.7-1.5l-27.8-.6V-232h15.3c16.2,0,29.8,1.1,36.6,3,9.9,2.6,15.3,12.9,9.8,18.4-3.7,3.7-8.1,3.5-11.7-.4-2.5-2.7-3.8-3.2-11.2-4-4.6-.6-15.2-1-23.5-1H168v24h13.5c13.3,0,13.6.1,16.2,2.6,2.4,2.4,2.5,3,2,9.1-1.3,13.9-9.6,25.7-22.5,32.1-7.2,3.5-8.1,3.7-17.2,3.7s-10-.2-17.2-3.7c-12.9-6.4-21.2-18.2-22.5-32.1-.5-6.1-.4-6.7,2-9.1,2.6-2.5,2.9-2.6,16.2-2.6H152v-24H136.8c-8.4,0-19,.4-23.6,1-7.4.8-8.7,1.3-11.2,4-3.6,3.9-8,4.1-11.7.4-5.5-5.5-.1-15.8,9.8-18.4,6.8-1.9,20.4-3,36.7-3H152v-24.3l-27.7.6c-15.3.4-29.6,1-31.8,1.5a16.511,16.511,0,0,0-6.7,3.5c-3.5,3.5-8,3.6-11.3.2-3-2.9-3.2-6.8-.5-11.2,4.5-7.5,13.4-9.2,49.8-10l28.2-.6V-296H136.8c-8.4,0-19,.4-23.6,1-7.4.8-8.7,1.3-11.2,4-3.6,3.9-8,4.1-11.7.4-5.5-5.5-.1-15.8,9.8-18.4,6.8-1.9,20.4-3,36.7-3,13,0,15.2-.2,15.2-1.5,0-2.7,4.7-6.5,8-6.5A7.8,7.8,0,0,1,165.5-317.5Z" fill="#55a2ff"/>
    <path id="Path_1714" data-name="Path 1714" d="M138-174.4c0,2.7,10.1,11.9,14.6,13.2,9.5,2.8,16.8.8,24.2-6.5,8.4-8.4,8.6-8.3-16.8-8.3C140.7-176,138-175.8,138-174.4Z" fill="#55a2ff"/>
    <path id="Path_1715" data-name="Path 1715" d="M402.5-325.5A7.8,7.8,0,0,0,400-320a7.8,7.8,0,0,0,2.5,5.5A7.8,7.8,0,0,0,408-312a7.8,7.8,0,0,0,5.5-2.5A7.8,7.8,0,0,0,416-320a7.8,7.8,0,0,0-2.5-5.5A7.8,7.8,0,0,0,408-328,7.8,7.8,0,0,0,402.5-325.5Z" fill="#55a2ff"/>
    <path id="Path_1716" data-name="Path 1716" d="M402.5-293.5A7.8,7.8,0,0,0,400-288a7.8,7.8,0,0,0,2.5,5.5A7.8,7.8,0,0,0,408-280a7.8,7.8,0,0,0,5.5-2.5A7.8,7.8,0,0,0,416-288a7.8,7.8,0,0,0-2.5-5.5A7.8,7.8,0,0,0,408-296,7.8,7.8,0,0,0,402.5-293.5Z" fill="#55a2ff"/>
    <path id="Path_1717" data-name="Path 1717" d="M402.5-261.5A7.9,7.9,0,0,0,408-248a8.446,8.446,0,0,0,8-8,7.8,7.8,0,0,0-2.5-5.5A7.8,7.8,0,0,0,408-264,7.8,7.8,0,0,0,402.5-261.5Z" fill="#55a2ff"/>
    <path id="Path_1718" data-name="Path 1718" d="M402.5-229.5A7.9,7.9,0,0,0,408-216a8.446,8.446,0,0,0,8-8,8.446,8.446,0,0,0-8-8A7.8,7.8,0,0,0,402.5-229.5Z" fill="#55a2ff"/>
    <path id="Path_1719" data-name="Path 1719" d="M402.5-197.5A7.9,7.9,0,0,0,408-184a8.446,8.446,0,0,0,8-8,8.446,8.446,0,0,0-8-8A7.8,7.8,0,0,0,402.5-197.5Z" fill="#55a2ff"/>
    <path id="Path_1720" data-name="Path 1720" d="M402.5-165.5A7.9,7.9,0,0,0,408-152a8.446,8.446,0,0,0,8-8,8.446,8.446,0,0,0-8-8A7.8,7.8,0,0,0,402.5-165.5Z" fill="#55a2ff"/>
    <path id="Path_1721" data-name="Path 1721" d="M402.5-133.5A7.9,7.9,0,0,0,408-120a8.446,8.446,0,0,0,8-8,8.446,8.446,0,0,0-8-8A7.8,7.8,0,0,0,402.5-133.5Z" fill="#55a2ff"/>
    <path id="Path_1722" data-name="Path 1722" d="M104.2-77.1c.3,33.5.4,35.1,2.4,37.7,3.9,5.3,7.1,6.9,13.4,6.9s9.5-1.6,13.4-6.9c2-2.6,2.1-4.2,2.4-37.7l.3-34.9H103.9Z" fill="#55a2ff"/>
    <path id="Path_1723" data-name="Path 1723" d="M184.2-77.1c.3,33.5.4,35.1,2.4,37.7,3.9,5.3,7.1,6.9,13.4,6.9s9.5-1.6,13.4-6.9c2-2.6,2.1-4.2,2.4-37.7l.3-34.9H183.9Z" fill="#55a2ff"/>
    <path id="Path_1724" data-name="Path 1724" d="M402.5-101.5A7.9,7.9,0,0,0,408-88a8.446,8.446,0,0,0,8-8,8.446,8.446,0,0,0-8-8A7.8,7.8,0,0,0,402.5-101.5Z" fill="#55a2ff"/>
    <path id="Path_1725" data-name="Path 1725" d="M402.5-69.5A7.9,7.9,0,0,0,408-56a8.446,8.446,0,0,0,8-8,8.446,8.446,0,0,0-8-8A7.8,7.8,0,0,0,402.5-69.5Z" fill="#55a2ff"/>
  </g>
</svg>
