<?xml version="1.0" encoding="utf-8"?>
<!-- Generator: Adobe Illustrator 26.0.1, SVG Export Plug-In . SVG Version: 6.00 Build 0)  -->
<svg version="1.1" id="Layer_1" xmlns="http://www.w3.org/2000/svg" xmlns:xlink="http://www.w3.org/1999/xlink" x="0px" y="0px"
	 viewBox="0 0 403.2 492.9" style="enable-background:new 0 0 403.2 492.9;" xml:space="preserve">
<path d="M200.2,0.1c-2.8,0.4-5.4,1.8-7.2,4C155.8,49,108.4,104.9,70,159.3C31.6,213.8,1.2,265.9,0,309.1v0.4
	c0,101.8,91.2,183.4,201.6,183.4s201.6-81.6,201.6-183.4v-0.4c-1.2-43.2-31.6-95.3-70-149.8C294.8,104.9,247.4,49,210.2,4.1
	C207.7,1.1,204-0.4,200.2,0.1L200.2,0.1z M201.6,28.8c35.9,43.2,78.3,94,113.2,143.5c37.5,53.1,64.9,104.8,66,137.2
	c0,0.1,0,0.1,0,0.2v0.2c-0.2,88.2-79.9,160.6-179.2,160.6S22.6,398,22.4,309.8c0-0.1,0-0.1,0-0.2v-0.2c1.1-32.4,28.5-84.1,66-137.2
	C123.3,122.8,165.7,72,201.6,28.8L201.6,28.8z M184.8,173.7c-12.2,0-22.4,10.2-22.4,22.4v33.6h-33.6c-12.2,0-22.4,10.2-22.4,22.4
	v33.6c0,12.2,10.2,22.4,22.4,22.4h33.6v33.6c0,12.2,10.2,22.4,22.4,22.4h33.6c12.2,0,22.4-10.2,22.4-22.4v-33.6h33.6
	c12.2,0,22.4-10.2,22.4-22.4v-33.6c0-12.2-10.2-22.4-22.4-22.4h-33.6v-33.6c0-12.2-10.2-22.4-22.4-22.4H184.8z M184.8,196.1h33.6
	v44.8c0,6.2,5,11.2,11.2,11.2h44.8v33.6h-44.8c-6.2,0-11.2,5-11.2,11.2v44.8h-33.6v-44.8c0-6.2-5-11.2-11.2-11.2h-44.8v-33.6h44.8
	c6.2,0,11.2-5,11.2-11.2V196.1z M162.4,380.9c-12.2,0-22.4,10.2-22.4,22.4v16.8c0,12.2,10.2,22.4,22.4,22.4h78.4
	c12.2,0,22.4-10.2,22.4-22.4v-16.8c0-12.2-10.2-22.4-22.4-22.4H162.4z M162.4,403.3h78.4v16.8h-78.4V403.3z"/>
</svg>
