<svg class="svg-icon" style="width: 1em;height: 1em;vertical-align: middle;fill: currentColor;overflow: hidden;" viewBox="0 0 1024 1024" version="1.1" xmlns="http://www.w3.org/2000/svg"><path d="M418.341059 798.513504h-2.949946A298.866403 298.866403 0 0 1 162.248873 501.490817V64.530068A64.530068 64.530068 0 0 1 226.778941 0h570.445805a64.530068 64.530068 0 0 1 64.530069 64.530068v436.960749a299.603889 299.603889 0 0 1-248.901693 296.100829 18.437162 18.437162 0 0 1-6.268635-36.874325A262.913936 262.913936 0 0 0 824.88049 501.490817V64.530068a27.655744 27.655744 0 0 0-27.655744-27.655743H226.778941A27.655744 27.655744 0 0 0 199.123198 64.530068v436.960749a262.176449 262.176449 0 0 0 221.245949 260.332734 18.437162 18.437162 0 0 1-2.765575 36.874324z"  /><path d="M762.747252 447.654303H261.256435a18.437162 18.437162 0 0 1-18.437162-18.437162V103.432481a18.437162 18.437162 0 0 1 18.437162-18.437162h501.490817a18.437162 18.437162 0 0 1 18.437163 18.437162v325.78466a18.437162 18.437162 0 0 1-18.437163 18.437162z m-483.053655-36.874325h464.616493V121.869644H279.693597zM606.584487 1024h-182.343536a18.437162 18.437162 0 0 1-18.437163-18.437162V700.612171a18.437162 18.437162 0 0 1 18.437163-18.437162h182.343536a18.437162 18.437162 0 0 1 18.437162 18.437162v304.950667a18.437162 18.437162 0 0 1-18.437162 18.437162z m-163.906374-36.874325h145.469211V719.049334h-145.469211zM403.7757 626.863522h-92.185812a69.139359 69.139359 0 0 1 0-138.094347h92.185812a69.139359 69.139359 0 0 1 0 138.094347z m-92.185812-101.220022a32.265034 32.265034 0 0 0 0 64.345697h92.185812a32.265034 32.265034 0 0 0 0-64.345697zM712.229427 626.863522h-92.185812a69.139359 69.139359 0 1 1 0-138.094347h92.185812a69.139359 69.139359 0 0 1 0 138.094347z m-92.185812-101.220022a32.265034 32.265034 0 1 0 0 64.345697h92.185812a32.265034 32.265034 0 0 0 0-64.345697z"  /><path d="M512.554959 389.024127a82.967231 82.967231 0 0 1-82.78286-82.782859c0-38.718041 55.311487-134.591286 66.9269-153.581563a18.437162 18.437162 0 0 1 31.711919 0c11.246669 18.437162 66.9269 114.863522 66.9269 153.581563A82.967231 82.967231 0 0 1 512.554959 389.024127z m0-189.718401c-22.493338 41.114872-45.908534 89.973353-45.908535 106.935542a45.908534 45.908534 0 0 0 92.185812 0c-0.921858-16.962189-24.337054-66.558156-46.277277-106.935542z" fill="#24D1AF" /></svg>