<?xml version="1.0" encoding="utf-8"?>
<!-- Generator: Adobe Illustrator 26.0.1, SVG Export Plug-In . SVG Version: 6.00 Build 0)  -->
<svg version="1.1" id="Layer_1" xmlns="http://www.w3.org/2000/svg" xmlns:xlink="http://www.w3.org/1999/xlink" x="0px" y="0px"
	 viewBox="0 0 490 490.9" style="enable-background:new 0 0 490 490.9;" xml:space="preserve">
<path d="M46.9,268C18.4,226.5,2.1,177.7,0,127.3c0-33.7,13.4-66.1,37.3-90s56.2-37.3,90-37.3c27.3-1.2,54.2,7.3,75.8,24.1
	c17.4,14.9,31.6,33,42,53.4c10.5-20,24.7-37.9,42-52.5c21.5-17.1,48.3-26,75.8-25c33.7,0,66.1,13.4,90,37.3s37.3,56.2,37.3,90
	c-1.1,43.1-13.1,85.3-35,122.5c-0.2,0.5-0.5,1-0.9,1.4c-11.6,20.6-24.7,40.5-39,59.3C365,373.4,310.6,432.7,252.4,488.2
	c-3.7,3.6-9.6,3.6-13.3,0c-58.2-55.4-112.6-114.8-162.8-177.6c-10.5-13.8-20.1-27.8-28.7-41.6L46.9,268z M54.8,245.1l43.4-70
	c2-3.4,5.9-5.3,9.8-4.6c3.9,0.7,7,3.7,7.7,7.6l28.9,102l52.5-134c1.8-3.4,5.6-5.4,9.5-4.9s7.1,3.3,8,7L248,297.6l24.3-56.2
	c1.4-3.5,4.8-5.7,8.6-5.6h159.2c19.1-33,29.8-70.2,31-108.3c0-28.7-11.4-56.3-31.7-76.6c-20.3-20.3-47.9-31.7-76.6-31.7
	c-23-1.2-45.7,5.9-64,19.9c-19.4,17.6-34.9,39.1-45.3,63.2c-0.9,1.8-2.4,3.3-4.2,4.2c-4.6,2.3-10.3,0.4-12.6-4.2
	c-10.4-24.1-25.9-45.6-45.3-63.2c-18.3-14.1-41-21.2-64-20.1c-28.7,0-56.3,11.4-76.6,31.7C30.3,71,18.9,98.6,18.9,127.3
	C20.4,169.1,32.7,209.7,54.8,245.1L54.8,245.1z M429.3,255.1H287l-33.2,76.8c-1.1,2.9-3.6,5-6.6,5.6c-2.4,0.6-5,0.2-7.1-1.1
	s-3.6-3.5-4.1-5.9l-32.7-147.7l-51.1,130.5c-1.4,3.6-4.9,5.9-8.8,5.9s-7.3-2.3-8.8-5.9l-31.7-109.7l-37.3,59
	c7.7,11.9,15.9,23.8,24.9,35c47.6,60,99.2,116.7,154.5,169.8c55.3-53,106.9-109.7,154.5-169.8c10.9-14.5,21-29.2,29.8-43.7
	L429.3,255.1z"/>
</svg>
