<?xml version="1.0" encoding="utf-8"?>
<!-- Generator: Adobe Illustrator 26.0.1, SVG Export Plug-In . SVG Version: 6.00 Build 0)  -->
<svg version="1.1" id="Layer_1" xmlns="http://www.w3.org/2000/svg" xmlns:xlink="http://www.w3.org/1999/xlink" x="0px" y="0px"
	 viewBox="0 0 551.4 499.9" style="enable-background:new 0 0 551.4 499.9;" xml:space="preserve">
<g>
	<path d="M236.1,274.1l-29.4,7.5c1.3,9.7,2.2,15.5,2.3,16.2c11.6,78.4,9.4,96.4-42.5,126.7c-6.7,3.9-13.4,8-20.2,12.2
		c-26.4,16.2-53.8,33-73.3,33c-6.8,0-25,0-34.6-50.4C8.3,262,66.3,158,120.3,98.5c11.6-12.8,23.2-19.6,33.4-19.6
		c21.8,0,41.7,32.8,42.6,70.1c0.5,20.6,1.6,40,2.8,57.7l29.3-13c-0.9-14.3-1.6-29.6-2.1-45.5c-1.2-48.9-28.8-99.4-72.7-99.4
		c-19.2,0-38,9.9-55.8,29.5C39.4,142.9-23.6,255.5,8.8,425.1c9.5,49.6,31.1,74.8,64.2,74.8c28.1,0,59.1-19,89.1-37.4
		c6.6-4,13.2-8.1,19.6-11.9c70.8-41.4,68.4-80.2,57-157.2C238.7,293.1,237.6,286.1,236.1,274.1L236.1,274.1z"/>
	<path d="M453.5,78.3c-17.7-19.6-36.5-29.5-55.7-29.5c-43.9,0-71.5,50.6-72.7,99.4c-0.4,15.8-1.1,31-2,45.2l29.3,13
		c1.2-17.6,2.3-36.9,2.8-57.4c0.9-37.3,20.9-70.1,42.6-70.1c10.2,0,21.8,6.8,33.4,19.6c54,59.5,112,163.6,81.9,321
		c-9.6,50.3-27.8,50.3-34.6,50.3c-19.6,0-46.9-16.8-73.3-33c-6.8-4.1-13.5-8.3-20.2-12.2c-51.9-30.4-54.1-48.4-42.5-126.6
		c0.1-0.8,1.1-6.7,2.4-16.6l-29.4-7.5c-1.6,12.1-2.7,19.3-2.7,19.5c-11.4,76.9-13.7,115.7,57,157.1c6.5,3.8,13.1,7.8,19.6,11.9
		c30,18.4,61,37.4,89.1,37.4c33.1,0,54.7-25.2,64.2-74.8C575,255.5,512,142.9,453.5,78.3L453.5,78.3z"/>
	<path d="M466.7,278.2l-48.3-18l28.7-25.2c1.7-1.7,1.9-4.4,0.5-6.4c-1.4-1.9-4-2.8-6.2-1.6l-41.8,25.7L374,242.3l35.7-58.1
		c1.2-2.3,0.4-5.1-1.7-6.5c-2.1-1.4-5-0.9-6.6,1.1l-44.1,56.8L297.8,209l0-209h-42.9v209l-59.5,26.6l-44.1-56.8
		c-1.6-2-4.5-2.5-6.6-1.1c-2.2,1.4-2.9,4.2-1.7,6.5l35.7,58.1L153,252.6L111.2,227c-2.2-1.1-4.8-0.3-6.2,1.6c-1.4,2-1.2,4.6,0.5,6.4
		l28.7,25.2l-48.3,18c-2.4,1-3.7,3.7-2.9,6.2c0.8,2.5,3.4,3.9,5.9,3.3l65.3-18.5l-30.4,64.6c-1.1,2.4-0.1,5.2,2.2,6.4
		c0.1,0.1,0.3,0.1,0.5,0.2c2.2,0.9,4.8,0.1,6.1-1.9l41.7-69.1c1.5-2.2,2.5-3.9,3.3-5.3l0.5-0.7l98.3-25l98.3,25l0.5,0.7
		c0.8,1.4,1.8,3.2,3.3,5.3l41.7,69.1c1.3,2,3.9,2.8,6.1,1.9c0.2-0.1,0.3-0.1,0.5-0.2c2.3-1.2,3.2-4.1,2.2-6.4l-30.5-64.6l65.3,18.5
		c2.5,0.6,5.1-0.8,5.9-3.3C470.4,281.9,469.1,279.2,466.7,278.2L466.7,278.2z"/>
</g>
</svg>
