<?xml version="1.0" encoding="utf-8"?>
<!-- Generator: Adobe Illustrator 26.0.1, SVG Export Plug-In . SVG Version: 6.00 Build 0)  -->
<svg version="1.1" id="Layer_1" xmlns="http://www.w3.org/2000/svg" xmlns:xlink="http://www.w3.org/1999/xlink" x="0px" y="0px"
	 viewBox="0 0 504 448" style="enable-background:new 0 0 504 448;" xml:space="preserve">
<path d="M490,0H14C6.3,0,0,6.3,0,14v420c0,7.7,6.3,14,14,14h476c7.7,0,14-6.3,14-14V14C504,6.3,497.7,0,490,0z M476,420H28V28h448
	V420z"/>
<path d="M70,392h364c7.7,0,14-6.3,14-14V70c0-7.7-6.3-14-14-14H70c-7.7,0-14,6.3-14,14v308C56,385.7,62.3,392,70,392z M84,364V238
	h42c5.7,0,10.9-3.5,13-8.8l10.5-26.3l18.8,93.8c1.3,6.4,6.8,11.1,13.4,11.2c0.1,0,0.2,0,0.3,0c6.4,0,12-4.4,13.6-10.6l27.4-109.5
	l29.4,137c1.3,6.2,6.7,10.8,13.1,11.1c0.2,0,0.4,0,0.6,0c6.2,0,11.6-4,13.4-10l29.3-97.6l0,0.1c1.9,5.7,7.3,9.6,13.3,9.6h98v126
	L84,364z M420,84v126h-87.9l-10.8-32.4c-1.9-5.7-7.3-9.6-13.3-9.6h-0.2c-6.1,0.1-11.4,4.1-13.2,10l-26.3,87.8l-30.6-142.7
	c-1.4-6.4-6.9-11-13.5-11.1c-6.6-0.1-12.2,4.3-13.8,10.6l-26.9,107.6l-15.8-78.9c-1.2-6.1-6.3-10.6-12.4-11.2
	c-6.2-0.6-12,3-14.3,8.7L116.5,210H84V84L420,84z"/>
</svg>
