<?xml version="1.0" encoding="utf-8"?>
<!-- Generator: Adobe Illustrator 26.0.1, SVG Export Plug-In . SVG Version: 6.00 Build 0)  -->
<svg version="1.1" id="Layer_1" xmlns="http://www.w3.org/2000/svg" xmlns:xlink="http://www.w3.org/1999/xlink" x="0px" y="0px"
	 viewBox="0 0 292.7 537.6" style="enable-background:new 0 0 292.7 537.6;" xml:space="preserve">
<g>
	<path d="M94.4,535.4c75,14.6,140-42.6,140-115.4c0-38.1-19-72.8-48.2-94.1V69.4C186.3,31.4,156,0,116.8,0
		C78.8,0,47.4,31.4,47.4,69.4v256.5C12.7,351.7-7.5,395.4,2.6,444.6C11.6,489.4,48.5,526.4,94.4,535.4L94.4,535.4z M62,347.2
		l10.1-7.8V70.6c0-24.6,20.2-43.7,43.7-43.7c24.6,0,44.8,20.2,44.8,43.7v268.8l10.1,7.8c23.5,16.8,37,44.8,37,73.9
		c0,24.6-10.1,48.2-26.9,65c-17.9,16.8-40.3,26.9-65,26.9c-45.9,0-81.8-32.5-89.6-72.8C20.5,403.2,34,367.4,62,347.2z"/>
	<path d="M116.8,486.1c17.9,0,34.7-6.7,47-19c12.3-12.3,19-29.1,19-47c0-44.8-38.1-59.4-48.2-68.3l0-189.3h-37v189.3
		c-7.8,9-57.1,26.9-45.9,81.8C57.5,462.6,83.2,486.1,116.8,486.1L116.8,486.1z"/>
	<path d="M279.2,76.2h-63.8v25.8h63.8c6.7,0,12.3-5.6,12.3-12.3C292.7,81.8,287.1,76.2,279.2,76.2L279.2,76.2z"/>
	<path d="M266.9,156.8c0-6.7-5.6-12.3-12.3-12.3h-38.1v25.8h38.1C261.3,169.1,266.9,163.5,266.9,156.8L266.9,156.8z"/>
	<path d="M292.7,224c0-6.7-5.6-12.3-12.3-12.3h-63.8v25.8h63.8C287.1,237.4,292.7,230.7,292.7,224L292.7,224z"/>
</g>
</svg>
