<?xml version="1.0" encoding="utf-8"?>
<!-- Generator: Adobe Illustrator 26.0.1, SVG Export Plug-In . SVG Version: 6.00 Build 0)  -->
<svg version="1.1" id="Layer_1" xmlns="http://www.w3.org/2000/svg" xmlns:xlink="http://www.w3.org/1999/xlink" x="0px" y="0px"
	 viewBox="0 0 427.1 544.8" style="enable-background:new 0 0 427.1 544.8;" xml:space="preserve">
<g>
	<path d="M284.5,151c0,4.8-3.9,8.6-8.6,8.6s-8.6-3.9-8.6-8.6c0-4.8,3.9-8.6,8.6-8.6S284.5,146.2,284.5,151"/>
	<path d="M264.8,195.6c0,4.8-3.9,8.6-8.6,8.6c-4.8,0-8.6-3.9-8.6-8.6s3.9-8.6,8.6-8.6C260.9,187,264.8,190.8,264.8,195.6"/>
	<path d="M375.7,151c0,4.8-3.9,8.6-8.6,8.6c-4.8,0-8.6-3.9-8.6-8.6c0-4.8,3.9-8.6,8.6-8.6C371.8,142.4,375.7,146.2,375.7,151"/>
	<path d="M282.4,238.7c0,4.8-3.9,8.6-8.6,8.6s-8.6-3.9-8.6-8.6s3.9-8.6,8.6-8.6S282.4,233.9,282.4,238.7"/>
	<path d="M377.4,238c0,4.8-3.9,8.6-8.6,8.6c-4.8,0-8.6-3.9-8.6-8.6c0-4.8,3.9-8.6,8.6-8.6C373.5,229.3,377.4,233.2,377.4,238"/>
	<path d="M329,259.2c0,4.8-3.9,8.6-8.6,8.6s-8.6-3.9-8.6-8.6s3.9-8.6,8.6-8.6S329,254.4,329,259.2"/>
	<path d="M392.8,195.3c0,4.8-3.9,8.6-8.6,8.6s-8.6-3.9-8.6-8.6c0-4.8,3.9-8.6,8.6-8.6S392.8,190.5,392.8,195.3"/>
	<path d="M326.9,174.2v-50.5h-13.1v50.5c-9.2,2.8-15.8,11.3-15.8,21.4c0,12.4,10,22.4,22.4,22.4c12.3,0,22.4-10,22.4-22.4
		C342.7,185.5,336.1,177,326.9,174.2L326.9,174.2z"/>
	<path d="M87.7,40.1c0.1,22.1,18,40,40.1,40.1c22.1-0.1,40-18,40.1-40.1c0-22.2-18-40.1-40.1-40.1C105.7,0,87.8,17.9,87.7,40.1
		L87.7,40.1z"/>
	<path d="M320.4,89c-58.9,0-106.8,47.9-106.8,106.8c0,44.7,27.6,83,66.6,98.9V343H309v158.7l0,0.4c0.1,4-1,12.4-3.8,15
		c-4.7,4.4-15,5.2-18.2,5l-40.7,0v-42.6h-156c3.9-3.8,6.2-8.8,6.2-14.3l42.1-260.5c0,0,8.6-60.5-15.2-96.9C108.6,85,95.8,77,93,75.5
		C75.5,63.2,47.2,73,47.3,104.9v148.4c0,29,37.3,29.3,37.3,0l0-121.3H99v121.3c0,27.2-16.7,36.3-33.1,36.3c0,0-12.5-0.1-18.2-8.7
		L48,465.1c0,5.5,2.4,10.6,6.2,14.4H0v65.3c0,0,287.1,0,287.6,0c5.4,0,22.2-0.9,33.2-11.3c10.8-10.2,11-28,10.9-32l0-158.5h28.9
		v-48.4c39-15.9,66.6-54.2,66.6-98.9C427.2,136.9,379.3,89,320.4,89L320.4,89z M320.4,281.5c-47.3,0-85.7-38.4-85.7-85.7
		c0-47.3,38.4-85.7,85.7-85.7c47.3,0,85.7,38.4,85.7,85.7C406.1,243,367.6,281.5,320.4,281.5L320.4,281.5z"/>
</g>
</svg>
